<?xml version="1.0" encoding="utf-8"?>
<!-- Generator: Adobe Illustrator 18.1.1, SVG Export Plug-In . SVG Version: 6.00 Build 0)  -->
<svg version="1.1" id="Layer_1" xmlns="http://www.w3.org/2000/svg" xmlns:xlink="http://www.w3.org/1999/xlink" x="0px" y="0px"
	 viewBox="0 0 720 359" enable-background="new 0 0 720 359" xml:space="preserve">
<g>
	<g>
		<path fill="#0075C9" d="M426.8,319.2h4.4v35H453v4.1h-26.2V319.2z"/>
		<path fill="#0075C9" d="M461.1,319.2h28v4h-23.6v13.3h21.2v4h-21.2v13.7h23.9v4h-28.3V319.2z"/>
		<path fill="#0075C9" d="M512.5,318.9h4.1l17.7,39.3h-4.7l-4.5-10.3h-21.1l-4.6,10.3h-4.5L512.5,318.9z M523.3,344l-8.8-19.9
			l-8.9,19.9H523.3z"/>
		<path fill="#0075C9" d="M542.8,319.2h16.7c4.8,0,8.6,1.5,11,3.9c1.9,1.9,3,4.6,3,7.7v0.1c0,6.5-4.4,10.3-10.5,11.4l11.9,16h-5.4
			l-11.2-15.2h-11.1v15.2h-4.4V319.2z M559.1,339.1c5.8,0,10-3,10-8V331c0-4.8-3.7-7.7-9.9-7.7h-12v15.8H559.1z"/>
		<path fill="#0075C9" d="M582.8,319.2h4.1l24.4,31.3v-31.3h4.3v39.1h-3.5l-25-32v32h-4.3V319.2z"/>
		<path fill="#0075C9" d="M627,319.2h4.4v39.1H627V319.2z"/>
		<path fill="#0075C9" d="M642.7,319.2h4.1l24.4,31.3v-31.3h4.3v39.1H672l-25-32v32h-4.3V319.2z"/>
		<path fill="#0075C9" d="M684.7,338.8v-0.1c0-10.7,7.8-20.2,19.4-20.2c6.5,0,10.6,1.9,14.5,5.2l-2.8,3.3c-3-2.6-6.3-4.5-11.8-4.5
			c-8.6,0-14.7,7.3-14.7,16v0.1c0,9.3,5.9,16.2,15.3,16.2c4.4,0,8.5-1.7,11.2-3.9v-9.7H704v-4h16V353c-3.6,3.2-9,6-15.6,6
			C692.2,358.9,684.7,350,684.7,338.8z"/>
	</g>
	<g>
		<path fill="#4B4F54" d="M153.7,255.2v-0.4c0-18.9,16.1-29.6,39.4-29.6c12.6,0,21.2,1.6,29.9,3.9v-3.9c0-18.4-11.1-27.8-29.7-27.8
			c-11,0-20,3-28.3,7.3l-3.2-7.7c9.9-4.6,19.6-7.8,32-7.8c12.2,0,21.9,3.4,28.5,10c6,6.1,9.2,14.4,9.2,25.7v56.7h-8.5v-15.1
			c-6.2,8.7-17.3,17.3-34.5,17.3C171.8,283.7,153.7,274,153.7,255.2z M223.2,247.5v-10.3c-7.6-2-17.7-4.1-30.6-4.1
			c-19.1,0-29.7,8.6-29.7,21.2v0.4c0,13.2,12.4,20.9,26.2,20.9C207.5,275.5,223.2,264.1,223.2,247.5z"/>
		<path fill="#4B4F54" d="M245.5,270.1l5.1-6.9c9.9,7.7,20.9,11.9,32.4,11.9c12.2,0,21.8-6.8,21.8-17.3v-0.4
			c0-10.7-11.3-14.6-23.9-18.2c-14.7-4.3-30.9-8.7-30.9-25V214c0-14.6,12.2-25.1,29.7-25.1c10.8,0,23,3.9,32,10l-4.6,7.3
			c-8.3-5.5-18.2-9.1-27.8-9.1c-12.4,0-20.5,6.8-20.5,15.9v0.4c0,10.2,12.2,13.9,25.1,17.6c14.5,4.1,29.7,9.4,29.7,25.5v0.4
			c0,16.2-13.8,26.6-31.1,26.6C269.4,283.3,255.1,278,245.5,270.1z"/>
		<path fill="#4B4F54" d="M326,236.4v-0.4c0-25.5,20.2-47.6,46-47.6c17,0,27.6,7.8,36.1,16.8l-6.2,6.4c-7.8-8-16.6-15-30.1-15
			c-20.5,0-36.4,17.3-36.4,39v0.4c0,21.9,16.4,39.4,37.1,39.4c12.7,0,22.6-6.6,30.2-15.1l6,5.3c-9.2,10.5-20.2,18-36.8,18
			C346,283.7,326,261.9,326,236.4z"/>
		<path fill="#4B4F54" d="M424.7,236.3v-0.4c0-26.4,18.4-47.4,42.8-47.4c25.3,0,41.4,20.7,41.4,47.6c0,1.6,0,2.1-0.2,3.6h-74.8
			c1.6,22.6,17.7,35.8,35.4,35.8c14,0,23.5-6.2,30.9-14.3l6,5.3c-9.2,10-20,17.1-37.3,17.1C445.2,283.7,424.7,264.6,424.7,236.3z
			 M499.5,231.8c-1.2-18.4-11.7-35.3-32.4-35.3c-17.9,0-31.7,15.1-33.2,35.3H499.5z"/>
		<path fill="#4B4F54" d="M533.3,190.6h8.7v16.9c6-10.7,16.1-19.1,32.5-19.1c22.8,0,36.1,15.7,36.1,37.4v55.6h-8.7v-54
			c0-18.7-10.4-31-28.7-31c-17.7,0-31.3,13.5-31.3,32.4v52.6h-8.7V190.6z"/>
		<path fill="#4B4F54" d="M630.3,236.4v-0.4c0-29.6,22.1-47.6,43.9-47.6c18,0,29.7,10.3,37.1,21.7v-58.8h8.7v130.1h-8.7v-20.3
			c-7.8,11.9-19.3,22.5-37.1,22.5C652.4,283.7,630.3,266,630.3,236.4z M711.9,236.3v-0.4c0-23.3-18-39-36.8-39
			c-19.6,0-35.4,14.4-35.4,38.9v0.4c0,23.9,16.4,39.2,35.4,39.2C693.8,275.3,711.9,259.4,711.9,236.3z"/>
	</g>
	<g>
		<circle fill="#4B4F54" cx="359.6" cy="132.4" r="1.1"/>
		<path fill="#4B4F54" d="M567.9,152.7c0,4.1-3.3,7.4-7.4,7.4c-4.1,0-7.4-3.3-7.4-7.4c0-4.1,3.3-7.4,7.4-7.4
			C564.5,145.3,567.9,148.6,567.9,152.7z"/>
		<path fill="#4B4F54" d="M458.7,48.2L458.7,48.2c-0.7-0.6-1.5-1-2.5-1c-0.8,0-1.5,0.3-2.1,0.7l0,0l-0.2,0.2
			c-0.1,0.1-0.2,0.2-0.3,0.2L359,131.4l1.3,1.9l95.6-77.6l99.1,102.1l10.5-10.5L458.7,48.2z"/>
	</g>
	<g>
		<circle fill="#0075C9" cx="16" cy="270.4" r="16"/>
		<path fill="#0075C9" d="M299.1,2.3L299.1,2.3c-1.2-1.4-2.9-2.2-4.8-2.2c-1.6,0-3.1,0.6-4.2,1.6l0,0L5.3,258.5l21.9,23.3
			L294.2,15.5l132.4,142.3l2.4-2.2L299.1,2.3z"/>
		<path fill="#0075C9" d="M429.3,156.7c0,0.9-0.7,1.6-1.6,1.6c-0.9,0-1.6-0.7-1.6-1.6c0-0.9,0.7-1.6,1.6-1.6
			C428.6,155.1,429.3,155.8,429.3,156.7z"/>
	</g>
</g>
</svg>

