<?xml version="1.0" encoding="UTF-8" standalone="no"?>
<svg version="1.1" id="svg2" xmlns="http://www.w3.org/2000/svg" xmlns:xlink="http://www.w3.org/1999/xlink"
	 viewBox="0 0 488.5 186.7" preserveAspectRatio="xMaxYMax" style="enable-background:new 0 0 488.5 186.7;" xml:space="preserve">
<style type="text/css">
	.st0{clip-path:url(#SVGID_2_);}
	.st1{fill:#4973BE;}
	.st2{fill:#88A82B;}
	.st3{fill:#F1AB2A;}
	.st4{fill:#231F20;}
</style>
<title>Artboard 1</title>
<g id="g10">
	<g id="g12">
		<g id="g14">
			<g>
				<defs>
					<rect id="SVGID_1_" width="488.5" height="186.7"/>
				</defs>
				<clipPath id="SVGID_2_">
					<use xlink:href="#SVGID_1_"  style="overflow:visible;"/>
				</clipPath>
				<g class="st0">
					<g id="g16">
						<path id="path22" class="st1" d="M1.7,3h26v44h50.4V3h26v117.9h-26V69.9H27.7v51h-26L1.7,3"/>
						<path id="path24" class="st1" d="M205.2,33.6c-2.5-3.1-5.8-5.5-9.4-7.2c-4.1-1.7-8.5-2.6-12.9-2.5
							c-9.3-0.1-18.2,3.8-24.4,10.7c-3.1,3.5-5.6,7.6-7.2,12.1c-1.8,4.9-2.6,10-2.6,15.2c-0.1,5.2,0.8,10.3,2.6,15.2
							c1.6,4.4,4,8.5,7.1,12c2.9,3.3,6.6,6,10.6,7.9c4.1,1.9,8.5,2.8,13,2.8c4.9,0.1,9.8-1,14.1-3.3c4.1-2.2,7.6-5.4,10.2-9.3
							l21.7,16.2c-4.8,6.8-11.4,12.2-19,15.5c-7.4,3.3-15.5,5-23.6,5c-8.7,0.1-17.3-1.4-25.5-4.3c-7.5-2.7-14.4-6.9-20.1-12.4
							c-5.7-5.5-10.3-12.2-13.2-19.6c-3.3-8.2-4.9-16.9-4.7-25.6c-0.1-8.8,1.5-17.5,4.7-25.6c3-7.4,7.5-14.1,13.2-19.6
							c5.8-5.5,12.7-9.7,20.1-12.4c8.2-3,16.8-4.4,25.5-4.3c3.5,0,7,0.3,10.4,0.9c3.6,0.6,7.2,1.6,10.7,2.9
							c3.6,1.4,6.9,3.2,10.1,5.3c3.3,2.3,6.2,5,8.7,8.2L205.2,33.6"/>
						<path id="path26" class="st1" d="M268.1,51.8h15.3c2.3,0,4.8-0.1,7.4-0.2c2.4-0.1,4.8-0.6,7.1-1.5c2.1-0.8,3.9-2.2,5.2-3.9
							c1.4-1.8,2.1-4.3,2.1-7.5c0.1-2.5-0.5-5-1.8-7.2c-1.2-1.7-2.8-3.1-4.7-4.1c-2-1-4.2-1.6-6.5-1.9c-2.4-0.3-4.8-0.5-7.2-0.5h-17
							L268.1,51.8L268.1,51.8z M242.1,3h45.6c5.7,0,11.5,0.6,17.1,1.8c5.1,1,9.9,3,14.2,5.8c4.1,2.8,7.4,6.6,9.7,11
							c2.4,4.6,3.6,10.3,3.6,17.2c0,8.3-2.2,15.4-6.5,21.2s-10.7,9.5-19,11.1l30,49.8h-31.2l-24.6-47.1h-12.8v47.1h-26L242.1,3"/>
						<path id="path28" class="st2" d="M376.1,61.9c-0.1,5.2,0.8,10.3,2.6,15.2c1.6,4.5,4.1,8.5,7.4,12c3.3,3.4,7.2,6.1,11.6,7.9
							c9.7,3.8,20.4,3.8,30.1,0c4.4-1.8,8.3-4.5,11.6-7.9c3.3-3.5,5.8-7.5,7.4-12c1.8-4.9,2.6-10,2.6-15.2c0-5.2-0.8-10.3-2.6-15.1
							c-1.6-4.5-4.1-8.6-7.4-12.1c-3.3-3.4-7.2-6.1-11.6-7.9c-9.7-3.8-20.4-3.8-30.1,0c-4.4,1.8-8.3,4.5-11.6,7.9
							c-3.3,3.5-5.8,7.6-7.4,12.1C377,51.6,376.1,56.8,376.1,61.9z M349.1,61.9c-0.1-8.8,1.5-17.5,4.7-25.6
							c3-7.4,7.5-14.1,13.2-19.6c5.8-5.5,12.7-9.7,20.1-12.4c16.5-5.8,34.5-5.8,51,0c7.5,2.7,14.4,6.9,20.1,12.4
							c5.7,5.5,10.3,12.2,13.2,19.6c3.3,8.1,4.9,16.9,4.8,25.6c0.1,8.8-1.5,17.5-4.8,25.6c-3,7.4-7.5,14.1-13.2,19.6
							c-5.8,5.5-12.7,9.7-20.1,12.4c-16.5,5.8-34.5,5.8-51,0c-7.5-2.7-14.4-6.9-20.1-12.4c-5.7-5.5-10.3-12.2-13.2-19.6
							C350.6,79.4,349,70.7,349.1,61.9"/>
						<path id="path30" class="st3" d="M404.1,82.8c-3.3,2.1-6.1,0.6-6.1-3.3V42.5c0-3.9,2.7-5.4,6.1-3.3l28.7,18
							c3.3,2.1,3.3,5.5,0,7.6L404.1,82.8"/>
						<path id="path32" class="st4" d="M0,155.8h2.3v10H15v-10h2.4v23.1H15V168H2.3v10.9H0V155.8"/>
						<path id="path34" class="st4" d="M34.7,170.1c0.2-2.5-1.7-4.7-4.2-4.9c-0.3,0-0.5,0-0.8,0c-0.7,0-1.4,0.1-2,0.4
							c-0.6,0.3-1.2,0.6-1.7,1.1c-0.5,0.4-0.9,1-1.2,1.6c-0.3,0.6-0.4,1.2-0.4,1.8L34.7,170.1z M24.3,171.8c0.1,0.7,0.2,1.5,0.5,2.2
							c0.6,1.3,1.6,2.3,2.9,2.9c0.7,0.3,1.4,0.4,2.1,0.4c1.1,0,2.1-0.2,3-0.8c0.8-0.5,1.4-1.1,1.9-1.9l1.7,1.3
							c-0.8,1.1-1.8,1.9-3,2.5c-1.1,0.5-2.3,0.8-3.5,0.8c-1.1,0-2.2-0.2-3.1-0.6c-0.9-0.4-1.8-1-2.5-1.7c-0.7-0.7-1.3-1.6-1.6-2.6
							c-0.4-1-0.6-2.1-0.6-3.2c0-1.1,0.2-2.2,0.6-3.2c0.4-0.9,0.9-1.8,1.6-2.6c0.7-0.7,1.5-1.3,2.5-1.7c0.9-0.4,2-0.6,3-0.6
							c1.1,0,2.1,0.2,3.1,0.6c0.9,0.4,1.7,0.9,2.3,1.6c0.6,0.7,1.1,1.5,1.4,2.4c0.3,1,0.5,2,0.5,3v1L24.3,171.8"/>
						<path id="path36" class="st4" d="M49.6,171.3c-0.5,0-1.2,0-2,0.1c-0.8,0.1-1.6,0.2-2.3,0.4c-0.7,0.2-1.4,0.5-1.9,1
							c-0.5,0.4-0.8,1.1-0.8,1.8c0,0.4,0.1,0.9,0.3,1.3c0.2,0.4,0.5,0.7,0.8,0.9c0.4,0.2,0.7,0.4,1.2,0.5c0.4,0.1,0.9,0.1,1.3,0.1
							c0.7,0,1.4-0.1,2-0.4c1.1-0.5,2-1.5,2.3-2.6c0.2-0.6,0.3-1.3,0.3-1.9v-1.1L49.6,171.3z M50.7,169.5v-0.4c0-2.7-1.3-4-3.9-4
							c-1.7,0-3.4,0.6-4.7,1.8l-1.3-1.5c1.4-1.5,3.6-2.2,6.5-2.2c0.7,0,1.4,0.1,2.1,0.3c0.7,0.2,1.3,0.5,1.8,1
							c0.5,0.5,0.9,1,1.2,1.7c0.3,0.8,0.5,1.6,0.5,2.4v6.8c0,0.6,0,1.2,0.1,1.9c0.1,0.6,0.1,1.2,0.2,1.6h-2.1
							c-0.1-0.4-0.1-0.8-0.2-1.2s0-0.9,0-1.3h-0.1c-0.5,0.9-1.3,1.7-2.2,2.2c-1,0.5-2.1,0.7-3.2,0.7c-0.7,0-1.4-0.1-2-0.3
							c-0.6-0.2-1.2-0.5-1.7-0.9c-0.5-0.4-0.9-0.9-1.2-1.4c-0.3-0.6-0.5-1.3-0.4-1.9c-0.1-1.1,0.3-2.1,1-2.9
							c0.7-0.7,1.5-1.3,2.4-1.6c1-0.4,2-0.6,3.1-0.6c1.1-0.1,2.1-0.1,3-0.1L50.7,169.5"/>
						<path id="path38" class="st4" d="M58.4,178.9h2.2v-24.7h-2.2V178.9z"/>
						<path id="path40" class="st4" d="M73.6,165.6h-4.4v9c0,0.5,0,0.9,0.2,1.4c0.1,0.3,0.2,0.6,0.5,0.8c0.2,0.2,0.4,0.3,0.7,0.4
							c0.3,0.1,0.6,0.1,0.9,0.1c0.4,0,0.8-0.1,1.1-0.2c0.4-0.1,0.7-0.2,1.1-0.4l0.1,2c-0.9,0.4-1.9,0.6-2.9,0.6
							c-0.4,0-0.9-0.1-1.3-0.2c-0.4-0.1-0.9-0.3-1.2-0.6c-0.4-0.3-0.7-0.8-0.9-1.2c-0.3-0.7-0.4-1.4-0.4-2.1v-9.6h-3.2v-2h3.2v-4.3
							h2.2v4.3h4.4L73.6,165.6"/>
						<path id="path42" class="st4" d="M76.6,154.2h2.2v11.9h0.1c0.2-0.4,0.6-0.8,0.9-1.1c0.4-0.4,0.8-0.7,1.2-0.9
							c0.5-0.3,0.9-0.5,1.4-0.6c0.5-0.1,1-0.2,1.5-0.2c1.6-0.1,3.2,0.4,4.3,1.6c1,1.2,1.5,2.8,1.4,4.4v9.7h-2.1v-8.5
							c0.1-1.4-0.2-2.7-0.9-3.9c-0.8-1-2-1.5-3.3-1.4c-0.3,0-0.6,0.1-0.9,0.1c-0.6,0.1-1.1,0.4-1.6,0.7c-0.6,0.5-1.1,1.1-1.5,1.8
							c-0.5,1-0.7,2.1-0.7,3.3v7.8h-2.2V154.2"/>
						<path id="path44" class="st4" d="M114.6,175.2c-0.4,0.6-0.9,1.2-1.4,1.7c-0.6,0.5-1.3,1-2,1.4c-1.6,0.8-3.3,1.2-5.1,1.2
							c-1.6,0-3.3-0.3-4.8-0.9c-2.9-1.2-5.2-3.5-6.3-6.4c-1.2-3.1-1.2-6.6,0-9.7c1.2-2.9,3.5-5.2,6.3-6.4c1.5-0.6,3.1-0.9,4.8-0.9
							c1.5,0,2.9,0.3,4.3,0.9c1.5,0.6,2.7,1.6,3.7,2.8l-2.1,1.5c-0.3-0.4-0.6-0.8-1-1.1c-0.4-0.4-0.9-0.7-1.4-1
							c-0.5-0.3-1.1-0.5-1.7-0.7c-0.6-0.2-1.2-0.3-1.8-0.3c-1.4,0-2.7,0.3-4,0.8c-1.1,0.5-2.2,1.3-3,2.2c-0.8,0.9-1.5,2-1.9,3.2
							c-0.9,2.5-0.9,5.1,0,7.6c0.4,1.2,1.1,2.3,1.9,3.2c0.8,0.9,1.9,1.7,3,2.2c1.3,0.6,2.6,0.8,4,0.8c0.6,0,1.2-0.1,1.8-0.2
							c0.6-0.1,1.2-0.3,1.8-0.6c0.6-0.3,1.1-0.6,1.6-1.1c0.5-0.5,1-1.1,1.4-1.7L114.6,175.2"/>
						<path id="path46" class="st4" d="M126.4,171.3c-0.5,0-1.2,0-2,0.1c-0.8,0-1.6,0.2-2.3,0.4c-0.7,0.2-1.4,0.5-1.9,1
							c-0.5,0.4-0.8,1.1-0.8,1.8c0,0.4,0.1,0.9,0.3,1.3c0.2,0.4,0.5,0.7,0.8,0.9c0.4,0.2,0.7,0.4,1.2,0.5c0.4,0.1,0.9,0.1,1.3,0.1
							c0.7,0,1.4-0.1,2-0.4c1.1-0.5,2-1.5,2.3-2.6c0.2-0.6,0.3-1.3,0.3-1.9v-1.1L126.4,171.3z M127.5,169.5v-0.4c0-2.7-1.3-4-3.9-4
							c-1.7,0-3.4,0.6-4.7,1.8l-1.3-1.5c1.4-1.5,3.6-2.2,6.5-2.2c0.7,0,1.4,0.1,2.1,0.3c0.7,0.2,1.3,0.5,1.8,1
							c0.5,0.5,0.9,1,1.2,1.7c0.3,0.8,0.5,1.6,0.5,2.4v6.8c0,0.6,0,1.2,0.1,1.9s0.1,1.2,0.2,1.6h-2.1c-0.1-0.4-0.1-0.8-0.2-1.2
							c0-0.4,0-0.9,0-1.3h-0.1c-0.5,0.9-1.3,1.7-2.2,2.2c-1,0.5-2.1,0.7-3.2,0.7c-0.7,0-1.4-0.1-2-0.3c-0.6-0.2-1.2-0.5-1.7-0.9
							c-0.5-0.4-0.9-0.9-1.2-1.4c-0.3-0.6-0.5-1.3-0.4-1.9c-0.1-1.1,0.3-2.1,1-2.9c0.7-0.7,1.5-1.3,2.4-1.6c1-0.4,2-0.6,3.1-0.6
							c1.1-0.1,2.1-0.1,3-0.1L127.5,169.5"/>
						<path id="path48" class="st4" d="M134.9,168.4c0-0.7,0-1.4,0-2.1s0-1.6-0.1-2.7h2.1v2.8h0.1c0.2-0.4,0.4-0.8,0.6-1.2
							c0.3-0.4,0.6-0.7,1-1c0.4-0.3,0.9-0.6,1.4-0.7c0.6-0.2,1.2-0.3,1.8-0.3c0.5,0,1.1,0.1,1.6,0.2l-0.4,2.1
							c-0.4-0.1-0.8-0.2-1.2-0.2c-0.7,0-1.5,0.1-2.1,0.5c-0.6,0.3-1.1,0.7-1.5,1.2c-0.4,0.5-0.7,1-0.9,1.6c-0.2,0.5-0.3,1.1-0.3,1.6
							v8.6h-2.1L134.9,168.4"/>
						<path id="path50" class="st4" d="M156.8,170.1c0.2-2.5-1.7-4.7-4.2-4.9c-0.3,0-0.5,0-0.8,0c-0.7,0-1.4,0.1-2,0.4
							c-0.6,0.3-1.2,0.6-1.7,1.1c-0.5,0.4-0.9,1-1.2,1.6c-0.3,0.6-0.4,1.2-0.4,1.8L156.8,170.1L156.8,170.1z M146.4,171.8
							c0.1,0.8,0.3,1.5,0.6,2.2c0.6,1.3,1.6,2.3,2.9,2.9c0.7,0.3,1.4,0.4,2.1,0.4c1.1,0,2.1-0.2,3-0.8c0.8-0.5,1.4-1.1,1.9-1.9
							l1.7,1.4c-0.8,1.1-1.8,1.9-3,2.5c-1.1,0.5-2.3,0.8-3.5,0.8c-1.1,0-2.2-0.2-3.1-0.6c-0.9-0.4-1.8-1-2.5-1.7
							c-0.7-0.7-1.3-1.6-1.6-2.6c-0.4-1-0.6-2.1-0.6-3.2c0-1.1,0.2-2.2,0.6-3.2c0.4-0.9,0.9-1.8,1.6-2.6c0.7-0.7,1.5-1.3,2.4-1.7
							c0.9-0.4,2-0.6,3-0.6c1.1,0,2.1,0.2,3.1,0.6c0.9,0.4,1.7,0.9,2.3,1.6c0.6,0.7,1.1,1.5,1.4,2.4c0.3,1,0.5,2,0.5,3v1
							L146.4,171.8"/>
						<path id="path52" class="st4" d="M175.3,166h4.2c0.9,0,1.8-0.1,2.7-0.3c0.6-0.2,1.2-0.5,1.8-0.9c0.4-0.3,0.7-0.8,0.9-1.3
							c0.2-0.5,0.3-1,0.3-1.6c0-0.5-0.1-1.1-0.3-1.6c-0.2-0.5-0.5-0.9-0.9-1.3c-0.5-0.4-1.1-0.7-1.8-0.9c-0.9-0.2-1.8-0.3-2.7-0.3
							h-4.2V166z M175.3,178.9h-2.4v-23.1h7.1c2-0.1,3.9,0.4,5.6,1.5c1.4,1.1,2.1,2.9,2,4.6c0,1.5-0.5,3-1.5,4.1
							c-1.2,1.2-2.7,1.9-4.4,1.9l6.7,11h-2.9l-6.3-10.7h-3.9L175.3,178.9"/>
						<path id="path54" class="st4" d="M203.4,170.1c0.2-2.5-1.7-4.7-4.2-4.9c-0.3,0-0.5,0-0.8,0c-0.7,0-1.4,0.1-2,0.4
							c-0.6,0.3-1.2,0.6-1.7,1.1c-0.5,0.4-0.9,1-1.2,1.6c-0.3,0.6-0.4,1.2-0.4,1.8L203.4,170.1L203.4,170.1z M193,171.8
							c0.1,0.7,0.2,1.5,0.6,2.2c0.6,1.3,1.6,2.3,2.9,2.9c0.7,0.3,1.4,0.4,2.1,0.4c1.1,0,2.1-0.2,3-0.8c0.8-0.5,1.4-1.1,1.9-1.9
							l1.7,1.4c-0.8,1.1-1.8,1.9-3,2.5c-1.1,0.5-2.3,0.8-3.5,0.8c-1.1,0-2.2-0.2-3.1-0.6c-0.9-0.4-1.8-0.9-2.5-1.7
							c-0.7-0.7-1.3-1.6-1.6-2.6c-0.4-1-0.6-2.1-0.6-3.2c0-1.1,0.2-2.2,0.6-3.2c0.4-0.9,0.9-1.8,1.6-2.6c0.7-0.7,1.5-1.3,2.4-1.7
							c0.9-0.4,2-0.6,3-0.6c1.1,0,2.1,0.2,3.1,0.6c0.9,0.4,1.7,0.9,2.3,1.6c0.6,0.7,1.1,1.5,1.4,2.4c0.3,1,0.5,2,0.5,3v1L193,171.8"
							/>
						<path id="path56" class="st4" d="M210.1,178.9h2.2v-24.7h-2.2V178.9z"/>
						<path id="path58" class="st4" d="M220.1,178.9H218v-15.3h2.1L220.1,178.9z M220.6,157.7c0,0.4-0.2,0.8-0.5,1.1
							c-0.6,0.6-1.6,0.6-2.1,0c-0.6-0.6-0.7-1.6-0.1-2.2c0,0,0,0,0.1-0.1c0.6-0.6,1.6-0.6,2.1,0
							C220.5,156.9,220.6,157.3,220.6,157.7"/>
						<path id="path60" class="st4" d="M234,171.3c-0.5,0-1.2,0-2,0.1c-0.8,0.1-1.6,0.2-2.4,0.4c-0.7,0.2-1.4,0.5-1.9,1
							c-0.5,0.4-0.8,1.1-0.8,1.8c0,0.4,0.1,0.9,0.3,1.3c0.2,0.4,0.5,0.7,0.8,0.9c0.4,0.2,0.7,0.4,1.2,0.5c0.4,0.1,0.9,0.1,1.3,0.1
							c0.7,0,1.4-0.1,2-0.4c1.1-0.5,2-1.5,2.3-2.6c0.2-0.6,0.3-1.3,0.3-1.9v-1.1L234,171.3L234,171.3z M235.1,169.5v-0.4
							c0-2.7-1.3-4-3.9-4c-1.7,0-3.4,0.6-4.7,1.8l-1.3-1.5c1.4-1.5,3.6-2.2,6.5-2.2c0.7,0,1.4,0.1,2.1,0.3c0.7,0.2,1.3,0.5,1.8,1
							c0.5,0.5,0.9,1,1.2,1.7c0.3,0.8,0.5,1.6,0.5,2.4v6.8c0,0.6,0,1.2,0.1,1.9c0.1,0.6,0.1,1.2,0.2,1.6h-2.1
							c-0.1-0.4-0.1-0.8-0.1-1.2c0-0.4,0-0.9-0.1-1.3h-0.1c-0.5,0.9-1.3,1.7-2.2,2.2c-1,0.5-2.1,0.7-3.1,0.7c-0.7,0-1.4-0.1-2-0.3
							c-0.6-0.2-1.2-0.5-1.7-0.9c-0.5-0.4-0.9-0.9-1.2-1.4c-0.3-0.6-0.5-1.3-0.4-1.9c-0.1-1.1,0.3-2.1,1-2.9
							c0.7-0.7,1.5-1.3,2.4-1.6c1-0.4,2-0.6,3.1-0.6c1.1-0.1,2.1-0.1,3-0.1L235.1,169.5"/>
						<path id="path62" class="st4" d="M256.2,171.2c0-0.8-0.1-1.6-0.4-2.4c-0.3-0.7-0.7-1.4-1.2-1.9c-0.5-0.5-1.1-1-1.8-1.3
							c-0.8-0.3-1.6-0.5-2.4-0.5c-0.8,0-1.7,0.1-2.4,0.5c-0.7,0.3-1.4,0.7-1.9,1.3c-0.5,0.6-1,1.2-1.3,1.9c-0.6,1.5-0.6,3.2,0,4.8
							c0.3,0.7,0.7,1.4,1.3,1.9c0.6,0.6,1.2,1,1.9,1.3c0.8,0.3,1.6,0.5,2.4,0.5c0.8,0,1.6-0.1,2.4-0.5c0.7-0.3,1.3-0.7,1.8-1.3
							c0.5-0.6,0.9-1.2,1.2-1.9C256.1,172.9,256.2,172.1,256.2,171.2z M242.3,154.2h2.1v12h0.1c0.3-0.5,0.8-1,1.2-1.3
							c0.5-0.4,1-0.7,1.5-0.9c0.5-0.2,1.1-0.4,1.6-0.5c0.5-0.1,1.1-0.2,1.6-0.2c1.1,0,2.2,0.2,3.3,0.6c1.9,0.7,3.5,2.2,4.3,4.1
							c0.8,2.1,0.8,4.3,0,6.4c-0.8,1.9-2.3,3.5-4.2,4.2c-1,0.4-2.2,0.6-3.3,0.6c-0.5,0-1.1-0.1-1.6-0.2c-0.6-0.1-1.1-0.3-1.6-0.5
							c-0.5-0.2-1-0.6-1.5-0.9c-0.5-0.4-0.9-0.8-1.2-1.3h-0.1v2.6h-2.1L242.3,154.2"/>
						<path id="path64" class="st4" d="M264.9,178.9h-2.2v-15.3h2.2V178.9z M265.4,157.7c0,0.4-0.2,0.8-0.5,1.1
							c-0.6,0.6-1.6,0.6-2.2,0c-0.6-0.6-0.7-1.6-0.1-2.2c0,0,0,0,0.1-0.1c0.6-0.6,1.6-0.6,2.2,0
							C265.2,156.9,265.4,157.3,265.4,157.7"/>
						<path id="path66" class="st4" d="M270.6,178.9h2.2v-24.7h-2.2V178.9z"/>
						<path id="path68" class="st4" d="M280.5,178.9h-2.1v-15.3h2.1V178.9z M281,157.7c0,0.4-0.2,0.8-0.5,1.1
							c-0.6,0.6-1.6,0.6-2.1,0c-0.6-0.6-0.7-1.6-0.1-2.2c0,0,0,0,0.1-0.1c0.6-0.6,1.6-0.6,2.1,0C280.9,156.9,281.1,157.3,281,157.7"
							/>
						<path id="path70" class="st4" d="M293.6,165.6h-4.4v9c0,0.5,0,0.9,0.2,1.4c0.1,0.3,0.2,0.6,0.5,0.8c0.2,0.2,0.4,0.3,0.7,0.4
							c0.3,0.1,0.6,0.1,0.9,0.1c0.4,0,0.8-0.1,1.1-0.2c0.4-0.1,0.7-0.2,1.1-0.4l0.1,2c-0.9,0.4-1.9,0.6-2.9,0.6
							c-0.4,0-0.9-0.1-1.3-0.2c-0.4-0.1-0.9-0.3-1.2-0.6c-0.4-0.3-0.7-0.8-0.9-1.2c-0.3-0.7-0.4-1.4-0.4-2.1v-9.6h-3.2v-2h3.2v-4.3
							h2.1v4.3h4.4V165.6"/>
						<path id="path72" class="st4" d="M302.3,176.2l4.7-12.6h2.6l-7.6,19.3c-0.4,1-1,2-1.8,2.8c-0.8,0.7-1.9,1.1-3,1
							c-0.3,0-0.7,0-1,0c-0.3,0-0.7-0.1-1-0.2l0.2-2.1c0.5,0.3,1.1,0.4,1.6,0.4c0.7,0,1.3-0.2,1.8-0.7c0.5-0.6,0.9-1.3,1.1-2
							l1.1-2.9l-6.3-15.5h2.7L302.3,176.2"/>
						<path id="path74" class="st4" d="M342.2,167.3c0-1.3-0.2-2.6-0.6-3.8c-0.4-1.2-1.1-2.3-1.9-3.2c-0.8-0.9-1.9-1.7-3-2.2
							c-2.6-1.1-5.4-1.1-8,0c-1.1,0.5-2.2,1.3-3,2.2c-0.8,0.9-1.5,2-1.9,3.2c-0.9,2.5-0.9,5.1,0,7.6c0.4,1.2,1.1,2.3,1.9,3.2
							c0.8,0.9,1.9,1.7,3,2.2c2.6,1.1,5.4,1.1,8,0c1.1-0.5,2.2-1.3,3-2.2c0.8-0.9,1.5-2,1.9-3.2C342,169.9,342.2,168.6,342.2,167.3z
							 M344.7,167.3c0,1.7-0.3,3.3-0.9,4.9c-1.2,2.9-3.5,5.2-6.4,6.4c-3.1,1.2-6.5,1.2-9.6,0c-2.9-1.2-5.2-3.5-6.4-6.4
							c-1.2-3.1-1.2-6.6,0-9.7c1.2-2.9,3.5-5.2,6.4-6.4c3.1-1.2,6.5-1.2,9.6,0c2.9,1.2,5.2,3.5,6.4,6.4
							C344.4,164,344.7,165.7,344.7,167.3"/>
						<path id="path76" class="st4" d="M348.9,168.4c0-0.7,0-1.4,0-2.1s0-1.6-0.1-2.7h2.1v2.8h0.1c0.2-0.4,0.4-0.8,0.6-1.2
							c0.3-0.4,0.6-0.7,1-1c0.4-0.3,0.9-0.6,1.4-0.7c0.6-0.2,1.2-0.3,1.8-0.3c0.5,0,1.1,0.1,1.6,0.2l-0.4,2.1
							c-0.4-0.1-0.8-0.2-1.2-0.2c-0.7,0-1.5,0.1-2.1,0.5c-0.6,0.3-1.1,0.7-1.5,1.2c-0.4,0.5-0.7,1-0.9,1.6c-0.2,0.5-0.3,1.1-0.3,1.6
							v8.6h-2.1L348.9,168.4"/>
						<path id="path78" class="st4" d="M360.5,171.1c0,0.8,0.1,1.5,0.4,2.3c0.3,0.7,0.7,1.3,1.2,1.9c0.5,0.5,1.1,1,1.8,1.3
							c0.7,0.3,1.5,0.5,2.2,0.5c1.5,0,3-0.6,4.1-1.6c0.5-0.5,1-1.1,1.3-1.9c0.3-0.8,0.4-1.6,0.4-2.4c0-0.8-0.1-1.5-0.4-2.3
							c-0.3-0.7-0.6-1.3-1.1-1.9c-0.5-0.5-1.1-1-1.8-1.3c-0.8-0.3-1.6-0.5-2.4-0.5c-0.8,0-1.5,0.2-2.2,0.5c-0.7,0.3-1.3,0.7-1.8,1.3
							c-0.5,0.5-0.9,1.2-1.2,1.9C360.6,169.5,360.4,170.3,360.5,171.1L360.5,171.1z M360.1,181.9c0.7,0.9,1.5,1.5,2.5,2
							c1,0.5,2.2,0.8,3.4,0.8c0.9,0,1.9-0.1,2.8-0.5c0.7-0.3,1.3-0.7,1.9-1.3c0.5-0.6,0.8-1.2,1-1.9c0.2-0.8,0.3-1.5,0.3-2.3V176
							h-0.1c-0.6,1-1.5,1.7-2.5,2.2c-1,0.4-2.1,0.7-3.2,0.6c-1.1,0-2.1-0.2-3.1-0.6c-0.9-0.4-1.8-0.9-2.5-1.6
							c-0.7-0.7-1.3-1.5-1.7-2.5c-0.4-1-0.6-2-0.6-3.1c0-1.1,0.2-2.1,0.6-3.1c0.4-0.9,0.9-1.8,1.6-2.5c0.7-0.7,1.5-1.3,2.5-1.7
							c1-0.4,2.1-0.6,3.1-0.6c0.5,0,1,0,1.5,0.1c0.5,0.1,1,0.2,1.5,0.5c1.2,0.5,2.2,1.3,2.9,2.4h0.1v-2.6h2.1v15.1
							c0,0.9-0.1,1.8-0.3,2.6c-0.2,0.9-0.6,1.8-1.2,2.6c-0.7,0.9-1.5,1.5-2.5,2c-1.3,0.6-2.7,0.8-4.2,0.8c-1.4,0-2.8-0.2-4.1-0.8
							c-1.2-0.5-2.4-1.3-3.3-2.3L360.1,181.9"/>
						<path id="path80" class="st4" d="M387.5,171.3c-0.5,0-1.2,0-2,0.1c-0.8,0.1-1.6,0.2-2.4,0.4c-0.7,0.2-1.4,0.5-1.9,1
							c-0.5,0.4-0.8,1.1-0.8,1.8c0,0.9,0.4,1.7,1.1,2.2c0.4,0.2,0.7,0.4,1.2,0.5c0.4,0.1,0.9,0.1,1.3,0.1c0.7,0,1.4-0.1,2-0.4
							c1.1-0.5,2-1.5,2.3-2.6c0.2-0.6,0.3-1.3,0.3-1.9v-1.1L387.5,171.3L387.5,171.3z M388.6,169.5v-0.4c0-2.7-1.3-4-3.9-4
							c-1.8,0-3.4,0.7-4.7,1.9l-1.3-1.5c1.4-1.5,3.6-2.2,6.5-2.2c0.7,0,1.4,0.1,2.1,0.3c0.7,0.2,1.3,0.5,1.8,1
							c0.5,0.5,0.9,1,1.2,1.7c0.3,0.8,0.5,1.6,0.5,2.4v6.8c0,0.6,0,1.2,0.1,1.9c0,0.6,0.1,1.2,0.2,1.6h-2c-0.1-0.4-0.1-0.8-0.1-1.2
							c0-0.4,0-0.9,0-1.3h-0.1c-0.5,0.9-1.3,1.7-2.2,2.2c-1,0.5-2.1,0.7-3.1,0.7c-0.7,0-1.4-0.1-2-0.3c-0.6-0.2-1.2-0.5-1.7-0.9
							c-0.5-0.4-0.9-0.9-1.2-1.4c-0.3-0.6-0.5-1.3-0.4-1.9c-0.1-1.1,0.3-2.1,1-2.9c0.7-0.7,1.5-1.3,2.4-1.6c1-0.4,2-0.6,3.1-0.6
							c1.1-0.1,2.1-0.1,3-0.1L388.6,169.5"/>
						<path id="path82" class="st4" d="M397.8,163.6c0,0.4,0.1,0.8,0.1,1.2s0,0.8,0,1.2h0.1c0.2-0.4,0.6-0.8,0.9-1.1
							c0.4-0.4,0.8-0.7,1.2-0.9c0.5-0.3,0.9-0.5,1.5-0.6c0.5-0.1,1-0.2,1.5-0.2c1.6-0.1,3.2,0.4,4.3,1.6c1,1.2,1.5,2.8,1.4,4.4v9.7
							h-2.1v-8.5c0.1-1.4-0.2-2.7-0.9-3.9c-0.8-1-2-1.5-3.3-1.4c-0.3,0-0.6,0.1-0.9,0.1c-0.6,0.1-1.1,0.4-1.6,0.7
							c-0.6,0.5-1.1,1.1-1.5,1.8c-0.5,1-0.7,2.1-0.6,3.3v7.8h-2.1V167c0-0.4,0-0.9,0-1.6s0-1.2-0.1-1.8L397.8,163.6"/>
						<path id="path84" class="st4" d="M416.6,178.9h-2.1v-15.3h2.1V178.9z M417.1,157.7c0,0.4-0.2,0.8-0.5,1.1
							c-0.6,0.6-1.6,0.6-2.1,0c-0.6-0.6-0.7-1.6-0.1-2.2c0,0,0,0,0.1-0.1c0.6-0.6,1.6-0.6,2.1,0
							C416.9,156.9,417.1,157.3,417.1,157.7"/>
						<path id="path86" class="st4" d="M432.2,165.2l-9,11.8h9.3v2h-12.4v-1.6l9-11.8h-8.5v-2h11.6L432.2,165.2"/>
						<path id="path88" class="st4" d="M438.3,178.9h-2.2v-15.3h2.2V178.9z M438.8,157.7c0,0.4-0.2,0.8-0.5,1.1
							c-0.6,0.6-1.6,0.6-2.2,0c-0.6-0.6-0.7-1.6-0.1-2.2c0,0,0,0,0.1-0.1c0.6-0.6,1.6-0.6,2.2,0
							C438.7,156.9,438.8,157.3,438.8,157.7"/>
						<path id="path90" class="st4" d="M445.6,163.6c0,0.4,0.1,0.8,0.1,1.2s0,0.8,0,1.2h0.1c0.2-0.4,0.6-0.8,0.9-1.1
							c0.4-0.4,0.8-0.7,1.2-0.9c0.5-0.3,0.9-0.5,1.5-0.6c0.5-0.1,1-0.2,1.5-0.2c1.6-0.1,3.2,0.4,4.3,1.6c1,1.2,1.5,2.8,1.4,4.4v9.7
							h-2.2v-8.5c0.1-1.4-0.2-2.7-0.9-3.9c-0.8-1-2-1.5-3.3-1.4c-0.3,0-0.6,0.1-0.9,0.1c-0.6,0.1-1.1,0.4-1.6,0.7
							c-0.6,0.5-1.1,1.1-1.5,1.8c-0.5,1-0.7,2.1-0.6,3.3v7.8h-2.1V167c0-0.4,0-0.9,0-1.6s-0.1-1.2-0.1-1.8L445.6,163.6"/>
						<path id="path92" class="st4" d="M463.2,171.1c0,0.8,0.1,1.6,0.4,2.3c0.3,0.7,0.7,1.3,1.2,1.9c0.5,0.5,1.1,1,1.8,1.3
							c0.7,0.3,1.5,0.5,2.2,0.5c0.8,0,1.5-0.1,2.2-0.4c0.7-0.3,1.3-0.7,1.9-1.2c0.5-0.5,1-1.1,1.3-1.9c0.3-0.8,0.4-1.6,0.4-2.4
							c0-0.8-0.1-1.5-0.4-2.3c-0.3-0.7-0.6-1.3-1.1-1.9c-0.5-0.5-1.1-1-1.8-1.3c-0.8-0.3-1.6-0.5-2.4-0.5c-0.8,0-1.5,0.2-2.2,0.5
							c-0.7,0.3-1.3,0.7-1.8,1.3c-0.5,0.5-0.9,1.2-1.2,1.9C463.4,169.5,463.2,170.3,463.2,171.1z M462.8,181.9
							c0.7,0.8,1.5,1.5,2.5,2c1,0.5,2.2,0.8,3.4,0.8c0.9,0,1.9-0.1,2.8-0.5c0.7-0.3,1.3-0.7,1.9-1.3c0.5-0.6,0.8-1.2,1-1.9
							c0.2-0.8,0.3-1.5,0.3-2.3V176h-0.1c-0.6,1-1.5,1.7-2.5,2.2c-1,0.4-2.1,0.7-3.2,0.6c-1.1,0-2.1-0.2-3.1-0.6
							c-0.9-0.4-1.8-0.9-2.5-1.6c-0.7-0.7-1.3-1.5-1.7-2.5c-0.4-1-0.6-2-0.6-3.1c0-1.1,0.2-2.1,0.6-3.1c0.4-0.9,0.9-1.8,1.6-2.5
							c0.7-0.7,1.5-1.3,2.5-1.7c1-0.4,2.1-0.6,3.1-0.6c0.5,0,1,0,1.5,0.1c0.5,0.1,1,0.2,1.5,0.5c1.2,0.5,2.2,1.3,2.9,2.4h0.1v-2.6
							h2.2v15.1c0,0.9-0.1,1.8-0.3,2.6c-0.2,0.9-0.6,1.8-1.2,2.6c-0.7,0.9-1.5,1.5-2.5,2c-1.3,0.6-2.7,0.8-4.2,0.8
							c-1.4,0-2.8-0.2-4.1-0.8c-1.2-0.5-2.4-1.3-3.3-2.3L462.8,181.9"/>
					</g>
				</g>
			</g>
		</g>
	</g>
</g>
<path class="st4" d="M474.4,7c0-1,0.2-1.9,0.6-2.8c1.5-3.5,5.6-5.1,9.1-3.7c0.8,0.3,1.6,0.8,2.2,1.5c0.6,0.6,1.2,1.4,1.5,2.2
	c0.4,0.9,0.6,1.8,0.6,2.7c0,1-0.2,1.9-0.6,2.8c-1.6,3.5-5.6,5.2-9.2,3.7c-0.8-0.3-1.6-0.8-2.2-1.5c-0.6-0.6-1.1-1.4-1.5-2.2
	C474.6,8.9,474.4,7.9,474.4,7z M475.5,7c0,0.8,0.2,1.6,0.5,2.3c0.3,0.7,0.7,1.3,1.3,1.9c0.5,0.5,1.2,1,1.9,1.2
	c1.5,0.6,3.1,0.6,4.6,0c0.7-0.3,1.3-0.7,1.9-1.3c0.5-0.5,1-1.2,1.3-1.9c0.3-0.8,0.5-1.6,0.5-2.4c0-0.8-0.2-1.6-0.5-2.3
	c-0.3-0.7-0.7-1.3-1.3-1.9C484.5,1.6,483,1,481.4,1c-0.8,0-1.6,0.2-2.3,0.5c-0.7,0.3-1.3,0.7-1.9,1.2c-0.5,0.5-1,1.2-1.3,1.9
	C475.7,5.4,475.5,6.2,475.5,7z M478.8,3h3c0.8-0.1,1.5,0.1,2.1,0.5c0.5,0.4,0.8,1.1,0.7,1.8c0,0.6-0.2,1.2-0.7,1.6
	c-0.4,0.3-1,0.6-1.5,0.6l2.3,3.5h-1.2l-2.2-3.5H480V11h-1.1L478.8,3z M479.9,6.6h1.4h0.8c0.2,0,0.5-0.1,0.7-0.2
	c0.2-0.1,0.4-0.2,0.5-0.4c0.1-0.2,0.2-0.5,0.2-0.8c0-0.2,0-0.5-0.2-0.7c-0.1-0.2-0.2-0.3-0.4-0.4c-0.2-0.1-0.4-0.1-0.6-0.2
	c-0.2,0-0.4,0-0.6,0h-1.7V6.6z"/>
</svg>
