<?xml version="1.0" encoding="UTF-8" standalone="no"?>
<svg
   xmlns:dc="http://purl.org/dc/elements/1.1/"
   xmlns:cc="http://creativecommons.org/ns#"
   xmlns:rdf="http://www.w3.org/1999/02/22-rdf-syntax-ns#"
   xmlns:svg="http://www.w3.org/2000/svg"
   xmlns="http://www.w3.org/2000/svg"
   viewBox="0 0 186.66667 72"
   height="72"
   width="186.66667"
   xml:space="preserve"
   id="svg2"
   version="1.1"><metadata
     id="metadata8"><rdf:RDF><cc:Work
         rdf:about=""><dc:format>image/svg+xml</dc:format><dc:type
           rdf:resource="http://purl.org/dc/dcmitype/StillImage" /></cc:Work></rdf:RDF></metadata><defs
     id="defs6" /><g
     transform="matrix(1.3333333,0,0,-1.3333333,0,72)"
     id="g10"><g
       transform="scale(0.1)"
       id="g12"><path
         id="path14"
         style="fill:#231f20;fill-opacity:1;fill-rule:nonzero;stroke:none"
         d="m 1356.41,172.652 c 1.06,-0.086 1.86,-0.148 2.38,-0.148 3.74,0 6.19,0.828 7.32,2.516 1.1,1.597 1.65,3.484 1.65,5.527 0,2.316 -0.62,4.125 -1.94,5.418 -1.3,1.301 -3.06,1.961 -5.23,1.961 -0.54,0 -1.2,-0.02 -1.98,-0.086 -0.81,-0.063 -1.26,-0.172 -1.49,-0.285 -0.16,-0.157 -0.35,-0.395 -0.48,-0.68 -0.16,-0.375 -0.23,-0.746 -0.23,-1.172 z m -10.64,-18.886 v 1.867 l 0.62,-0.055 c 1.13,0 1.91,0.102 2.36,0.266 0.43,0.172 0.74,0.433 0.92,0.801 0.14,0.371 0.25,1.023 0.25,2.062 v 25.742 c 0,1.254 -0.11,2.114 -0.28,2.516 -0.18,0.433 -0.46,0.734 -0.82,0.91 -0.39,0.137 -1.09,0.203 -2.17,0.203 h -0.88 v 2.016 h 16.18 c 3.32,0 5.83,-0.403 7.61,-1.231 1.76,-0.785 3,-1.988 3.76,-3.55 0.72,-1.579 1.12,-3.028 1.12,-4.442 0,-1.226 -0.3,-2.504 -0.94,-3.75 -0.6,-1.301 -1.53,-2.453 -2.77,-3.383 -1.24,-0.933 -3.12,-1.699 -5.65,-2.273 1.06,-0.352 1.84,-0.703 2.34,-1.067 0.5,-0.296 1.05,-0.898 1.75,-1.722 0.67,-0.778 1.19,-1.488 1.54,-2.098 0.35,-0.605 0.94,-1.742 1.75,-3.441 0.97,-2.078 1.79,-3.668 2.47,-4.848 0.66,-1.144 1.2,-1.848 1.65,-2.187 0.46,-0.301 1.08,-0.469 1.93,-0.469 v -1.867 h -5.41 c -1.63,0 -2.78,0.261 -3.4,0.8 -0.65,0.539 -1.97,3.055 -4,7.567 -1.13,2.64 -1.96,4.445 -2.52,5.418 -0.52,0.972 -1.14,1.652 -1.75,2.039 -0.63,0.41 -1.57,0.598 -2.87,0.598 -0.38,0 -1.09,-0.059 -2.15,-0.122 v -10.898 c 0,-1.211 0.09,-2.063 0.31,-2.5 0.21,-0.441 0.5,-0.703 0.87,-0.793 0.38,-0.105 1.33,-0.172 2.85,-0.242 v -1.867 z m 15.31,44.507 c -4.82,0 -9.41,-1.23 -13.78,-3.652 -4.38,-2.43 -7.83,-5.855 -10.39,-10.246 -2.57,-4.363 -3.87,-9.078 -3.87,-14.148 0,-4.993 1.27,-9.684 3.76,-14 2.49,-4.336 5.91,-7.75 10.28,-10.254 4.32,-2.516 8.99,-3.762 14,-3.762 4.99,0 9.65,1.246 13.99,3.762 4.35,2.504 7.77,5.953 10.3,10.304 2.49,4.379 3.74,8.996 3.74,13.95 0,4.988 -1.29,9.707 -3.86,14.195 -2.58,4.441 -6.07,7.894 -10.5,10.273 -4.41,2.387 -8.96,3.578 -13.67,3.578 z m 0,5.165 c 5.56,0 10.95,-1.45 16.21,-4.25 5.24,-2.817 9.39,-6.895 12.39,-12.149 3.06,-5.281 4.58,-10.883 4.58,-16.812 0,-5.903 -1.47,-11.45 -4.44,-16.563 -2.94,-5.129 -7,-9.156 -12.16,-12.144 -5.11,-2.965 -10.65,-4.465 -16.58,-4.465 -5.91,0 -11.44,1.5 -16.59,4.465 -5.14,2.988 -9.18,7.015 -12.16,12.144 -2.95,5.113 -4.42,10.66 -4.42,16.563 0,5.98 1.5,11.597 4.54,16.789 3,5.175 7.1,9.218 12.29,12.093 5.2,2.879 10.63,4.329 16.34,4.329" /><path
         id="path16"
         style="fill:#231f20;fill-opacity:1;fill-rule:nonzero;stroke:none"
         d="m 674.609,521.938 c 100.985,-1.024 186.934,-10.356 318.793,-52.934 5.953,-1.816 6.192,0.934 1.75,3.062 -119.652,43.84 -189.953,61.317 -281.8,64.368 h -77.473 c -91.848,-3.051 -162.172,-20.528 -281.828,-64.368 -4.446,-2.128 -4.207,-4.878 1.754,-3.062 131.883,42.578 217.832,51.91 318.804,52.934" /><path
         id="path18"
         style="fill:#231f20;fill-opacity:1;fill-rule:nonzero;stroke:none"
         d="m 134.527,139.031 c 7.864,0 19.707,-0.465 35.555,-1.289 v 9.531 c -8.711,0.114 -14.812,0.524 -18.277,1.29 -2.157,0.46 -3.762,1.3 -4.782,2.515 -0.75,0.848 -1.125,1.938 -1.125,3.25 0,3.004 1.352,7.719 4.075,14.172 l 15.312,36.113 h 81.363 l 17.274,-42.98 c 1.316,-3.301 1.976,-5.93 1.976,-8.016 0,-1.32 -0.41,-2.402 -1.203,-3.304 -0.8,-0.875 -2.316,-1.559 -4.562,-2.067 -2.25,-0.449 -8.621,-0.773 -19.106,-0.973 v -9.531 l 45.239,1.422 c 5.797,0 16.007,-0.484 30.617,-1.422 v 9.531 c -7.403,0.114 -12.141,0.665 -14.262,1.7 -2.101,1.05 -4.051,3.203 -5.824,6.476 -3.192,5.809 -9.656,20.137 -19.395,42.996 l -59.984,140.918 h -9.125 C 195.73,309.277 187.535,289.887 183.703,281.18 l -35.129,-79.231 c -10.496,-22.867 -16.57,-36.011 -18.273,-39.465 -2.887,-6.105 -5.11,-9.894 -6.664,-11.332 -1.539,-1.437 -3.231,-2.425 -5.059,-2.941 -1.824,-0.539 -6.437,-0.824 -13.832,-0.938 v -9.531 c 10.77,0.824 20.692,1.289 29.781,1.289 z m 106.5,77.516 h -70.945 l 35.805,84.723 35.14,-84.723" /><path
         id="path20"
         style="fill:#231f20;fill-opacity:1;fill-rule:nonzero;stroke:none"
         d="m 292.566,328.402 v 8.969 c 3.649,-0.07 9.215,-0.226 16.723,-0.402 l 26.949,-0.727 c 5.36,0 13.653,0.203 24.883,0.567 14.613,0.562 23.09,0.847 25.418,0.847 17.879,0 30.934,-1.597 39.129,-4.765 8.184,-3.176 14.516,-8.325 19.039,-15.524 4.488,-7.164 6.738,-14.961 6.738,-23.402 0,-7.844 -2.093,-15.676 -6.32,-23.457 -4.207,-7.75 -10.301,-14.219 -18.32,-19.363 -8.004,-5.176 -18.453,-9.141 -31.258,-11.985 2.344,-3.25 7.851,-10.555 16.57,-21.902 l 35.41,-46.629 c 10.11,-13.024 16,-20.277 17.696,-21.793 0.847,-0.648 1.664,-1.125 2.523,-1.398 1.414,-0.461 4.492,-0.7 9.266,-0.7 v -8.996 c -7.114,0.547 -13.356,0.84 -18.684,0.84 -5.515,0 -12.305,-0.293 -20.344,-0.84 -6.125,7.031 -16.308,20.754 -30.644,41.141 -7.949,11.355 -14.981,20.812 -21.078,28.394 -9.84,12.586 -19.184,23.934 -28.11,34.153 l 1.407,4.175 c 4.871,-0.25 8.582,-0.386 11.101,-0.386 17.055,0 29.988,4.027 38.781,12.094 8.809,8.058 13.215,18.675 13.215,31.886 0,11.531 -3.804,20.676 -11.386,27.461 -7.59,6.801 -19.051,10.203 -34.426,10.203 -9.629,0 -19.086,-1.437 -28.387,-4.379 -0.355,-5.043 -0.652,-9.789 -0.82,-14.171 -0.098,-1.329 -0.438,-14.934 -1,-40.903 v -62.371 c 0,-12.738 0.183,-25.156 0.562,-37.25 0.207,-8.871 0.828,-14.172 1.914,-15.863 1.063,-1.664 2.828,-2.926 5.258,-3.703 2.434,-0.797 9.176,-1.313 20.223,-1.485 v -8.996 c -13.289,0.762 -25.535,1.113 -36.664,1.113 -8.996,0 -24.106,-0.351 -45.364,-1.113 v 8.996 c 11.043,0.172 17.77,0.688 20.219,1.485 2.434,0.777 4.117,1.89 5.07,3.289 1.125,1.867 1.825,6.418 2.102,13.625 0.086,1.976 0.273,15.285 0.563,39.902 v 65.074 c 0,12.696 -0.157,25.164 -0.442,37.325 -0.273,8.906 -0.933,14.179 -2.039,15.835 -1.055,1.625 -2.789,2.836 -5.18,3.641 -2.402,0.789 -9.164,1.285 -20.293,1.488" /><path
         id="path22"
         style="fill:#231f20;fill-opacity:1;fill-rule:nonzero;stroke:none"
         d="m 478.848,305.074 -1.532,-14.199 h -8.707 c -0.082,22.395 -0.546,37.867 -1.398,46.496 10.211,-0.375 26.238,-0.836 48.055,-1.391 17.699,-0.371 29.488,-0.558 35.402,-0.558 6.375,0 21.109,0.258 44.258,0.82 16.746,0.406 28.988,0.754 36.656,1.129 -1.121,-10.48 -1.859,-25.996 -2.242,-46.496 h -9 l -1.125,13.5 c -0.75,8.129 -1.262,12.773 -1.539,13.91 -0.281,1.137 -0.688,1.922 -1.199,2.36 -0.512,0.476 -1.286,0.851 -2.313,1.14 -1.316,0.285 -5.988,0.637 -14.055,1.113 -8.05,0.489 -14.429,0.727 -19.105,0.727 h -17.152 c -0.926,-8.996 -1.375,-21.137 -1.375,-36.414 v -82.172 c 0,-12.738 0.125,-25.141 0.414,-37.25 0.277,-8.871 0.961,-14.172 2.023,-15.863 1.074,-1.672 2.813,-2.934 5.223,-3.715 2.375,-0.785 9.133,-1.301 20.281,-1.473 v -9.008 c -16.762,0.762 -29.355,1.125 -37.773,1.125 -3.668,0 -18.29,-0.363 -43.848,-1.125 v 9.008 c 11.148,0.172 17.926,0.688 20.379,1.473 2.414,0.781 4.07,1.891 4.914,3.293 1.207,1.875 1.973,6.426 2.234,13.633 0,1.988 0.196,15.285 0.567,39.902 v 81.906 c 0,3.93 -0.094,8.246 -0.289,12.926 l -0.84,23.754 h -20.934 c -12.07,0 -21.676,-0.465 -28.789,-1.402 -2.269,-0.309 -3.707,-0.914 -4.348,-1.828 -1.046,-1.61 -1.98,-6.719 -2.843,-15.321" /><path
         id="path24"
         style="fill:#231f20;fill-opacity:1;fill-rule:nonzero;stroke:none"
         d="m 626.094,137.73 v 8.852 c 8.918,0.106 14.808,0.844 17.652,2.27 1.176,0.574 2.031,1.437 2.555,2.652 0.84,1.875 1.418,6.805 1.762,14.754 0.531,12.359 0.789,23.058 0.789,32.039 v 114.492 c 0,3.106 -0.18,5.106 -0.52,6.043 -0.695,1.688 -2.223,3.703 -4.586,6.055 -1.562,1.5 -3.328,2.453 -5.332,2.863 -1.984,0.441 -6.48,0.676 -13.371,0.789 v 8.832 c 14.238,-0.375 23.191,-0.578 26.855,-0.578 6.207,0 12.411,0.203 18.524,0.578 7.266,-10.383 12.598,-18.086 16.027,-23.031 l 26.426,-35.863 38.633,-51.098 c 12.355,-16.285 22.262,-29.149 29.793,-38.5 4.758,-6.195 8.781,-11.047 12.012,-14.613 v 102.699 c 0,9.195 -0.317,19.969 -0.903,32.312 -0.34,7.789 -0.902,12.61 -1.652,14.473 -0.613,1.211 -1.516,2.109 -2.688,2.652 -2.828,1.34 -8.66,2.024 -17.511,2.137 v 8.832 c 10.046,-0.375 20.222,-0.578 30.531,-0.578 9.719,0 18.551,0.203 26.469,0.578 v -8.832 c -8.856,-0.113 -14.711,-0.797 -17.512,-2.137 -1.176,-0.543 -2.055,-1.492 -2.567,-2.769 -0.847,-1.813 -1.421,-6.711 -1.773,-14.781 -0.516,-12.336 -0.777,-23.004 -0.777,-31.887 v -67.598 c 0,-13.648 0.226,-39.179 0.648,-76.527 l -13.168,4.203 -3.101,0.687 c -0.477,0.2 -0.938,0.485 -1.375,0.836 -0.618,0.489 -2.192,2.352 -4.829,5.629 -7.121,8.821 -12.3,15.461 -15.613,19.965 l -16.5,22.903 -90.664,118.984 v -107.75 c 0,-9.184 0.328,-19.988 0.899,-32.461 0.336,-7.789 0.886,-12.547 1.664,-14.332 0.601,-1.305 1.5,-2.242 2.699,-2.816 2.805,-1.301 8.637,-2 17.492,-2.106 v -8.852 c -7.48,0.661 -15.75,0.985 -24.769,0.985 -9.899,0 -20.629,-0.324 -32.219,-0.985" /><path
         id="path26"
         style="fill:#231f20;fill-opacity:1;fill-rule:nonzero;stroke:none"
         d="m 830.598,137.73 v 8.852 c 9.832,0.106 16.277,0.844 19.39,2.27 1.301,0.574 2.239,1.437 2.801,2.652 0.949,1.875 1.602,6.805 1.965,14.754 0.562,12.359 0.851,23.058 0.851,32.039 v 71.816 c 0,12.696 -0.136,25.153 -0.437,37.325 -0.266,8.906 -0.953,14.179 -2.016,15.824 -1.086,1.625 -2.812,2.847 -5.207,3.664 -2.386,0.793 -9.168,1.265 -20.3,1.465 v 8.98 l 40.054,-0.836 42.41,0.711 c 20.344,0.27 35.086,0.41 44.266,0.41 9.258,0 18.035,-0.511 26.254,-1.535 -1.5,-5.344 -2.539,-9.98 -3.09,-13.898 -0.176,-0.868 -1.012,-10.582 -2.535,-29.235 h -8.836 c 0.09,9.547 -0.523,18.266 -1.824,26.133 -5.141,2.141 -10.817,3.606 -17,4.352 -10.508,1.289 -20.965,1.965 -31.473,1.965 -2.238,0 -7.269,-0.188 -15.012,-0.551 -7.793,-0.387 -13.359,-0.699 -16.738,-0.989 -0.383,-10.41 -0.648,-20.152 -0.836,-29.234 l -0.574,-47.48 c 10.98,-0.555 21.039,-0.852 30.207,-0.852 11.148,0 20.664,0.535 28.531,1.547 2.981,0.402 4.906,1.133 5.758,2.269 0.836,1.098 1.586,4.977 2.25,11.493 l 0.856,9.859 h 8.414 v -2.668 l -0.696,-29.242 0.696,-32.715 h -9.829 l -0.425,9.535 c -0.176,6.914 -0.828,11.231 -1.891,12.922 -1.09,1.699 -3.117,2.875 -6.117,3.527 -5.328,1.125 -15.684,1.7 -31.059,1.7 -6.281,0 -15.16,-0.274 -26.695,-0.711 -0.449,-9.387 -0.676,-23.293 -0.676,-41.731 0,-17.336 0.227,-30.484 0.676,-39.492 13.5,-1.039 28.621,-1.523 45.367,-1.523 11.914,0 20.395,0.347 25.449,1.125 5.075,0.753 9.743,2.003 14.032,3.789 1.136,2.902 2.277,6.82 3.379,11.773 2.078,8.367 3.425,14.609 4.066,18.848 h 9.305 c -2.45,-18.922 -3.68,-34.598 -3.68,-47.071 -8.027,-1.211 -17.824,-1.836 -29.344,-1.836 l -83.875,1.125 c -1.238,0 -13.484,-0.363 -36.812,-1.125" /><path
         id="path28"
         style="fill:#231f20;fill-opacity:1;fill-rule:nonzero;stroke:none"
         d="m 996.941,328.402 v 8.969 c 3.659,-0.07 9.239,-0.226 16.719,-0.402 l 26.97,-0.727 c 5.36,0 13.63,0.203 24.87,0.567 14.62,0.562 23.1,0.847 25.43,0.847 17.89,0 30.94,-1.597 39.13,-4.765 8.19,-3.176 14.51,-8.325 19.04,-15.524 4.49,-7.164 6.75,-14.961 6.75,-23.402 0,-7.844 -2.1,-15.676 -6.35,-23.457 -4.23,-7.75 -10.29,-14.219 -18.32,-19.363 -7.98,-5.176 -18.4,-9.141 -31.25,-11.985 2.33,-3.25 7.87,-10.555 16.56,-21.902 l 35.4,-46.629 c 10.12,-13.024 16.05,-20.277 17.73,-21.793 0.83,-0.648 1.7,-1.125 2.52,-1.398 1.39,-0.461 4.5,-0.7 9.26,-0.7 v -8.996 c -7.13,0.547 -13.34,0.84 -18.66,0.84 -5.53,0 -12.34,-0.293 -20.38,-0.84 -6.09,7.031 -16.3,20.754 -30.62,41.141 -7.97,11.355 -15,20.812 -21.11,28.394 -9.8,12.586 -19.17,23.934 -28.07,34.153 l 1.42,4.175 c 4.84,-0.25 8.54,-0.386 11.08,-0.386 17.03,0 29.97,4.027 38.76,12.094 8.82,8.058 13.2,18.675 13.2,31.886 0,11.531 -3.79,20.676 -11.35,27.461 -7.6,6.801 -19.08,10.203 -34.44,10.203 -9.66,0 -19.12,-1.437 -28.37,-4.379 -0.39,-5.043 -0.68,-9.789 -0.84,-14.171 -0.08,-1.329 -0.41,-14.934 -1,-40.903 v -62.371 c 0,-12.738 0.18,-25.156 0.59,-37.25 0.19,-8.871 0.8,-14.172 1.89,-15.863 1.07,-1.664 2.81,-2.926 5.27,-3.703 2.44,-0.797 9.16,-1.313 20.22,-1.485 v -8.996 c -13.28,0.762 -25.52,1.113 -36.67,1.113 -8.99,0 -24.14,-0.351 -45.379,-1.113 v 8.996 c 11.059,0.172 17.819,0.688 20.219,1.485 2.45,0.777 4.14,1.89 5.09,3.289 1.14,1.867 1.8,6.418 2.09,13.625 0.09,1.976 0.28,15.285 0.56,39.902 v 65.074 c 0,12.696 -0.14,25.164 -0.44,37.325 -0.23,8.906 -0.95,14.179 -2.01,15.835 -1.09,1.625 -2.81,2.836 -5.2,3.641 -2.39,0.789 -9.18,1.285 -20.309,1.488" /><path
         id="path30"
         style="fill:#231f20;fill-opacity:1;fill-rule:nonzero;stroke:none"
         d="m 674.609,446.285 c 132.934,2.481 313.625,-15.972 459.321,-83.262 4.94,-2.632 6.16,1.079 1.71,3.106 -153.757,74.695 -348.66,98.984 -461.031,95.918 -112.359,3.066 -307.289,-21.223 -461.023,-95.918 -4.473,-2.027 -3.223,-5.738 1.719,-3.106 145.699,67.29 326.34,85.743 459.304,83.262" /><path
         id="path32"
         style="fill:#231f20;fill-opacity:1;fill-rule:nonzero;stroke:none"
         d="m 674.609,482.813 c 100.11,0.187 267.555,-10.321 397.101,-67.961 5.21,-2.887 6.67,0.75 1.76,3.05 -131.79,61.684 -286.251,81.961 -398.657,80.922 -112.422,1.039 -267.293,-19.238 -399.075,-80.922 -4.898,-2.3 -3.468,-5.937 1.754,-3.05 129.535,57.64 297.016,68.148 397.117,67.961" /><path
         id="path34"
         style="fill:#231f20;fill-opacity:1;fill-rule:nonzero;stroke:none"
         d="m 34.5781,305.438 c 0,22.386 0.2891,24.402 -27.2656,25.828 v 8.605 c 16.6484,-0.848 33.3086,-1.426 50.5156,-1.426 16.9532,0 33.5899,0.578 50.2419,1.426 27.852,0 59.438,-12.047 59.438,-44.48 0,-35.903 -31.008,-59.418 -66.899,-60.879 -7.7457,-0.293 -14.6481,0.562 -18.652,1.738 l -3.1757,10.617 c 4.3085,-1.148 11.2031,-2.301 18.3906,-2.597 23.5271,-0.856 41.6251,16.957 41.6251,41.339 0,29.895 -18.098,43.657 -46.7892,43.657 -9.7812,0 -19.2422,-2.328 -28.4336,-4.043 -1.7148,-4.879 -1.7148,-10.907 -1.7148,-19.785 V 173.652 c 0,-22.386 -0.293,-24.414 27.2695,-25.828 v -8.617 c -13.7891,0.859 -27.2695,1.438 -41.3359,1.438 -14.0821,0 -27.5782,-0.579 -40.4805,-1.438 v 8.617 c 27.5547,1.414 27.2656,3.442 27.2656,25.828 v 131.786" /><path
         id="path36"
         style="fill:#231f20;fill-opacity:1;fill-rule:nonzero;stroke:none"
         d="m 1293.09,289.836 c 0,10.91 0,18.375 -2.88,22.953 -7.74,12.07 -28.14,16.676 -41.65,16.676 -23.51,0 -43.62,-16.371 -43.62,-41.055 0,-62.305 114.27,-10.629 114.27,-82.672 0,-49.121 -43.94,-72.664 -86.7,-72.664 -17.24,0 -33.3,4.313 -49.12,10.922 1.16,10.906 1.75,24.68 2.02,35.875 v 8.043 h 9.76 v -13.496 c 0,-6.32 0.58,-11.762 4.04,-14.926 11.47,-10.043 29.84,-13.195 44.48,-13.195 25.85,0 51.1,15.195 51.1,43.633 0,69.488 -113.68,4.578 -113.68,88.125 0,39.34 33.28,64.308 70.34,64.308 19.54,0 37.6,-6.304 55.7,-13.215 -0.86,-4.574 -1.99,-9.179 -2.3,-13.753 -0.58,-8.598 -1.74,-16.95 -2,-25.559 h -9.76" /><path
         id="path38"
         style="fill:#231f20;fill-opacity:1;fill-rule:nonzero;stroke:none"
         d="m 92.0078,15.3281 c 0,-7.5781 -0.1055,-8.25388 9.2192,-8.74607 V 3.66797 c -4.6528,0.30078 -9.2192,0.48828 -13.9731,0.48828 -4.7656,0 -9.332,-0.1875 -13.7109,-0.48828 V 6.58203 C 82.8711,7.07422 82.7773,7.75 82.7773,15.3281 V 37.8438 H 43.918 V 15.3281 c 0,-7.5781 -0.1016,-8.25388 9.2304,-8.74607 V 3.66797 c -4.664,0.30078 -9.2304,0.48828 -13.9765,0.48828 -4.7735,0 -9.3242,-0.1875 -13.711,-0.48828 V 6.58203 C 34.793,7.07422 34.6992,7.75 34.6992,15.3281 v 44.5821 c 0,7.5742 0.0938,8.2578 -9.2383,8.7421 v 2.9024 c 4.3868,-0.2734 8.9375,-0.4727 13.711,-0.4727 4.7461,0 9.3125,0.1993 13.9765,0.4727 V 68.6523 C 43.8164,68.168 43.918,67.4844 43.918,59.9102 V 41.9453 h 38.8593 v 17.9649 c 0,7.5742 0.0938,8.2578 -9.2343,8.7421 v 2.9024 c 4.3789,-0.2734 8.9453,-0.4727 13.7109,-0.4727 4.7539,0 9.3203,0.1993 13.9731,0.4727 V 68.6523 C 91.9023,68.168 92.0078,67.4844 92.0078,59.9102 V 15.3281" /><path
         id="path40"
         style="fill:#231f20;fill-opacity:1;fill-rule:nonzero;stroke:none"
         d="m 191.762,16.9805 c 0,-3.5039 0.09,-5.8399 0.472,-8.34378 3.594,-0.51563 8.547,-0.51563 13.211,-0.51563 5.239,0 10.59,0.20313 15.649,1.66797 0.484,1.46094 0.965,3.19924 1.148,4.96484 l 0.895,5.3125 h 3.199 c -0.395,-2.0351 -0.977,-4.7383 -0.977,-7.8398 V 4.15625 C 221.77,3.66797 215.266,3.78125 209.234,3.66797 203.5,3.96094 197.68,4.15625 191.762,4.15625 c -5.934,0 -11.66,-0.19531 -17.586,-0.48828 v 2.90234 c 4.847,0.1875 8.355,2.25391 8.355,8.75779 v 44.5742 c 0,7.5821 0.098,8.2774 -9.234,8.7657 v 2.8867 c 5.918,-0.2852 11.758,-0.4727 17.777,-0.4727 6.016,0 11.938,0.1875 17.774,0.4727 6.109,-0.0977 12.82,0 16.125,-0.4727 -1.059,-3.2148 -1.453,-6.3164 -1.563,-9.4218 0,-2.0391 -0.273,-3.6836 -0.273,-5.7383 h -3.024 c -0.097,3.789 -0.683,6.5 -1.351,9.5039 -4.676,1.4922 -9.625,1.6758 -14.481,1.6758 -4.277,0 -8.847,0 -12.047,-0.5118 -0.382,-2.4179 -0.472,-4.6132 -0.472,-8.0312 V 40.3828 c 21.164,-0.1992 22.527,-1.3594 22.629,8.168 h 3.199 V 26.1016 h -3.199 c 0,10.9804 -0.692,10.4062 -22.629,9.6289 v -18.75" /><path
         id="path42"
         style="fill:#231f20;fill-opacity:1;fill-rule:nonzero;stroke:none"
         d="M 345.012,30.3008 332.879,59.2383 320.73,30.3008 Z m 15.25,-13.418 c 1.265,-3.1055 2.527,-6.3086 4.953,-8.63671 1.074,-0.97656 3.117,-1.55078 5.344,-1.66406 V 3.66797 c -4.27,0.30078 -8.543,0.48828 -12.907,0.48828 -4.386,0 -8.644,-0.1875 -12.922,-0.48828 v 2.91406 c 2.52,0.11328 5.153,0.19141 7.27,1.35156 1.379,0.6875 1.473,2.24221 0.695,3.99611 l -5.933,14.1719 H 319.18 c -1.164,-2.6172 -6.516,-14.1719 -6.516,-16.30082 0,-3.21875 4.766,-2.74219 8.27,-3.21875 V 3.66797 c -3.704,0.30078 -7.379,0.48828 -11.168,0.48828 -3.793,0 -7.481,-0.1875 -11.176,-0.48828 v 2.91406 c 5.433,1.07813 6.121,0.19141 8.449,5.25777 l 4.758,9.9961 13.117,29.3282 c 3.106,6.8945 6.32,13.9843 8.832,20.9804 h 3.098 l 23.418,-55.2617" /><path
         id="path44"
         style="fill:#231f20;fill-opacity:1;fill-rule:nonzero;stroke:none"
         d="m 460.707,12.2266 0.277,-3.58988 c 4.079,-0.50391 9.043,-0.50391 13.7,-0.50391 5.25,0 10.586,0.19141 15.636,1.66797 0.391,0.87502 0.672,1.94142 0.985,3.10152 l 2.234,8.168 3.094,-0.2109 c -0.285,-1.3399 -0.574,-3.8789 -0.961,-6.5078 L 494.598,4.15625 C 491.5,3.66797 485.27,3.77344 479.535,3.66797 c -5.433,0.30078 -10.957,0.48828 -16.597,0.48828 -5.629,0 -11.071,-0.1875 -16.715,-0.48828 v 2.91406 c 4.57,0.79297 5.257,3.59377 5.257,11.36327 v 41.9649 c 0,7.5742 0.102,8.2578 -9.242,8.7421 v 2.9024 c 4.395,-0.2734 8.938,-0.4727 13.703,-0.4727 4.766,0 9.321,0.1993 13.973,0.4727 v -2.9024 c -9.309,-0.4843 -9.207,-1.1679 -9.207,-8.7421 V 12.2266" /><path
         id="path46"
         style="fill:#231f20;fill-opacity:1;fill-rule:nonzero;stroke:none"
         d="m 583.957,56.8945 c -0.109,3.6953 -0.109,6.8047 -0.402,9.711 l -14.93,-0.4766 c -2.059,-0.1133 -3.219,-0.3906 -3.422,-2.9297 -0.383,-2.3281 -0.973,-4.8398 -1.074,-7.4648 h -2.883 c 0,1.8515 0,3.5898 -0.101,5.4375 -0.106,3.4062 -0.215,6.8203 -0.489,10.3828 9.199,-0.2734 18.449,-0.4727 27.961,-0.4727 9.426,0 18.656,0.1993 28.082,0.4727 -0.304,-3.5625 -0.39,-6.9766 -0.504,-10.3828 -0.097,-1.8477 -0.097,-3.586 -0.097,-5.4375 h -2.903 c -0.105,2.625 -0.687,5.1367 -1.078,7.4648 -0.191,2.5391 -1.355,2.8164 -3.398,2.9297 l -15.156,0.4766 c -0.286,-2.9063 -0.286,-6.0157 -0.368,-9.711 V 15.3281 c 0,-7.5781 -0.105,-8.26951 9.215,-8.74607 V 3.66797 c -4.656,0.30078 -9.215,0.48828 -13.98,0.48828 -4.774,0 -9.325,-0.1875 -13.715,-0.48828 v 2.91406 c 9.332,0.47656 9.242,1.16797 9.242,8.74607 v 41.5664" /><path
         id="path48"
         style="fill:#231f20;fill-opacity:1;fill-rule:nonzero;stroke:none"
         d="m 754.508,15.3281 c 0,-7.5781 -0.102,-8.25388 9.23,-8.74607 V 3.66797 c -4.664,0.30078 -9.23,0.48828 -13.984,0.48828 -4.758,0 -9.336,-0.1875 -13.699,-0.48828 v 2.91406 c 9.336,0.49219 9.23,1.16797 9.23,8.74607 V 37.8438 H 706.434 V 15.3281 c 0,-7.5781 -0.098,-8.25388 9.218,-8.74607 V 3.66797 c -4.668,0.30078 -9.218,0.48828 -13.984,0.48828 -4.766,0 -9.332,-0.1875 -13.699,-0.48828 v 2.91406 c 9.351,0.49219 9.238,1.16797 9.238,8.74607 v 44.5821 c 0,7.5742 0.113,8.2578 -9.238,8.7421 v 2.9024 c 4.367,-0.2734 8.933,-0.4727 13.699,-0.4727 4.766,0 9.316,0.1993 13.984,0.4727 v -2.9024 c -9.316,-0.4843 -9.218,-1.1679 -9.218,-8.7421 V 41.9453 h 38.851 v 17.9649 c 0,7.5742 0.106,8.2578 -9.23,8.7421 v 2.9024 c 4.363,-0.2734 8.941,-0.4727 13.699,-0.4727 4.754,0 9.32,0.1993 13.984,0.4727 v -2.9024 c -9.332,-0.4843 -9.23,-1.1679 -9.23,-8.7421 V 15.3281" /><path
         id="path50"
         style="fill:#231f20;fill-opacity:1;fill-rule:nonzero;stroke:none"
         d="M 896.723,7.93359 C 890.566,4.46094 880.871,2.20703 874.77,2.20703 c -21.493,0 -39.34,12.63677 -39.34,35.63677 0,22.5546 18.136,35.1757 37.375,35.1757 8.566,0 17.113,-2.0429 25.265,-4.3672 -1,-4.8632 -1.562,-9.7031 -2.14,-14.582 h -2.813 c -0.285,6.2383 1.262,8.4688 -4.465,11.2656 -3.992,1.9571 -8.644,3.6211 -15.652,3.6211 -16.004,0 -27.09,-11.3711 -27.09,-28.957 0,-19.418 12.649,-32.83594 32.145,-32.83594 6.996,0 13.898,2.25 19.73,6.12504 l 0.852,-0.9766 -1.914,-4.37891" /><path
         id="path52"
         style="fill:#231f20;fill-opacity:1;fill-rule:nonzero;stroke:none"
         d="m 1017.04,30.3008 -12.15,28.9375 -12.136,-28.9375 z m 15.25,-13.418 c 1.26,-3.1055 2.53,-6.3086 4.94,-8.63671 1.09,-0.97656 3.12,-1.55078 5.37,-1.66406 V 3.66797 c -4.28,0.30078 -8.56,0.48828 -12.94,0.48828 -4.36,0 -8.64,-0.1875 -12.92,-0.48828 v 2.91406 c 2.53,0.11328 5.16,0.19141 7.3,1.35156 1.37,0.6875 1.46,2.24221 0.69,3.99611 l -5.94,14.1719 h -27.591 c -1.16,-2.6172 -6.492,-14.1719 -6.492,-16.30082 0,-3.21875 4.758,-2.74219 8.246,-3.21875 V 3.66797 c -3.695,0.30078 -7.379,0.48828 -11.172,0.48828 -3.777,0 -7.484,-0.1875 -11.176,-0.48828 v 2.91406 c 5.446,1.07813 6.133,0.19141 8.461,5.25777 l 4.743,9.9961 13.132,29.3282 c 3.099,6.8945 6.309,13.9843 8.829,20.9804 h 3.11 l 23.41,-55.2617" /><path
         id="path54"
         style="fill:#231f20;fill-opacity:1;fill-rule:nonzero;stroke:none"
         d="m 1123.5,59.9023 c 0,7.5899 0.09,8.254 -9.21,8.75 v 2.9024 c 5.42,-0.2852 11.05,-0.4727 16.78,-0.4727 5.74,0 11.36,0.1875 16.99,0.4727 13.42,0.6914 19.66,-6.6016 19.66,-14.7578 0,-10.5703 -9.54,-16.8985 -18.97,-18.7422 L 1170.8,9.30078 c 1.56,-1.85156 3.59,-2.41406 5.55,-2.71875 V 3.68359 c -2.14,0.28516 -4.37,0.47266 -6.61,0.47266 -2.23,0 -4.38,-0.1875 -6.61,-0.47266 -1.56,2.01172 -2.62,3.76563 -3.97,5.42969 l -23.13,29.73442 0.4,1.4609 c 3.02,-0.2148 6,-0.1094 8.93,0.375 6.79,1.1641 12.64,6.4062 12.64,13.6016 0,10.4804 -7.79,13.582 -14.96,13.582 -3.41,0 -7.13,-0.4649 -9.74,-1.2774 -0.58,-1.6367 -0.58,-3.6601 -0.58,-6.6875 V 15.3125 c 0,-7.5625 -0.09,-8.25391 9.25,-8.73047 V 3.68359 c -4.68,0.28516 -9.25,0.47266 -13.99,0.47266 -4.76,0 -9.34,-0.1875 -13.69,-0.47266 v 2.89844 c 9.3,0.47656 9.21,1.16797 9.21,8.73047 v 44.5898" /><path
         id="path56"
         style="fill:#231f20;fill-opacity:1;fill-rule:nonzero;stroke:none"
         d="m 1264.62,16.9805 c 0,-3.5039 0.11,-5.8399 0.5,-8.34378 3.59,-0.51563 8.52,-0.51563 13.2,-0.51563 5.25,0 10.61,0.20313 15.62,1.66797 0.51,1.46094 1.02,3.19924 1.18,4.96484 l 0.89,5.3125 h 3.2 c -0.41,-2.0351 -0.98,-4.7383 -0.98,-7.8398 V 4.15625 c -3.6,-0.48828 -10.09,-0.375 -16.12,-0.48828 -5.73,0.29297 -11.57,0.48828 -17.49,0.48828 -5.92,0 -11.64,-0.19531 -17.57,-0.48828 v 2.90234 c 4.85,0.1875 8.35,2.25391 8.35,8.75779 v 44.5742 c 0,7.5821 0.1,8.2774 -9.24,8.7657 v 2.8867 c 5.94,-0.2852 11.79,-0.4727 17.79,-0.4727 6.02,0 11.96,0.1875 17.76,0.4727 6.14,-0.0977 12.82,0 16.13,-0.4727 -1.06,-3.2148 -1.46,-6.3164 -1.56,-9.4218 0,-2.0391 -0.27,-3.6836 -0.27,-5.7383 h -3.03 c -0.08,3.789 -0.68,6.5 -1.35,9.5039 -4.66,1.4922 -9.6,1.6758 -14.47,1.6758 -4.3,0 -8.83,0 -12.04,-0.5118 -0.39,-2.4179 -0.5,-4.6132 -0.5,-8.0312 V 40.3828 c 21.19,-0.1992 22.54,-1.3594 22.63,8.168 h 3.21 V 26.1016 h -3.21 c 0,10.9804 -0.66,10.4062 -22.63,9.6289 v -18.75" /><path
         id="path58"
         style="fill:#231f20;fill-opacity:1;fill-rule:nonzero;stroke:none"
         d="m 241.027,137.73 h 133.571 l -2.239,1.637 -127.171,1.84 -4.161,-3.477" /></g></g></svg>