<?xml version="1.0" encoding="UTF-8" standalone="no"?>
<svg
   xmlns:dc="http://purl.org/dc/elements/1.1/"
   xmlns:cc="http://creativecommons.org/ns#"
   xmlns:rdf="http://www.w3.org/1999/02/22-rdf-syntax-ns#"
   xmlns:svg="http://www.w3.org/2000/svg"
   xmlns="http://www.w3.org/2000/svg"
   viewBox="0 0 1863.675 229.7375"
   preserveAspectRatio="xMaxYMax"
   xml:space="preserve"
   version="1.1"
   id="svg2"><metadata
     id="metadata8"><rdf:RDF><cc:Work
         rdf:about=""><dc:format>image/svg+xml</dc:format><dc:type
           rdf:resource="http://purl.org/dc/dcmitype/StillImage" /></cc:Work></rdf:RDF></metadata><defs
     id="defs6"><clipPath
       id="clipPath18"
       clipPathUnits="userSpaceOnUse"><path
         id="path20"
         d="m 0,0 0,1808 14669,0 L 14669,0 0,0 Z" /></clipPath><clipPath
       id="clipPath24"
       clipPathUnits="userSpaceOnUse"><path
         id="path26"
         d="m 472.676,1597.96 c 49.683,66.83 98.98,127.81 146.734,181.15 l 0,0 c 7.32,8.4 14.762,16.56 22.34,24.52 98.426,6.22 198.82,6.22 298.695,0 54.754,-60.08 110.985,-129.09 167.075,-205.53 -27.66,-47.05 -56.74,-96.86 -87.23,-149.43 l -55.52,-95.51 c -121.504,3.14 -239.735,3.33 -352.551,0.57 -35.559,62.2 -69.321,121.45 -101.156,177.04 l -38.387,67.19 z M 94.2266,1013.8 c -37.1016,86.27 -68.2969,169.71 -92.43363,248.4 43.90623,88.65 93.97263,175.24 149.43403,258.1 79.847,18.04 167.527,32.22 261.113,42.62 l 138.902,-243.27 c -58.023,-94.36 -117.851,-197.25 -177.801,-306.69 -45.57,0.13 -89.863,0.32 -132.484,0.45 -51.219,0.19 -100.004,0.39 -146.7304,0.39 z M 147.887,437.711 C 93.582,520.199 43.7734,607.109 0,696.387 c 25.293,80.691 56.8672,163.871 93.582,247.703 38.262,0 77.797,0 119.391,-0.192 l 15.793,-0.132 c 46.593,-0.125 95.379,-0.254 145.449,-0.446 C 430.57,839.465 489.238,736.953 549.316,637.844 517.863,583.809 487.828,531.684 459.328,482.516 L 408.23,393.75 c -92.683,10.84 -180.109,25.609 -260.343,43.961 z M 1103.93,356.066 C 1046.68,278.848 989.992,210.172 935.375,150.852 836.973,145.215 736.582,145.785 636.609,152.465 581.41,212.867 525.055,281.996 468.957,358.438 l 141.465,244.3 c 119.68,-3.402 238.105,-3.972 352.297,-1.289 l 32.922,-57.437 c 38.379,-66.563 74.589,-129.465 108.289,-187.946 z m 381.02,585.137 c 38.09,-87.168 69.8,-171.191 94.41,-249.695 -44.57,-89.024 -95.18,-176.059 -150.71,-258.738 -79.88,-17.59 -168.61,-31.446 -264.39,-41.727 -43.19,74.785 -90.44,156.941 -141.21,245.395 8.22,13.55 16.63,27.285 24.91,41.019 5.84,9.82 11.61,19.129 17.52,28.879 14.25,24.133 28.63,48.336 42.82,72.855 1.73,2.758 3.4,5.707 5,8.543 15.53,26.563 30.87,53.399 46.22,80.418 5.64,10.145 11.16,20.286 16.87,30.301 8.16,14.508 16.38,29.012 24.27,43.645 46.09,-0.059 90.51,-0.383 133.47,-0.512 l 35.73,0 c 39.87,-0.191 78.05,-0.191 115.09,-0.383 z m -316.5,621.717 c 92.87,-10.59 181.32,-25.1 263.06,-43.46 55.14,-82.86 105.3,-170.16 149.43,-259.18 -25.09,-78.76 -57.31,-162.59 -95.67,-249.37 l -40.44,0.13 c -75.71,0.26 -157.32,0.44 -243.79,0.57 -44.03,81.07 -89.73,161.5 -136.33,240.07 -0.71,1.28 -1.35,2.25 -1.93,3.34 -12.39,20.92 -24.77,41.78 -37.48,62.45 l 54.88,93.97 c 31.13,53.34 60.4,103.73 88.27,151.48 z M 986.719,710.516 c -8.082,-13.036 -15.981,-26.321 -23.942,-39.348 -115.918,-2.25 -234.726,-1.996 -352.867,1.469 -60.34,99.433 -119.262,201.679 -174.719,304.828 58.793,107.195 118.489,209.965 177.547,306.245 112.422,2.5 230.528,2.43 352.032,-0.65 4.496,-7.31 8.925,-14.83 13.546,-22.4 53.474,-89.09 106.304,-180.68 156.614,-273.308 1.99,-3.34 3.79,-6.805 5.65,-10.266 -8.28,-14.961 -16.5,-29.723 -24.84,-44.617 -5.58,-9.879 -10.97,-19.832 -16.62,-29.781 -15.16,-26.766 -30.31,-53.34 -45.77,-79.723 -2.57,-4.426 -5.2,-8.856 -7.71,-13.164 -13.22,-22.719 -26.56,-45.563 -39.91,-67.711 -6.359,-10.645 -12.785,-21.113 -19.011,-31.574 z" /></clipPath><radialGradient
       id="radialGradient28"
       spreadMethod="pad"
       gradientTransform="matrix(-810.80621,0,0,-810.80621,772.45956,1247.7862)"
       gradientUnits="userSpaceOnUse"
       r="1"
       cy="0"
       cx="0"
       fy="0"
       fx="0"><stop
         id="stop30"
         offset="0"
         style="stop-opacity:1;stop-color:#ffffff" /><stop
         id="stop32"
         offset="0.770627"
         style="stop-opacity:1;stop-color:#e0b024" /><stop
         id="stop34"
         offset="1"
         style="stop-opacity:1;stop-color:#e0b024" /></radialGradient></defs><g
     transform="matrix(1.25,0,0,-1.25,0,229.7375)"
     id="g10"><g
       transform="scale(0.101636,0.101636)"
       id="g12"><g
         id="g14"><g
           clip-path="url(#clipPath18)"
           id="g16"><g
             clip-path="url(#clipPath24)"
             id="g22"><path
               id="path36"
               style="fill:url(#radialGradient28);fill-opacity:1;fill-rule:nonzero;stroke:none"
               d="m 740,147 0,1 -37,0 0,1 -19,0 0,1 -19,0 0,1 -20,0 0,1 -9,0 0,1 -1,0 0,1 -1,0 0,1 -1,0 0,1 -1,0 0,1 -1,0 0,1 -1,0 0,1 -1,0 0,2 -1,0 0,1 -1,0 0,1 -1,0 0,1 -1,0 0,1 -1,0 0,1 -1,0 0,1 -1,0 0,1 -1,0 0,2 -1,0 0,1 -1,0 0,1 -1,0 0,1 -1,0 0,1 -1,0 0,1 -1,0 0,1 -1,0 0,1 -1,0 0,2 -1,0 0,1 -1,0 0,1 -1,0 0,1 -1,0 0,1 -1,0 0,1 -1,0 0,1 -1,0 0,1 -1,0 0,2 -1,0 0,1 -1,0 0,1 -1,0 0,1 -1,0 0,1 -1,0 0,1 -1,0 0,1 -1,0 0,2 -1,0 0,1 -1,0 0,1 -1,0 0,1 -1,0 0,1 -1,0 0,1 -1,0 0,1 -1,0 0,2 -1,0 0,1 -1,0 0,1 -1,0 0,1 -1,0 0,1 -1,0 0,2 -1,0 0,1 -1,0 0,1 -1,0 0,1 -1,0 0,1 -1,0 0,2 -1,0 0,1 -1,0 0,1 -1,0 0,1 -1,0 0,1 -1,0 0,2 -1,0 0,1 -1,0 0,1 -1,0 0,1 -1,0 0,1 -1,0 0,2 -1,0 0,1 -1,0 0,1 -1,0 0,1 -1,0 0,1 -1,0 0,2 -1,0 0,1 -1,0 0,1 -1,0 0,1 -1,0 0,1 -1,0 0,2 -1,0 0,1 -1,0 0,1 -1,0 0,1 -1,0 0,1 -1,0 0,1 -1,0 0,2 -1,0 0,1 -1,0 0,1 -1,0 0,1 -1,0 0,2 -1,0 0,1 -1,0 0,1 -1,0 0,1 -1,0 0,2 -1,0 0,1 -1,0 0,1 -1,0 0,1 -1,0 0,2 -1,0 0,1 -1,0 0,1 -1,0 0,1 -1,0 0,2 -1,0 0,1 -1,0 0,1 -1,0 0,2 -1,0 0,1 -1,0 0,1 -1,0 0,1 -1,0 0,2 -1,0 0,1 -1,0 0,1 -1,0 0,1 -1,0 0,2 -1,0 0,1 -1,0 0,1 -1,0 0,1 -1,0 0,2 -1,0 0,1 -1,0 0,1 -1,0 0,1 -1,0 0,2 -1,0 0,1 -1,0 0,1 -1,0 0,2 -1,0 0,1 -1,0 0,1 -1,0 0,1 -1,0 0,2 -1,0 0,1 -1,0 0,1 -1,0 0,1 -1,0 0,2 -1,0 0,1 -1,0 0,1 -1,0 0,2 -1,0 0,1 -1,0 0,1 -1,0 0,2 -1,0 0,1 -1,0 0,1 -1,0 0,2 -1,0 0,1 -1,0 0,1 -1,0 0,2 -1,0 0,1 -1,0 0,1 -1,0 0,2 -1,0 0,1 -1,0 0,1 -1,0 0,2 -1,0 0,1 -1,0 0,1 -1,0 0,2 -1,0 0,1 -1,0 0,1 -1,0 0,2 -1,0 0,1 -1,0 0,1 -1,0 0,2 -1,0 0,1 -1,0 0,1 -1,0 0,2 -1,0 0,1 -1,0 0,1 -1,0 0,2 -1,0 0,1 -1,0 0,1 -1,0 0,2 -1,0 0,1 -1,0 0,1 -1,0 0,2 -1,0 0,1 -1,0 0,1 1,0 0,2 1,0 0,1 1,0 0,2 1,0 0,2 1,0 0,2 1,0 0,1 1,0 0,2 1,0 0,2 1,0 0,2 1,0 0,1 1,0 0,2 1,0 0,2 1,0 0,1 1,0 0,2 1,0 0,2 1,0 0,2 1,0 0,1 1,0 0,2 1,0 0,2 1,0 0,2 1,0 0,1 1,0 0,2 1,0 0,2 1,0 0,1 1,0 0,2 1,0 0,2 1,0 0,2 1,0 0,1 1,0 0,2 1,0 0,2 1,0 0,2 1,0 0,1 1,0 0,2 1,0 0,2 1,0 0,1 1,0 0,2 1,0 0,2 1,0 0,2 1,0 0,1 1,0 0,2 1,0 0,2 1,0 0,2 1,0 0,1 1,0 0,2 1,0 0,2 1,0 0,1 1,0 0,2 1,0 0,2 1,0 0,2 1,0 0,1 1,0 0,2 1,0 0,2 1,0 0,2 1,0 0,1 1,0 0,2 1,0 0,2 1,0 0,1 1,0 0,2 1,0 0,2 1,0 0,2 1,0 0,1 1,0 0,2 1,0 0,2 1,0 0,2 1,0 0,1 1,0 0,2 1,0 0,2 1,0 0,1 1,0 0,2 1,0 0,2 1,0 0,2 1,0 0,1 1,0 0,2 1,0 0,2 1,0 0,2 1,0 0,1 1,0 0,2 1,0 0,2 1,0 0,1 1,0 0,2 1,0 0,2 1,0 0,2 1,0 0,1 1,0 0,2 1,0 0,2 1,0 0,2 1,0 0,1 1,0 0,2 1,0 0,2 1,0 0,1 1,0 0,2 1,0 0,2 1,0 0,2 1,0 0,1 1,0 0,2 1,0 0,2 1,0 0,2 1,0 0,1 1,0 0,2 1,0 0,2 1,0 0,1 1,0 0,2 1,0 0,2 1,0 0,2 1,0 0,1 1,0 0,2 1,0 0,2 1,0 0,2 1,0 0,1 1,0 0,2 1,0 0,2 1,0 0,1 1,0 0,2 1,0 0,2 1,0 0,2 1,0 0,1 1,0 0,2 1,0 0,2 1,0 0,2 1,0 0,1 1,0 0,2 1,0 0,2 1,0 0,1 1,0 0,2 1,0 0,2 1,0 0,2 1,0 0,1 1,0 0,2 1,0 0,2 1,0 0,2 1,0 0,1 1,0 0,2 1,0 0,2 1,0 0,1 1,0 0,2 1,0 0,2 1,0 0,2 1,0 0,1 1,0 0,2 1,0 0,2 1,0 0,2 35,0 0,-1 44,0 0,-1 83,0 0,-1 90,0 0,1 74,0 0,1 28,0 0,-1 1,0 0,-1 1,0 0,-2 1,0 0,-2 1,0 0,-2 1,0 0,-1 1,0 0,-2 1,0 0,-2 1,0 0,-1 1,0 0,-2 1,0 0,-2 1,0 0,-2 1,0 0,-1 1,0 0,-2 1,0 0,-2 1,0 0,-2 1,0 0,-1 1,0 0,-2 1,0 0,-2 1,0 0,-2 1,0 0,-1 1,0 0,-2 1,0 0,-2 1,0 0,-2 1,0 0,-1 1,0 0,-2 1,0 0,-2 1,0 0,-2 1,0 0,-1 1,0 0,-2 1,0 0,-2 1,0 0,-2 1,0 0,-1 1,0 0,-2 1,0 0,-2 1,0 0,-2 1,0 0,-1 1,0 0,-2 1,0 0,-2 1,0 0,-2 1,0 0,-1 1,0 0,-2 1,0 0,-2 1,0 0,-1 1,0 0,-2 1,0 0,-2 1,0 0,-2 1,0 0,-1 1,0 0,-2 1,0 0,-2 1,0 0,-2 1,0 0,-1 1,0 0,-2 1,0 0,-2 1,0 0,-2 1,0 0,-1 1,0 0,-2 1,0 0,-2 1,0 0,-1 1,0 0,-2 1,0 0,-2 1,0 0,-2 1,0 0,-1 1,0 0,-2 1,0 0,-2 1,0 0,-2 1,0 0,-1 1,0 0,-2 1,0 0,-2 1,0 0,-2 1,0 0,-1 1,0 0,-2 1,0 0,-2 1,0 0,-2 1,0 0,-1 1,0 0,-2 1,0 0,-2 1,0 0,-1 1,0 0,-2 1,0 0,-2 1,0 0,-2 1,0 0,-1 1,0 0,-2 1,0 0,-2 1,0 0,-2 1,0 0,-1 1,0 0,-2 1,0 0,-2 1,0 0,-2 1,0 0,-1 1,0 0,-2 1,0 0,-2 1,0 0,-2 1,0 0,-1 1,0 0,-2 1,0 0,-2 1,0 0,-1 1,0 0,-2 1,0 0,-2 1,0 0,-2 1,0 0,-1 1,0 0,-2 1,0 0,-2 1,0 0,-2 1,0 0,-1 1,0 0,-2 1,0 0,-2 1,0 0,-2 1,0 0,-1 1,0 0,-2 1,0 0,-2 1,0 0,-1 1,0 0,-2 1,0 0,-2 1,0 0,-2 1,0 0,-1 1,0 0,-2 1,0 0,-2 1,0 0,-2 1,0 0,-1 1,0 0,-2 1,0 0,-2 1,0 0,-2 1,0 0,-1 1,0 0,-2 1,0 0,-2 1,0 0,-2 1,0 0,-1 1,0 0,-2 1,0 0,-2 1,0 0,-1 1,0 0,-2 1,0 0,-2 1,0 0,-2 1,0 0,-1 1,0 0,-2 1,0 0,-2 1,0 0,-2 1,0 0,-1 1,0 0,-2 1,0 0,-2 1,0 0,-4 -1,0 0,-1 -1,0 0,-1 -1,0 0,-2 -1,0 0,-1 -1,0 0,-1 -1,0 0,-2 -1,0 0,-1 -1,0 0,-1 -1,0 0,-1 -1,0 0,-2 -1,0 0,-1 -1,0 0,-1 -1,0 0,-2 -1,0 0,-1 -1,0 0,-1 -1,0 0,-2 -1,0 0,-1 -1,0 0,-1 -1,0 0,-2 -1,0 0,-1 -1,0 0,-1 -1,0 0,-2 -1,0 0,-1 -1,0 0,-1 -1,0 0,-2 -1,0 0,-1 -1,0 0,-1 -1,0 0,-1 -1,0 0,-2 -1,0 0,-1 -1,0 0,-1 -1,0 0,-2 -1,0 0,-1 -1,0 0,-1 -1,0 0,-2 -1,0 0,-1 -1,0 0,-1 -1,0 0,-2 -1,0 0,-1 -1,0 0,-1 -1,0 0,-2 -1,0 0,-1 -1,0 0,-1 -1,0 0,-1 -1,0 0,-2 -1,0 0,-1 -1,0 0,-1 -1,0 0,-1 -1,0 0,-2 -1,0 0,-1 -1,0 0,-1 -1,0 0,-1 -1,0 0,-2 -1,0 0,-1 -1,0 0,-1 -1,0 0,-1 -1,0 0,-2 -1,0 0,-1 -1,0 0,-1 -1,0 0,-1 -1,0 0,-2 -1,0 0,-1 -1,0 0,-1 -1,0 0,-1 -1,0 0,-2 -1,0 0,-1 -1,0 0,-1 -1,0 0,-1 -1,0 0,-2 -1,0 0,-1 -1,0 0,-1 -1,0 0,-1 -1,0 0,-2 -1,0 0,-1 -1,0 0,-1 -1,0 0,-1 -1,0 0,-2 -1,0 0,-1 -1,0 0,-1 -1,0 0,-1 -1,0 0,-2 -1,0 0,-1 -1,0 0,-1 -1,0 0,-1 -1,0 0,-2 -1,0 0,-1 -1,0 0,-1 -1,0 0,-1 -1,0 0,-1 -1,0 0,-1 -1,0 0,-2 -1,0 0,-1 -1,0 0,-1 -1,0 0,-1 -1,0 0,-1 -1,0 0,-2 -1,0 0,-1 -1,0 0,-1 -1,0 0,-1 -1,0 0,-1 -1,0 0,-1 -1,0 0,-2 -1,0 0,-1 -1,0 0,-1 -1,0 0,-1 -1,0 0,-1 -1,0 0,-2 -1,0 0,-1 -1,0 0,-1 -1,0 0,-1 -1,0 0,-1 -1,0 0,-1 -1,0 0,-2 -1,0 0,-1 -1,0 0,-1 -1,0 0,-1 -1,0 0,-1 -1,0 0,-2 -1,0 0,-1 -1,0 0,-1 -1,0 0,-1 -1,0 0,-1 -1,0 0,-2 -1,0 0,-1 -1,0 0,-1 -1,0 0,-1 -1,0 0,-1 -1,0 0,-1 -1,0 0,-1 -1,0 0,-2 -1,0 0,-1 -1,0 0,-1 -1,0 0,-1 -1,0 0,-1 -1,0 0,-1 -1,0 0,-1 -1,0 0,-1 -1,0 0,-2 -1,0 0,-1 -1,0 0,-1 -1,0 0,-1 -1,0 0,-1 -1,0 0,-1 -1,0 0,-1 -1,0 0,-1 -1,0 0,-1 -1,0 0,-2 -1,0 0,-1 -1,0 0,-1 -1,0 0,-1 -1,0 0,-1 -1,0 0,-1 -1,0 0,-1 -1,0 0,-1 -1,0 0,-2 -1,0 0,-1 -1,0 0,-1 -1,0 0,-1 -1,0 0,-1 -1,0 0,-1 -1,0 0,-1 -1,0 0,-1 -1,0 0,-1 -1,0 0,-2 -1,0 0,-1 -1,0 0,-1 -1,0 0,-1 -1,0 0,-1 -21,0 0,-1 -24,0 0,-1 -24,0 0,-1 -127,0 z m 423,244 0,2 -1,0 0,1 -1,0 0,2 -1,0 0,2 -1,0 0,2 -1,0 0,1 -1,0 0,2 -1,0 0,2 -1,0 0,2 -1,0 0,1 -1,0 0,2 -1,0 0,2 -1,0 0,2 -1,0 0,1 -1,0 0,2 -1,0 0,2 -1,0 0,1 -1,0 0,2 -1,0 0,2 -1,0 0,2 -1,0 0,1 -1,0 0,2 -1,0 0,2 -1,0 0,2 -1,0 0,1 -1,0 0,2 -1,0 0,2 -1,0 0,2 -1,0 0,1 -1,0 0,2 -1,0 0,2 -1,0 0,1 -1,0 0,2 -1,0 0,2 -1,0 0,2 -1,0 0,1 -1,0 0,2 -1,0 0,2 -1,0 0,2 -1,0 0,1 -1,0 0,2 -1,0 0,2 -1,0 0,2 -1,0 0,1 -1,0 0,2 -1,0 0,2 -1,0 0,2 -1,0 0,1 -1,0 0,2 -1,0 0,2 -1,0 0,1 -1,0 0,2 -1,0 0,2 -1,0 0,2 -1,0 0,1 -1,0 0,2 -1,0 0,2 -1,0 0,2 -1,0 0,1 -1,0 0,2 -1,0 0,2 -1,0 0,2 -1,0 0,1 -1,0 0,2 -1,0 0,2 -1,0 0,2 -1,0 0,1 -1,0 0,2 -1,0 0,2 -1,0 0,1 -1,0 0,2 -1,0 0,2 -1,0 0,2 -1,0 0,1 -1,0 0,2 -1,0 0,2 -1,0 0,2 -1,0 0,1 -1,0 0,2 -1,0 0,2 -1,0 0,2 -1,0 0,1 -1,0 0,2 -1,0 0,2 -1,0 0,2 -1,0 0,1 -1,0 0,2 -1,0 0,2 -1,0 0,2 -1,0 0,1 -1,0 0,2 -1,0 0,2 -1,0 0,1 -1,0 0,2 -1,0 0,2 -1,0 0,2 -1,0 0,1 -1,0 0,2 -1,0 0,2 -1,0 0,2 -1,0 0,1 -1,0 0,2 -1,0 0,2 -1,0 0,2 -1,0 0,1 -1,0 0,2 -1,0 0,2 -1,0 0,2 -1,0 0,1 -1,0 0,2 -1,0 0,2 -1,0 0,2 -1,0 0,1 -1,0 0,2 -1,0 0,2 -1,0 0,2 -1,0 0,1 -1,0 0,2 -1,0 0,2 -1,0 0,1 -1,0 0,2 -1,0 0,2 -1,0 0,2 -1,0 0,1 -1,0 0,2 -1,0 0,2 -1,0 0,2 -1,0 0,1 -1,0 0,2 -1,0 0,2 -1,0 0,2 -1,0 0,1 -1,0 0,2 -1,0 0,2 -1,0 0,2 -1,0 0,1 -1,0 0,2 -1,0 0,2 -1,0 0,2 -1,0 0,1 -1,0 0,4 1,0 0,2 1,0 0,2 1,0 0,1 1,0 0,2 1,0 0,2 1,0 0,1 1,0 0,2 1,0 0,2 1,0 0,1 1,0 0,2 1,0 0,2 1,0 0,1 1,0 0,2 1,0 0,2 1,0 0,1 1,0 0,2 1,0 0,1 1,0 0,2 1,0 0,2 1,0 0,1 1,0 0,2 1,0 0,2 1,0 0,1 1,0 0,2 1,0 0,2 1,0 0,1 1,0 0,2 1,0 0,2 1,0 0,1 1,0 0,2 1,0 0,2 1,0 0,1 1,0 0,2 1,0 0,2 1,0 0,1 1,0 0,2 1,0 0,1 1,0 0,2 1,0 0,2 1,0 0,1 1,0 0,2 1,0 0,2 1,0 0,1 1,0 0,2 1,0 0,2 1,0 0,2 1,0 0,1 1,0 0,2 1,0 0,2 1,0 0,1 1,0 0,2 1,0 0,2 1,0 0,1 1,0 0,2 1,0 0,2 1,0 0,2 1,0 0,1 1,0 0,2 1,0 0,2 1,0 0,1 1,0 0,2 1,0 0,2 1,0 0,1 1,0 0,2 1,0 0,2 1,0 0,2 1,0 0,1 1,0 0,2 1,0 0,2 1,0 0,1 1,0 0,2 1,0 0,2 1,0 0,1 1,0 0,2 1,0 0,2 1,0 0,2 1,0 0,1 1,0 0,2 1,0 0,2 1,0 0,1 1,0 0,2 1,0 0,2 1,0 0,1 1,0 0,2 1,0 0,2 1,0 0,2 1,0 0,1 1,0 0,2 1,0 0,2 1,0 0,1 1,0 0,2 1,0 0,2 1,0 0,2 1,0 0,1 1,0 0,2 1,0 0,2 1,0 0,2 1,0 0,1 1,0 0,2 1,0 0,2 1,0 0,2 1,0 0,1 1,0 0,2 1,0 0,2 1,0 0,2 1,0 0,1 1,0 0,2 1,0 0,2 1,0 0,1 1,0 0,2 1,0 0,2 1,0 0,2 1,0 0,1 1,0 0,2 1,0 0,2 1,0 0,2 1,0 0,1 1,0 0,2 1,0 0,2 1,0 0,2 1,0 0,1 1,0 0,2 1,0 0,2 1,0 0,2 1,0 0,1 1,0 0,2 1,0 0,2 1,0 0,2 1,0 0,1 1,0 0,2 1,0 0,2 1,0 0,2 1,0 0,1 1,0 0,2 1,0 0,2 1,0 0,2 1,0 0,1 1,0 0,2 1,0 0,2 1,0 0,2 1,0 0,1 1,0 0,2 1,0 0,2 1,0 0,2 1,0 0,2 1,0 0,1 1,0 0,2 1,0 0,2 1,0 0,2 1,0 0,2 1,0 0,1 1,0 0,2 1,0 0,2 1,0 0,2 1,0 0,2 1,0 0,1 1,0 0,2 1,0 0,2 1,0 0,2 1,0 0,2 1,0 0,1 1,0 0,2 1,0 0,2 1,0 0,2 1,0 0,2 1,0 0,1 1,0 0,2 1,0 0,2 1,0 0,2 1,0 0,2 1,0 0,1 1,0 0,2 1,0 0,2 1,0 0,2 1,0 0,2 1,0 0,1 1,0 0,2 30,0 0,-1 256,0 0,-3 1,0 0,-2 1,0 0,-3 1,0 0,-2 1,0 0,-2 1,0 0,-3 1,0 0,-2 1,0 0,-2 1,0 0,-3 1,0 0,-2 1,0 0,-2 1,0 0,-3 1,0 0,-2 1,0 0,-3 1,0 0,-2 1,0 0,-2 1,0 0,-3 1,0 0,-2 1,0 0,-2 1,0 0,-3 1,0 0,-2 1,0 0,-2 1,0 0,-3 1,0 0,-2 1,0 0,-3 1,0 0,-2 1,0 0,-2 1,0 0,-3 1,0 0,-2 1,0 0,-3 1,0 0,-2 1,0 0,-3 1,0 0,-3 1,0 0,-2 1,0 0,-3 1,0 0,-2 1,0 0,-3 1,0 0,-2 1,0 0,-3 1,0 0,-2 1,0 0,-3 1,0 0,-2 1,0 0,-3 1,0 0,-3 1,0 0,-2 1,0 0,-3 1,0 0,-2 1,0 0,-3 1,0 0,-2 1,0 0,-3 1,0 0,-2 1,0 0,-3 1,0 0,-3 1,0 0,-2 1,0 0,-3 1,0 0,-3 1,0 0,-3 1,0 0,-2 1,0 0,-3 1,0 0,-3 1,0 0,-3 1,0 0,-2 1,0 0,-3 1,0 0,-3 1,0 0,-3 1,0 0,-2 1,0 0,-3 1,0 0,-3 1,0 0,-3 1,0 0,-2 1,0 0,-3 1,0 0,-3 1,0 0,-3 1,0 0,-3 1,0 0,-2 1,0 0,-3 1,0 0,-3 1,0 0,-3 1,0 0,-3 1,0 0,-4 1,0 0,-3 1,0 0,-3 1,0 0,-3 1,0 0,-3 1,0 0,-3 1,0 0,-3 1,0 0,-3 1,0 0,-3 1,0 0,-3 1,0 0,-3 1,0 0,-3 1,0 0,-3 1,0 0,-3 1,0 0,-3 1,0 0,-3 -1,0 0,-2 -1,0 0,-2 -1,0 0,-1 -1,0 0,-2 -1,0 0,-2 -1,0 0,-2 -1,0 0,-2 -1,0 0,-2 -1,0 0,-2 -1,0 0,-2 -1,0 0,-2 -1,0 0,-2 -1,0 0,-2 -1,0 0,-2 -1,0 0,-1 -1,0 0,-2 -1,0 0,-2 -1,0 0,-2 -1,0 0,-2 -1,0 0,-2 -1,0 0,-2 -1,0 0,-2 -1,0 0,-2 -1,0 0,-2 -1,0 0,-2 -1,0 0,-2 -1,0 0,-2 -1,0 0,-1 -1,0 0,-2 -1,0 0,-2 -1,0 0,-2 -1,0 0,-2 -1,0 0,-2 -1,0 0,-2 -1,0 0,-2 -1,0 0,-2 -1,0 0,-1 -1,0 0,-2 -1,0 0,-2 -1,0 0,-2 -1,0 0,-1 -1,0 0,-2 -1,0 0,-2 -1,0 0,-2 -1,0 0,-2 -1,0 0,-1 -1,0 0,-2 -1,0 0,-2 -1,0 0,-2 -1,0 0,-2 -1,0 0,-1 -1,0 0,-2 -1,0 0,-2 -1,0 0,-2 -1,0 0,-1 -1,0 0,-2 -1,0 0,-2 -1,0 0,-2 -1,0 0,-2 -1,0 0,-1 -1,0 0,-2 -1,0 0,-2 -1,0 0,-2 -1,0 0,-1 -1,0 0,-2 -1,0 0,-2 -1,0 0,-2 -1,0 0,-2 -1,0 0,-1 -1,0 0,-2 -1,0 0,-2 -1,0 0,-2 -1,0 0,-1 -1,0 0,-2 -1,0 0,-2 -1,0 0,-1 -1,0 0,-2 -1,0 0,-2 -1,0 0,-1 -1,0 0,-2 -1,0 0,-1 -1,0 0,-2 -1,0 0,-2 -1,0 0,-1 -1,0 0,-2 -1,0 0,-2 -1,0 0,-1 -1,0 0,-2 -1,0 0,-2 -1,0 0,-1 -1,0 0,-2 -1,0 0,-2 -1,0 0,-1 -1,0 0,-2 -1,0 0,-2 -1,0 0,-1 -1,0 0,-2 -1,0 0,-2 -1,0 0,-1 -1,0 0,-2 -1,0 0,-2 -1,0 0,-1 -1,0 0,-2 -1,0 0,-2 -1,0 0,-1 -1,0 0,-2 -1,0 0,-2 -1,0 0,-1 -1,0 0,-2 -1,0 0,-1 -1,0 0,-2 -1,0 0,-2 -1,0 0,-1 -1,0 0,-2 -1,0 0,-1 -1,0 0,-2 -1,0 0,-1 -1,0 0,-2 -1,0 0,-1 -1,0 0,-2 -1,0 0,-1 -1,0 0,-2 -1,0 0,-2 -1,0 0,-1 -1,0 0,-2 -1,0 0,-1 -1,0 0,-2 -1,0 0,-1 -1,0 0,-2 -1,0 0,-1 -1,0 0,-2 -1,0 0,-1 -1,0 0,-2 -1,0 0,-2 -1,0 0,-1 -1,0 0,-2 -1,0 0,-1 -1,0 0,-2 -1,0 0,-1 -1,0 0,-2 -1,0 0,-1 -1,0 0,-2 -1,0 0,-1 -1,0 0,-2 -1,0 0,-1 -1,0 0,-2 -1,0 0,-2 -1,0 0,-1 -1,0 0,-2 -1,0 0,-1 -1,0 0,-1 -4,0 0,-1 -5,0 0,-1 -5,0 0,-1 -4,0 0,-1 -5,0 0,-1 -5,0 0,-1 -5,0 0,-1 -5,0 0,-1 -5,0 0,-1 -5,0 0,-1 -5,0 0,-1 -5,0 0,-1 -5,0 0,-1 -6,0 0,-1 -6,0 0,-1 -5,0 0,-1 -6,0 0,-1 -6,0 0,-1 -6,0 0,-1 -6,0 0,-1 -6,0 0,-1 -5,0 0,-1 -6,0 0,-1 -6,0 0,-1 -7,0 0,-1 -7,0 0,-1 -7,0 0,-1 -7,0 0,-1 -7,0 0,-1 -7,0 0,-1 -7,0 0,-1 -7,0 0,-1 -7,0 0,-1 -7,0 0,-1 -9,0 0,-1 -8,0 0,-1 -9,0 0,-1 -8,0 0,-1 -8,0 0,-1 -9,0 0,-1 -8,0 0,-1 -10,0 z m -757,2 0,1 -8,0 0,1 -8,0 0,1 -7,0 0,1 -8,0 0,1 -8,0 0,1 -8,0 0,1 -7,0 0,1 -8,0 0,1 -7,0 0,1 -7,0 0,1 -6,0 0,1 -7,0 0,1 -6,0 0,1 -6,0 0,1 -7,0 0,1 -6,0 0,1 -7,0 0,1 -6,0 0,1 -7,0 0,1 -5,0 0,1 -6,0 0,1 -5,0 0,1 -5,0 0,1 -6,0 0,1 -5,0 0,1 -6,0 0,1 -5,0 0,1 -6,0 0,1 -5,0 0,1 -6,0 0,1 -5,0 0,1 -5,0 0,1 -4,0 0,1 -5,0 0,1 -5,0 0,1 -4,0 0,1 -5,0 0,1 -5,0 0,1 -4,0 0,1 -5,0 0,1 -5,0 0,1 -5,0 0,1 -4,0 0,1 -4,0 0,2 -1,0 0,1 -1,0 0,2 -1,0 0,1 -1,0 0,2 -1,0 0,1 -1,0 0,2 -1,0 0,2 -1,0 0,1 -1,0 0,2 -1,0 0,1 -1,0 0,2 -1,0 0,1 -1,0 0,2 -1,0 0,2 -1,0 0,1 -1,0 0,2 -1,0 0,1 -1,0 0,2 -1,0 0,1 -1,0 0,2 -1,0 0,2 -1,0 0,1 -1,0 0,2 -1,0 0,1 -1,0 0,2 -1,0 0,1 -1,0 0,2 -1,0 0,2 -1,0 0,1 -1,0 0,2 -1,0 0,1 -1,0 0,2 -1,0 0,1 -1,0 0,2 -1,0 0,2 -1,0 0,1 -1,0 0,2 -1,0 0,1 -1,0 0,2 -1,0 0,2 -1,0 0,1 -1,0 0,2 -1,0 0,2 -1,0 0,1 -1,0 0,2 -1,0 0,2 -1,0 0,1 -1,0 0,2 -1,0 0,2 -1,0 0,1 -1,0 0,2 -1,0 0,2 -1,0 0,2 -1,0 0,1 -1,0 0,2 -1,0 0,2 -1,0 0,1 -1,0 0,2 -1,0 0,2 -1,0 0,1 -1,0 0,2 -1,0 0,2 -1,0 0,1 -1,0 0,2 -1,0 0,2 -1,0 0,1 -1,0 0,2 -1,0 0,2 -1,0 0,2 -1,0 0,1 -1,0 0,2 -1,0 0,2 -1,0 0,1 -1,0 0,2 -1,0 0,2 -1,0 0,1 -1,0 0,2 -1,0 0,2 -1,0 0,2 -1,0 0,1 -1,0 0,2 -1,0 0,2 -1,0 0,2 -1,0 0,2 -1,0 0,2 -1,0 0,1 -1,0 0,2 -1,0 0,2 -1,0 0,2 -1,0 0,2 -1,0 0,1 -1,0 0,2 -1,0 0,2 -1,0 0,2 -1,0 0,2 -1,0 0,1 -1,0 0,2 -1,0 0,2 -1,0 0,2 -1,0 0,2 -1,0 0,2 -1,0 0,1 -1,0 0,2 -1,0 0,2 -1,0 0,2 -1,0 0,2 -1,0 0,1 -1,0 0,2 -1,0 0,2 -1,0 0,2 -1,0 0,2 -1,0 0,1 -1,0 0,2 -1,0 0,2 -1,0 0,2 -1,0 0,2 -1,0 0,2 -1,0 0,2 -1,0 0,2 -1,0 0,2 -1,0 0,2 -1,0 0,2 -1,0 0,2 -1,0 0,2 -1,0 0,2 -1,0 0,2 -1,0 0,2 -1,0 0,2 -1,0 0,2 -1,0 0,2 -1,0 0,2 -1,0 0,2 -1,0 0,1 -1,0 0,2 -1,0 0,2 -1,0 0,2 -1,0 0,2 -1,0 0,2 -1,0 0,2 -1,0 0,2 -1,0 0,2 -1,0 0,2 -1,0 0,2 -1,0 0,2 -1,0 0,2 -1,0 0,2 -1,0 0,6 1,0 0,3 1,0 0,3 1,0 0,3 1,0 0,3 1,0 0,3 1,0 0,3 1,0 0,3 1,0 0,3 1,0 0,3 1,0 0,3 1,0 0,3 1,0 0,3 1,0 0,3 1,0 0,3 1,0 0,3 1,0 0,3 1,0 0,3 1,0 0,3 1,0 0,3 1,0 0,3 1,0 0,3 1,0 0,3 1,0 0,3 1,0 0,2 1,0 0,3 1,0 0,3 1,0 0,3 1,0 0,2 1,0 0,3 1,0 0,3 1,0 0,3 1,0 0,2 1,0 0,3 1,0 0,3 1,0 0,3 1,0 0,2 1,0 0,3 1,0 0,3 1,0 0,3 1,0 0,2 1,0 0,3 1,0 0,3 1,0 0,2 1,0 0,3 1,0 0,2 1,0 0,3 1,0 0,3 1,0 0,2 1,0 0,3 1,0 0,2 1,0 0,3 1,0 0,2 1,0 0,3 1,0 0,2 1,0 0,3 1,0 0,2 1,0 0,3 1,0 0,2 1,0 0,3 1,0 0,3 1,0 0,2 1,0 0,3 1,0 0,2 1,0 0,3 1,0 0,2 1,0 0,3 1,0 0,2 1,0 0,3 1,0 0,2 1,0 0,2 1,0 0,3 1,0 0,2 1,0 0,2 1,0 0,3 1,0 0,2 1,0 0,2 1,0 0,3 1,0 0,2 1,0 0,2 1,0 0,3 1,0 0,2 1,0 0,3 1,0 0,2 1,0 0,2 1,0 0,3 1,0 0,2 1,0 0,2 1,0 0,3 1,0 0,2 1,0 0,2 1,0 0,3 1,0 0,2 1,0 0,2 83,0 0,-1 199,0 0,-2 1,0 0,-1 1,0 0,-2 1,0 0,-2 1,0 0,-2 1,0 0,-2 1,0 0,-2 1,0 0,-1 1,0 0,-2 1,0 0,-2 1,0 0,-2 1,0 0,-2 1,0 0,-1 1,0 0,-2 1,0 0,-2 1,0 0,-2 1,0 0,-2 1,0 0,-2 1,0 0,-1 1,0 0,-2 1,0 0,-2 1,0 0,-2 1,0 0,-2 1,0 0,-1 1,0 0,-2 1,0 0,-2 1,0 0,-2 1,0 0,-2 1,0 0,-2 1,0 0,-1 1,0 0,-2 1,0 0,-2 1,0 0,-2 1,0 0,-2 1,0 0,-1 1,0 0,-2 1,0 0,-2 1,0 0,-2 1,0 0,-2 1,0 0,-2 1,0 0,-1 1,0 0,-2 1,0 0,-2 1,0 0,-2 1,0 0,-2 1,0 0,-1 1,0 0,-2 1,0 0,-2 1,0 0,-2 1,0 0,-1 1,0 0,-2 1,0 0,-2 1,0 0,-2 1,0 0,-1 1,0 0,-2 1,0 0,-2 1,0 0,-2 1,0 0,-2 1,0 0,-1 1,0 0,-2 1,0 0,-2 1,0 0,-2 1,0 0,-1 1,0 0,-2 1,0 0,-2 1,0 0,-2 1,0 0,-1 1,0 0,-2 1,0 0,-2 1,0 0,-2 1,0 0,-2 1,0 0,-1 1,0 0,-2 1,0 0,-2 1,0 0,-2 1,0 0,-1 1,0 0,-2 1,0 0,-2 1,0 0,-2 1,0 0,-1 1,0 0,-2 1,0 0,-2 1,0 0,-2 1,0 0,-2 1,0 0,-1 1,0 0,-2 1,0 0,-2 1,0 0,-2 1,0 0,-1 1,0 0,-2 1,0 0,-2 1,0 0,-1 1,0 0,-2 1,0 0,-2 1,0 0,-2 1,0 0,-1 1,0 0,-2 1,0 0,-2 1,0 0,-1 1,0 0,-2 1,0 0,-2 1,0 0,-2 1,0 0,-1 1,0 0,-2 1,0 0,-2 1,0 0,-1 1,0 0,-2 1,0 0,-2 1,0 0,-2 1,0 0,-1 1,0 0,-2 1,0 0,-2 1,0 0,-2 1,0 0,-1 1,0 0,-2 1,0 0,-2 1,0 0,-1 1,0 0,-2 1,0 0,-2 1,0 0,-2 1,0 0,-1 1,0 0,-2 1,0 0,-2 1,0 0,-1 1,0 0,-2 1,0 0,-2 1,0 0,-2 1,0 0,-1 1,0 0,-2 1,0 0,-2 1,0 0,-1 1,0 0,-2 1,0 0,-2 1,0 0,-2 1,0 0,-1 1,0 0,-2 1,0 0,-2 1,0 0,-1 1,0 0,-2 1,0 0,-2 1,0 0,-1 1,0 0,-2 1,0 0,-2 1,0 0,-1 1,0 0,-2 1,0 0,-2 1,0 0,-1 1,0 0,-2 1,0 0,-2 1,0 0,-1 1,0 0,-2 1,0 0,-2 1,0 0,-1 1,0 0,-2 1,0 0,-2 1,0 0,-1 1,0 0,-2 1,0 0,-2 1,0 0,-1 1,0 0,-2 1,0 0,-2 1,0 0,-1 1,0 0,-2 1,0 0,-2 1,0 0,-1 1,0 0,-2 1,0 0,-2 1,0 0,-1 1,0 0,-2 1,0 0,-2 1,0 0,-1 1,0 0,-2 1,0 0,-2 1,0 0,-1 1,0 0,-2 1,0 0,-2 -1,0 0,-2 -1,0 0,-2 -1,0 0,-1 -1,0 0,-2 -1,0 0,-2 -1,0 0,-2 -1,0 0,-1 -1,0 0,-2 -1,0 0,-2 -1,0 0,-1 -1,0 0,-2 -1,0 0,-2 -1,0 0,-2 -1,0 0,-1 -1,0 0,-2 -1,0 0,-2 -1,0 0,-2 -1,0 0,-1 -1,0 0,-2 -1,0 0,-2 -1,0 0,-1 -1,0 0,-2 -1,0 0,-2 -1,0 0,-2 -1,0 0,-1 -1,0 0,-2 -1,0 0,-2 -1,0 0,-1 -1,0 0,-2 -1,0 0,-2 -1,0 0,-2 -1,0 0,-1 -1,0 0,-2 -1,0 0,-2 -1,0 0,-2 -1,0 0,-1 -1,0 0,-2 -1,0 0,-2 -1,0 0,-1 -1,0 0,-2 -1,0 0,-2 -1,0 0,-2 -1,0 0,-1 -1,0 0,-2 -1,0 0,-2 -1,0 0,-2 -1,0 0,-1 -1,0 0,-2 -1,0 0,-2 -1,0 0,-1 -1,0 0,-2 -1,0 0,-2 -1,0 0,-2 -1,0 0,-1 -1,0 0,-2 -1,0 0,-2 -1,0 0,-2 -1,0 0,-1 -1,0 0,-2 -1,0 0,-2 -1,0 0,-1 -1,0 0,-2 -1,0 0,-2 -1,0 0,-2 -1,0 0,-1 -1,0 0,-2 -1,0 0,-2 -1,0 0,-2 -1,0 0,-1 -1,0 0,-2 -1,0 0,-2 -1,0 0,-1 -1,0 0,-2 -1,0 0,-2 -1,0 0,-2 -1,0 0,-1 -1,0 0,-2 -1,0 0,-2 -1,0 0,-2 -1,0 0,-1 -1,0 0,-2 -1,0 0,-2 -1,0 0,-1 -1,0 0,-2 -1,0 0,-2 -1,0 0,-2 -1,0 0,-1 -1,0 0,-2 -1,0 0,-2 -1,0 0,-2 -1,0 0,-1 -1,0 0,-2 -1,0 0,-2 -1,0 0,-1 -1,0 0,-2 -1,0 0,-2 -1,0 0,-2 -1,0 0,-1 -1,0 0,-2 -1,0 0,-2 -1,0 0,-2 -1,0 0,-1 -1,0 0,-2 -1,0 0,-2 -1,0 0,-2 -1,0 0,-1 -1,0 0,-2 -1,0 0,-2 -1,0 0,-2 -1,0 0,-1 -1,0 0,-2 -1,0 0,-2 -1,0 0,-2 -1,0 0,-1 -1,0 0,-2 -1,0 0,-2 -1,0 0,-1 -1,0 0,-2 -1,0 0,-2 -1,0 0,-2 -1,0 0,-1 -1,0 0,-2 -1,0 0,-2 -1,0 0,-2 -1,0 0,-1 -1,0 0,-2 -1,0 0,-2 -1,0 0,-2 -1,0 0,-1 -1,0 0,-2 -1,0 0,-2 -1,0 0,-2 -1,0 0,-1 -1,0 0,-2 -1,0 0,-2 -1,0 0,-1 -1,0 0,-2 -1,0 0,-2 -1,0 0,-2 -1,0 0,-1 -1,0 0,-2 -3,0 z m 356,276 0,1 -80,0 0,1 -44,0 0,1 -29,0 0,2 -1,0 0,1 -1,0 0,2 -1,0 0,2 -1,0 0,1 -1,0 0,2 -1,0 0,2 -1,0 0,1 -1,0 0,2 -1,0 0,2 -1,0 0,1 -1,0 0,2 -1,0 0,2 -1,0 0,1 -1,0 0,2 -1,0 0,2 -1,0 0,1 -1,0 0,2 -1,0 0,2 -1,0 0,1 -1,0 0,2 -1,0 0,2 -1,0 0,1 -1,0 0,2 -1,0 0,2 -1,0 0,1 -1,0 0,2 -1,0 0,2 -1,0 0,1 -1,0 0,2 -1,0 0,2 -1,0 0,1 -1,0 0,2 -1,0 0,2 -1,0 0,1 -1,0 0,2 -1,0 0,2 -1,0 0,1 -1,0 0,2 -1,0 0,2 -1,0 0,1 -1,0 0,2 -1,0 0,2 -1,0 0,1 -1,0 0,2 -1,0 0,2 -1,0 0,2 -1,0 0,1 -1,0 0,2 -1,0 0,2 -1,0 0,1 -1,0 0,2 -1,0 0,2 -1,0 0,2 -1,0 0,1 -1,0 0,2 -1,0 0,2 -1,0 0,1 -1,0 0,2 -1,0 0,2 -1,0 0,2 -1,0 0,1 -1,0 0,2 -1,0 0,2 -1,0 0,1 -1,0 0,2 -1,0 0,2 -1,0 0,2 -1,0 0,1 -1,0 0,2 -1,0 0,2 -1,0 0,1 -1,0 0,2 -1,0 0,2 -1,0 0,2 -1,0 0,1 -1,0 0,2 -1,0 0,2 -1,0 0,2 -1,0 0,1 -1,0 0,2 -1,0 0,2 -1,0 0,1 -1,0 0,2 -1,0 0,2 -1,0 0,2 -1,0 0,1 -1,0 0,2 -1,0 0,2 -1,0 0,1 -1,0 0,2 -1,0 0,2 -1,0 0,2 -1,0 0,2 -1,0 0,1 -1,0 0,2 -1,0 0,2 -1,0 0,2 -1,0 0,1 -1,0 0,2 -1,0 0,2 -1,0 0,2 -1,0 0,1 -1,0 0,2 -1,0 0,2 -1,0 0,2 -1,0 0,2 -1,0 0,1 -1,0 0,2 -1,0 0,2 -1,0 0,2 -1,0 0,1 -1,0 0,2 -1,0 0,2 -1,0 0,2 -1,0 0,1 -1,0 0,2 -1,0 0,2 -1,0 0,2 -1,0 0,2 -1,0 0,1 -1,0 0,2 -1,0 0,2 -1,0 0,2 -1,0 0,1 -1,0 0,2 -1,0 0,2 -1,0 0,2 -1,0 0,1 -1,0 0,2 -1,0 0,2 -1,0 0,2 -1,0 0,2 -1,0 0,1 -1,0 0,2 -1,0 0,2 -1,0 0,2 -1,0 0,2 -1,0 0,2 -1,0 0,1 -1,0 0,2 -1,0 0,2 -1,0 0,2 -1,0 0,2 -1,0 0,1 -1,0 0,2 -1,0 0,2 -1,0 0,2 -1,0 0,2 -1,0 0,2 -1,0 0,1 -1,0 0,2 -1,0 0,2 -1,0 0,2 -1,0 0,2 -1,0 0,2 -1,0 0,1 -1,0 0,2 -1,0 0,2 -1,0 0,2 -1,0 0,2 -1,0 0,2 -1,0 0,1 -1,0 0,2 -1,0 0,2 -1,0 0,2 -1,0 0,2 -1,0 0,2 -1,0 0,1 -1,0 0,2 -1,0 0,2 -1,0 0,2 -1,0 0,2 -1,0 0,1 -1,0 0,4 1,0 0,2 1,0 0,2 1,0 0,2 1,0 0,2 1,0 0,1 1,0 0,2 1,0 0,2 1,0 0,2 1,0 0,2 1,0 0,1 1,0 0,2 1,0 0,2 1,0 0,2 1,0 0,2 1,0 0,1 1,0 0,2 1,0 0,2 1,0 0,2 1,0 0,2 1,0 0,1 1,0 0,2 1,0 0,2 1,0 0,2 1,0 0,2 1,0 0,1 1,0 0,2 1,0 0,2 1,0 0,2 1,0 0,2 1,0 0,1 1,0 0,2 1,0 0,2 1,0 0,2 1,0 0,2 1,0 0,1 1,0 0,2 1,0 0,2 1,0 0,2 1,0 0,2 1,0 0,1 1,0 0,2 1,0 0,2 1,0 0,2 1,0 0,1 1,0 0,2 1,0 0,2 1,0 0,2 1,0 0,1 1,0 0,2 1,0 0,2 1,0 0,2 1,0 0,1 1,0 0,2 1,0 0,2 1,0 0,2 1,0 0,1 1,0 0,2 1,0 0,2 1,0 0,2 1,0 0,1 1,0 0,2 1,0 0,2 1,0 0,2 1,0 0,1 1,0 0,2 1,0 0,2 1,0 0,2 1,0 0,1 1,0 0,2 1,0 0,2 1,0 0,2 1,0 0,1 1,0 0,2 1,0 0,2 1,0 0,2 1,0 0,1 1,0 0,2 1,0 0,2 1,0 0,2 1,0 0,1 1,0 0,2 1,0 0,2 1,0 0,2 1,0 0,1 1,0 0,2 1,0 0,2 1,0 0,2 1,0 0,1 1,0 0,2 1,0 0,2 1,0 0,2 1,0 0,1 1,0 0,2 1,0 0,2 1,0 0,1 1,0 0,2 1,0 0,2 1,0 0,1 1,0 0,2 1,0 0,2 1,0 0,2 1,0 0,1 1,0 0,2 1,0 0,2 1,0 0,1 1,0 0,2 1,0 0,2 1,0 0,1 1,0 0,2 1,0 0,2 1,0 0,2 1,0 0,1 1,0 0,2 1,0 0,2 1,0 0,1 1,0 0,2 1,0 0,2 1,0 0,1 1,0 0,2 1,0 0,2 1,0 0,2 1,0 0,1 1,0 0,2 1,0 0,2 1,0 0,1 1,0 0,2 1,0 0,2 1,0 0,1 1,0 0,2 1,0 0,2 1,0 0,2 1,0 0,1 1,0 0,2 1,0 0,2 1,0 0,1 1,0 0,2 1,0 0,1 1,0 0,2 1,0 0,2 1,0 0,1 1,0 0,2 1,0 0,2 1,0 0,1 1,0 0,2 1,0 0,2 1,0 0,1 1,0 0,2 1,0 0,2 1,0 0,1 1,0 0,2 1,0 0,2 1,0 0,1 1,0 0,2 1,0 0,2 1,0 0,1 1,0 0,2 1,0 0,2 1,0 0,1 1,0 0,2 1,0 0,2 1,0 0,1 1,0 0,2 1,0 0,1 1,0 0,2 1,0 0,2 1,0 0,1 1,0 0,2 1,0 0,2 1,0 0,1 1,0 0,2 1,0 0,2 1,0 0,1 1,0 0,2 1,0 0,2 1,0 0,1 1,0 0,2 1,0 0,1 18,0 0,1 62,0 0,1 158,0 0,-1 67,0 0,-1 48,0 0,-1 1,0 0,-1 1,0 0,-2 1,0 0,-2 1,0 0,-1 1,0 0,-2 1,0 0,-2 1,0 0,-1 1,0 0,-2 1,0 0,-2 1,0 0,-1 1,0 0,-2 1,0 0,-2 1,0 0,-1 1,0 0,-2 1,0 0,-2 1,0 0,-1 1,0 0,-2 1,0 0,-2 1,0 0,-2 1,0 0,-1 1,0 0,-2 1,0 0,-2 1,0 0,-1 1,0 0,-2 1,0 0,-2 1,0 0,-1 1,0 0,-2 1,0 0,-2 1,0 0,-2 1,0 0,-1 1,0 0,-2 1,0 0,-2 1,0 0,-1 1,0 0,-2 1,0 0,-2 1,0 0,-1 1,0 0,-2 1,0 0,-2 1,0 0,-2 1,0 0,-1 1,0 0,-2 1,0 0,-2 1,0 0,-1 1,0 0,-2 1,0 0,-2 1,0 0,-1 1,0 0,-2 1,0 0,-2 1,0 0,-2 1,0 0,-1 1,0 0,-2 1,0 0,-2 1,0 0,-1 1,0 0,-2 1,0 0,-2 1,0 0,-2 1,0 0,-1 1,0 0,-2 1,0 0,-2 1,0 0,-1 1,0 0,-2 1,0 0,-2 1,0 0,-1 1,0 0,-2 1,0 0,-2 1,0 0,-2 1,0 0,-1 1,0 0,-2 1,0 0,-2 1,0 0,-1 1,0 0,-2 1,0 0,-2 1,0 0,-1 1,0 0,-2 1,0 0,-2 1,0 0,-2 1,0 0,-1 1,0 0,-2 1,0 0,-2 1,0 0,-1 1,0 0,-2 1,0 0,-2 1,0 0,-1 1,0 0,-2 1,0 0,-2 1,0 0,-2 1,0 0,-1 1,0 0,-2 1,0 0,-2 1,0 0,-1 1,0 0,-2 1,0 0,-2 1,0 0,-2 1,0 0,-1 1,0 0,-2 1,0 0,-2 1,0 0,-2 1,0 0,-1 1,0 0,-2 1,0 0,-2 1,0 0,-2 1,0 0,-2 1,0 0,-1 1,0 0,-2 1,0 0,-2 1,0 0,-2 1,0 0,-2 1,0 0,-1 1,0 0,-2 1,0 0,-2 1,0 0,-2 1,0 0,-2 1,0 0,-1 1,0 0,-2 1,0 0,-2 1,0 0,-2 1,0 0,-1 1,0 0,-2 1,0 0,-2 1,0 0,-2 1,0 0,-2 1,0 0,-1 1,0 0,-2 1,0 0,-2 1,0 0,-2 1,0 0,-2 1,0 0,-1 1,0 0,-2 1,0 0,-2 1,0 0,-2 1,0 0,-1 1,0 0,-2 1,0 0,-2 1,0 0,-2 1,0 0,-2 1,0 0,-1 1,0 0,-2 1,0 0,-2 1,0 0,-2 1,0 0,-2 1,0 0,-1 1,0 0,-2 1,0 0,-2 1,0 0,-2 1,0 0,-2 1,0 0,-1 1,0 0,-2 1,0 0,-2 1,0 0,-2 1,0 0,-1 1,0 0,-2 1,0 0,-2 1,0 0,-2 1,0 0,-2 1,0 0,-1 1,0 0,-2 1,0 0,-2 1,0 0,-2 1,0 0,-2 1,0 0,-1 1,0 0,-2 1,0 0,-2 1,0 0,-2 1,0 0,-2 1,0 0,-1 1,0 0,-2 1,0 0,-2 1,0 0,-2 1,0 0,-1 1,0 0,-2 1,0 0,-2 1,0 0,-2 1,0 0,-2 1,0 0,-2 1,0 0,-1 1,0 0,-3 -1,0 0,-2 -1,0 0,-2 -1,0 0,-2 -1,0 0,-2 -1,0 0,-1 -1,0 0,-2 -1,0 0,-2 -1,0 0,-2 -1,0 0,-2 -1,0 0,-1 -1,0 0,-2 -1,0 0,-2 -1,0 0,-2 -1,0 0,-2 -1,0 0,-1 -1,0 0,-2 -1,0 0,-2 -1,0 0,-2 -1,0 0,-2 -1,0 0,-1 -1,0 0,-2 -1,0 0,-2 -1,0 0,-2 -1,0 0,-2 -1,0 0,-1 -1,0 0,-2 -1,0 0,-2 -1,0 0,-2 -1,0 0,-2 -1,0 0,-1 -1,0 0,-2 -1,0 0,-2 -1,0 0,-2 -1,0 0,-1 -1,0 0,-2 -1,0 0,-2 -1,0 0,-2 -1,0 0,-2 -1,0 0,-1 -1,0 0,-2 -1,0 0,-2 -1,0 0,-2 -1,0 0,-1 -1,0 0,-2 -1,0 0,-2 -1,0 0,-2 -1,0 0,-1 -1,0 0,-2 -1,0 0,-2 -1,0 0,-2 -1,0 0,-1 -1,0 0,-2 -1,0 0,-2 -1,0 0,-2 -1,0 0,-1 -1,0 0,-2 -1,0 0,-2 -1,0 0,-2 -1,0 0,-1 -1,0 0,-2 -1,0 0,-2 -1,0 0,-2 -1,0 0,-1 -1,0 0,-2 -1,0 0,-2 -1,0 0,-2 -1,0 0,-1 -1,0 0,-2 -1,0 0,-2 -1,0 0,-2 -1,0 0,-1 -1,0 0,-2 -1,0 0,-2 -1,0 0,-1 -1,0 0,-2 -1,0 0,-2 -1,0 0,-2 -1,0 0,-1 -1,0 0,-2 -1,0 0,-2 -1,0 0,-2 -1,0 0,-1 -1,0 0,-2 -1,0 0,-2 -1,0 0,-2 -1,0 0,-1 -1,0 0,-2 -1,0 0,-2 -1,0 0,-2 -1,0 0,-1 -1,0 0,-2 -1,0 0,-2 -1,0 0,-1 -1,0 0,-2 -1,0 0,-2 -1,0 0,-1 -1,0 0,-2 -1,0 0,-2 -1,0 0,-2 -1,0 0,-1 -1,0 0,-2 -1,0 0,-2 -1,0 0,-1 -1,0 0,-2 -1,0 0,-2 -1,0 0,-1 -1,0 0,-2 -1,0 0,-2 -1,0 0,-2 -1,0 0,-1 -1,0 0,-2 -1,0 0,-2 -1,0 0,-1 -1,0 0,-2 -1,0 0,-2 -1,0 0,-1 -1,0 0,-2 -1,0 0,-2 -1,0 0,-1 -1,0 0,-2 -1,0 0,-2 -1,0 0,-2 -1,0 0,-1 -1,0 0,-2 -1,0 0,-2 -1,0 0,-1 -1,0 0,-2 -1,0 0,-2 -1,0 0,-1 -1,0 0,-2 -1,0 0,-2 -1,0 0,-2 -1,0 0,-1 -1,0 0,-2 -1,0 0,-2 -1,0 0,-1 -1,0 0,-2 -1,0 0,-2 -1,0 0,-1 -1,0 0,-2 -1,0 0,-2 -1,0 0,-1 -1,0 0,-2 -1,0 0,-2 -1,0 0,-1 -1,0 0,-2 -1,0 0,-2 -1,0 0,-1 -1,0 0,-2 -1,0 0,-2 -1,0 0,-1 -1,0 0,-2 -1,0 0,-2 -1,0 0,-1 -1,0 0,-2 -1,0 0,-1 -1,0 0,-2 -1,0 0,-2 -1,0 0,-1 -1,0 0,-2 -1,0 0,-2 -1,0 0,-1 -1,0 0,-2 -1,0 0,-2 -1,0 0,-1 -1,0 0,-2 -1,0 0,-2 -1,0 0,-1 -1,0 0,-2 -1,0 0,-1 -1,0 0,-2 -1,0 0,-2 -1,0 0,-1 -1,0 0,-2 -1,0 0,-2 -1,0 0,-1 -1,0 0,-2 -13,0 0,-1 -73,0 0,-1 -116,0 z m 695,341 0,1 -257,0 0,2 -1,0 0,2 -1,0 0,2 -1,0 0,1 -1,0 0,2 -1,0 0,2 -1,0 0,2 -1,0 0,2 -1,0 0,1 -1,0 0,2 -1,0 0,2 -1,0 0,2 -1,0 0,2 -1,0 0,1 -1,0 0,2 -1,0 0,2 -1,0 0,2 -1,0 0,2 -1,0 0,1 -1,0 0,2 -1,0 0,2 -1,0 0,2 -1,0 0,2 -1,0 0,1 -1,0 0,2 -1,0 0,2 -1,0 0,2 -1,0 0,2 -1,0 0,1 -1,0 0,2 -1,0 0,2 -1,0 0,2 -1,0 0,2 -1,0 0,1 -1,0 0,2 -1,0 0,2 -1,0 0,2 -1,0 0,2 -1,0 0,1 -1,0 0,2 -1,0 0,2 -1,0 0,2 -1,0 0,2 -1,0 0,1 -1,0 0,2 -1,0 0,2 -1,0 0,2 -1,0 0,2 -1,0 0,1 -1,0 0,2 -1,0 0,2 -1,0 0,2 -1,0 0,2 -1,0 0,1 -1,0 0,2 -1,0 0,2 -1,0 0,2 -1,0 0,2 -1,0 0,1 -1,0 0,2 -1,0 0,2 -1,0 0,2 -1,0 0,2 -1,0 0,1 -1,0 0,2 -1,0 0,2 -1,0 0,2 -1,0 0,2 -1,0 0,1 -1,0 0,2 -1,0 0,2 -1,0 0,1 -1,0 0,2 -1,0 0,2 -1,0 0,2 -1,0 0,1 -1,0 0,2 -1,0 0,2 -1,0 0,1 -1,0 0,2 -1,0 0,2 -1,0 0,2 -1,0 0,1 -1,0 0,2 -1,0 0,2 -1,0 0,2 -1,0 0,1 -1,0 0,2 -1,0 0,2 -1,0 0,1 -1,0 0,2 -1,0 0,2 -1,0 0,2 -1,0 0,1 -1,0 0,2 -1,0 0,2 -1,0 0,1 -1,0 0,2 -1,0 0,2 -1,0 0,2 -1,0 0,1 -1,0 0,2 -1,0 0,2 -1,0 0,2 -1,0 0,1 -1,0 0,2 -1,0 0,2 -1,0 0,1 -1,0 0,2 -1,0 0,2 -1,0 0,2 -1,0 0,1 -1,0 0,2 -1,0 0,2 -1,0 0,2 -1,0 0,1 -1,0 0,2 -1,0 0,2 -1,0 0,1 -1,0 0,2 -1,0 0,2 -1,0 0,2 -1,0 0,1 -1,0 0,2 -1,0 0,2 -1,0 0,1 -1,0 0,2 -1,0 0,2 -1,0 0,2 -1,0 0,1 -1,0 0,2 -1,0 0,2 -1,0 0,2 -1,0 0,1 -1,0 0,2 -1,0 0,2 -1,0 0,1 -1,0 0,2 -1,0 0,2 -1,0 0,1 -1,0 0,2 -1,0 0,2 -1,0 0,1 -1,0 0,2 -1,0 0,2 -1,0 0,1 -1,0 0,2 -1,0 0,2 -1,0 0,1 -1,0 0,2 -1,0 0,2 -1,0 0,1 -1,0 0,2 -1,0 0,2 -1,0 0,1 -1,0 0,2 -1,0 0,2 -1,0 0,1 -1,0 0,2 -1,0 0,2 -1,0 0,1 -1,0 0,2 -1,0 0,2 -1,0 0,1 -1,0 0,2 -1,0 0,2 -1,0 0,1 -1,0 0,2 -1,0 0,2 -1,0 0,1 -1,0 0,2 -1,0 0,2 -1,0 0,1 -1,0 0,2 -1,0 0,2 -1,0 0,3 1,0 0,2 1,0 0,2 1,0 0,1 1,0 0,2 1,0 0,2 1,0 0,1 1,0 0,2 1,0 0,2 1,0 0,2 1,0 0,1 1,0 0,2 1,0 0,2 1,0 0,1 1,0 0,2 1,0 0,2 1,0 0,2 1,0 0,1 1,0 0,2 1,0 0,2 1,0 0,1 1,0 0,2 1,0 0,2 1,0 0,2 1,0 0,1 1,0 0,2 1,0 0,2 1,0 0,1 1,0 0,2 1,0 0,2 1,0 0,2 1,0 0,1 1,0 0,2 1,0 0,2 1,0 0,1 1,0 0,2 1,0 0,2 1,0 0,2 1,0 0,1 1,0 0,2 1,0 0,2 1,0 0,1 1,0 0,2 1,0 0,2 1,0 0,2 1,0 0,1 1,0 0,2 1,0 0,2 1,0 0,1 1,0 0,2 1,0 0,2 1,0 0,1 1,0 0,2 1,0 0,2 1,0 0,2 1,0 0,1 1,0 0,2 1,0 0,2 1,0 0,1 1,0 0,2 1,0 0,2 1,0 0,2 1,0 0,1 1,0 0,2 1,0 0,2 1,0 0,2 1,0 0,1 1,0 0,2 1,0 0,2 1,0 0,1 1,0 0,2 1,0 0,2 1,0 0,2 1,0 0,1 1,0 0,2 1,0 0,2 1,0 0,1 1,0 0,2 1,0 0,2 1,0 0,2 1,0 0,1 1,0 0,2 1,0 0,2 1,0 0,1 1,0 0,2 1,0 0,2 1,0 0,2 1,0 0,1 1,0 0,2 1,0 0,2 1,0 0,1 1,0 0,2 1,0 0,2 1,0 0,2 1,0 0,1 1,0 0,2 1,0 0,2 1,0 0,1 1,0 0,2 1,0 0,2 1,0 0,2 1,0 0,1 1,0 0,2 1,0 0,2 1,0 0,1 1,0 0,2 1,0 0,2 1,0 0,2 1,0 0,1 1,0 0,2 1,0 0,2 1,0 0,1 1,0 0,2 1,0 0,2 1,0 0,2 1,0 0,1 1,0 0,2 1,0 0,2 1,0 0,1 1,0 0,2 1,0 0,2 1,0 0,2 1,0 0,1 1,0 0,2 1,0 0,2 1,0 0,1 1,0 0,2 1,0 0,2 1,0 0,2 1,0 0,1 1,0 0,2 1,0 0,2 1,0 0,1 1,0 0,2 1,0 0,2 1,0 0,2 1,0 0,1 1,0 0,2 1,0 0,2 1,0 0,1 1,0 0,2 1,0 0,2 1,0 0,2 9,0 0,-1 8,0 0,-1 8,0 0,-1 8,0 0,-1 8,0 0,-1 8,0 0,-1 8,0 0,-1 8,0 0,-1 7,0 0,-1 7,0 0,-1 7,0 0,-1 6,0 0,-1 7,0 0,-1 6,0 0,-1 7,0 0,-1 7,0 0,-1 6,0 0,-1 7,0 0,-1 6,0 0,-1 6,0 0,-1 5,0 0,-1 6,0 0,-1 6,0 0,-1 5,0 0,-1 6,0 0,-1 5,0 0,-1 6,0 0,-1 6,0 0,-1 5,0 0,-1 6,0 0,-1 5,0 0,-1 5,0 0,-1 5,0 0,-1 4,0 0,-1 5,0 0,-1 5,0 0,-1 5,0 0,-1 4,0 0,-1 5,0 0,-1 5,0 0,-1 5,0 0,-1 5,0 0,-1 4,0 0,-1 3,0 0,-1 1,0 0,-1 1,0 0,-2 1,0 0,-1 1,0 0,-2 1,0 0,-2 1,0 0,-1 1,0 0,-2 1,0 0,-1 1,0 0,-2 1,0 0,-1 1,0 0,-2 1,0 0,-1 1,0 0,-2 1,0 0,-2 1,0 0,-1 1,0 0,-2 1,0 0,-1 1,0 0,-2 1,0 0,-1 1,0 0,-2 1,0 0,-2 1,0 0,-1 1,0 0,-2 1,0 0,-1 1,0 0,-2 1,0 0,-1 1,0 0,-2 1,0 0,-1 1,0 0,-2 1,0 0,-2 1,0 0,-1 1,0 0,-2 1,0 0,-1 1,0 0,-2 1,0 0,-1 1,0 0,-2 1,0 0,-1 1,0 0,-2 1,0 0,-2 1,0 0,-1 1,0 0,-2 1,0 0,-1 1,0 0,-2 1,0 0,-2 1,0 0,-1 1,0 0,-2 1,0 0,-2 1,0 0,-2 1,0 0,-1 1,0 0,-2 1,0 0,-2 1,0 0,-1 1,0 0,-2 1,0 0,-2 1,0 0,-1 1,0 0,-2 1,0 0,-2 1,0 0,-1 1,0 0,-2 1,0 0,-2 1,0 0,-1 1,0 0,-2 1,0 0,-2 1,0 0,-1 1,0 0,-2 1,0 0,-2 1,0 0,-1 1,0 0,-2 1,0 0,-2 1,0 0,-1 1,0 0,-2 1,0 0,-2 1,0 0,-1 1,0 0,-2 1,0 0,-2 1,0 0,-1 1,0 0,-2 1,0 0,-2 1,0 0,-1 1,0 0,-2 1,0 0,-2 1,0 0,-2 1,0 0,-2 1,0 0,-1 1,0 0,-2 1,0 0,-2 1,0 0,-2 1,0 0,-2 1,0 0,-1 1,0 0,-2 1,0 0,-2 1,0 0,-2 1,0 0,-2 1,0 0,-2 1,0 0,-1 1,0 0,-2 1,0 0,-2 1,0 0,-2 1,0 0,-2 1,0 0,-1 1,0 0,-2 1,0 0,-2 1,0 0,-2 1,0 0,-2 1,0 0,-1 1,0 0,-2 1,0 0,-2 1,0 0,-2 1,0 0,-2 1,0 0,-1 1,0 0,-2 1,0 0,-2 1,0 0,-2 1,0 0,-2 1,0 0,-1 1,0 0,-2 1,0 0,-2 1,0 0,-2 1,0 0,-2 1,0 0,-2 1,0 0,-2 1,0 0,-2 1,0 0,-2 1,0 0,-2 1,0 0,-2 1,0 0,-2 1,0 0,-2 1,0 0,-2 1,0 0,-2 1,0 0,-1 1,0 0,-2 1,0 0,-2 1,0 0,-2 1,0 0,-2 1,0 0,-2 1,0 0,-2 1,0 0,-2 1,0 0,-2 1,0 0,-2 1,0 0,-2 1,0 0,-2 1,0 0,-2 1,0 0,-2 1,0 0,-2 1,0 0,-2 1,0 0,-2 1,0 0,-1 1,0 0,-2 1,0 0,-6 -1,0 0,-3 -1,0 0,-3 -1,0 0,-3 -1,0 0,-3 -1,0 0,-3 -1,0 0,-3 -1,0 0,-3 -1,0 0,-3 -1,0 0,-3 -1,0 0,-3 -1,0 0,-3 -1,0 0,-3 -1,0 0,-3 -1,0 0,-3 -1,0 0,-3 -1,0 0,-3 -1,0 0,-3 -1,0 0,-3 -1,0 0,-3 -1,0 0,-2 -1,0 0,-3 -1,0 0,-3 -1,0 0,-3 -1,0 0,-2 -1,0 0,-3 -1,0 0,-3 -1,0 0,-2 -1,0 0,-3 -1,0 0,-3 -1,0 0,-3 -1,0 0,-2 -1,0 0,-3 -1,0 0,-3 -1,0 0,-2 -1,0 0,-3 -1,0 0,-3 -1,0 0,-3 -1,0 0,-2 -1,0 0,-3 -1,0 0,-3 -1,0 0,-2 -1,0 0,-3 -1,0 0,-3 -1,0 0,-2 -1,0 0,-3 -1,0 0,-2 -1,0 0,-3 -1,0 0,-2 -1,0 0,-3 -1,0 0,-2 -1,0 0,-3 -1,0 0,-2 -1,0 0,-3 -1,0 0,-2 -1,0 0,-3 -1,0 0,-2 -1,0 0,-3 -1,0 0,-2 -1,0 0,-3 -1,0 0,-2 -1,0 0,-3 -1,0 0,-2 -1,0 0,-3 -1,0 0,-2 -1,0 0,-3 -1,0 0,-2 -1,0 0,-3 -1,0 0,-2 -1,0 0,-2 -1,0 0,-3 -1,0 0,-2 -1,0 0,-2 -1,0 0,-3 -1,0 0,-2 -1,0 0,-2 -1,0 0,-3 -1,0 0,-2 -1,0 0,-2 -1,0 0,-3 -1,0 0,-2 -1,0 0,-3 -1,0 0,-2 -1,0 0,-2 -1,0 0,-3 -1,0 0,-2 -1,0 0,-2 -1,0 0,-3 -1,0 0,-2 -1,0 0,-2 -1,0 0,-3 -1,0 0,-2 -1,0 0,-2 -1,0 0,-3 -1,0 0,-2 -1,0 0,-2 -29,0 z m -1094,2 0,1 -269,0 0,1 -1,0 0,2 -1,0 0,3 -1,0 0,2 -1,0 0,2 -1,0 0,3 -1,0 0,2 -1,0 0,3 -1,0 0,2 -1,0 0,2 -1,0 0,3 -1,0 0,2 -1,0 0,3 -1,0 0,2 -1,0 0,2 -1,0 0,3 -1,0 0,2 -1,0 0,3 -1,0 0,2 -1,0 0,2 -1,0 0,3 -1,0 0,2 -1,0 0,3 -1,0 0,2 -1,0 0,3 -1,0 0,2 -1,0 0,2 -1,0 0,3 -1,0 0,2 -1,0 0,3 -1,0 0,3 -1,0 0,2 -1,0 0,3 -1,0 0,2 -1,0 0,3 -1,0 0,2 -1,0 0,3 -1,0 0,3 -1,0 0,2 -1,0 0,3 -1,0 0,2 -1,0 0,3 -1,0 0,3 -1,0 0,2 -1,0 0,3 -1,0 0,2 -1,0 0,3 -1,0 0,2 -1,0 0,3 -1,0 0,3 -1,0 0,2 -1,0 0,3 -1,0 0,3 -1,0 0,2 -1,0 0,3 -1,0 0,3 -1,0 0,3 -1,0 0,3 -1,0 0,2 -1,0 0,3 -1,0 0,3 -1,0 0,3 -1,0 0,3 -1,0 0,2 -1,0 0,3 -1,0 0,3 -1,0 0,3 -1,0 0,3 -1,0 0,2 -1,0 0,3 -1,0 0,3 -1,0 0,3 -1,0 0,3 -1,0 0,2 -1,0 0,4 -1,0 0,3 -1,0 0,3 -1,0 0,3 -1,0 0,3 -1,0 0,3 -1,0 0,3 -1,0 0,3 -1,0 0,3 -1,0 0,3 -1,0 0,3 -1,0 0,3 -1,0 0,4 -1,0 0,3 -1,0 0,3 -1,0 0,3 -1,0 0,3 -1,0 0,3 -1,0 0,3 -1,0 0,2 1,0 0,2 1,0 0,2 1,0 0,2 1,0 0,2 1,0 0,2 1,0 0,2 1,0 0,2 1,0 0,2 1,0 0,2 1,0 0,1 1,0 0,2 1,0 0,2 1,0 0,2 1,0 0,2 1,0 0,2 1,0 0,2 1,0 0,2 1,0 0,2 1,0 0,2 1,0 0,2 1,0 0,2 1,0 0,2 1,0 0,2 1,0 0,2 1,0 0,2 1,0 0,2 1,0 0,1 1,0 0,2 1,0 0,2 1,0 0,2 1,0 0,2 1,0 0,2 1,0 0,2 1,0 0,2 1,0 0,2 1,0 0,2 1,0 0,1 1,0 0,2 1,0 0,2 1,0 0,2 1,0 0,2 1,0 0,1 1,0 0,2 1,0 0,2 1,0 0,2 1,0 0,2 1,0 0,1 1,0 0,2 1,0 0,2 1,0 0,2 1,0 0,2 1,0 0,1 1,0 0,2 1,0 0,2 1,0 0,2 1,0 0,1 1,0 0,2 1,0 0,2 1,0 0,2 1,0 0,2 1,0 0,1 1,0 0,2 1,0 0,2 1,0 0,2 1,0 0,2 1,0 0,1 1,0 0,2 1,0 0,2 1,0 0,2 1,0 0,2 1,0 0,1 1,0 0,2 1,0 0,2 1,0 0,1 1,0 0,2 1,0 0,2 1,0 0,1 1,0 0,2 1,0 0,2 1,0 0,1 1,0 0,2 1,0 0,2 1,0 0,1 1,0 0,2 1,0 0,2 1,0 0,1 1,0 0,2 1,0 0,2 1,0 0,1 1,0 0,2 1,0 0,2 1,0 0,1 1,0 0,2 1,0 0,2 1,0 0,1 1,0 0,2 1,0 0,2 1,0 0,1 1,0 0,2 1,0 0,2 1,0 0,1 1,0 0,2 1,0 0,2 1,0 0,1 1,0 0,2 1,0 0,2 1,0 0,1 1,0 0,2 1,0 0,2 1,0 0,1 1,0 0,2 1,0 0,1 1,0 0,2 1,0 0,1 1,0 0,2 1,0 0,1 1,0 0,2 1,0 0,1 1,0 0,2 1,0 0,2 1,0 0,1 1,0 0,2 1,0 0,1 1,0 0,2 1,0 0,1 1,0 0,2 1,0 0,1 1,0 0,2 1,0 0,1 1,0 0,2 1,0 0,2 1,0 0,1 1,0 0,2 1,0 0,1 1,0 0,2 1,0 0,1 1,0 0,2 1,0 0,1 1,0 0,2 1,0 0,2 1,0 0,1 1,0 0,2 1,0 0,1 1,0 0,2 1,0 0,1 1,0 0,2 1,0 0,1 1,0 0,2 1,0 0,1 1,0 0,1 3,0 0,1 5,0 0,1 5,0 0,1 4,0 0,1 5,0 0,1 5,0 0,1 5,0 0,1 5,0 0,1 4,0 0,1 5,0 0,1 5,0 0,1 5,0 0,1 5,0 0,1 5,0 0,1 6,0 0,1 5,0 0,1 6,0 0,1 6,0 0,1 5,0 0,1 6,0 0,1 6,0 0,1 5,0 0,1 6,0 0,1 5,0 0,1 7,0 0,1 6,0 0,1 7,0 0,1 7,0 0,1 7,0 0,1 6,0 0,1 7,0 0,1 7,0 0,1 6,0 0,1 7,0 0,1 8,0 0,1 8,0 0,1 8,0 0,1 8,0 0,1 8,0 0,1 8,0 0,1 8,0 0,1 8,0 0,1 9,0 0,-1 1,0 0,-1 1,0 0,-2 1,0 0,-2 1,0 0,-2 1,0 0,-1 1,0 0,-2 1,0 0,-2 1,0 0,-2 1,0 0,-2 1,0 0,-1 1,0 0,-2 1,0 0,-2 1,0 0,-2 1,0 0,-1 1,0 0,-2 1,0 0,-2 1,0 0,-2 1,0 0,-1 1,0 0,-2 1,0 0,-2 1,0 0,-2 1,0 0,-1 1,0 0,-2 1,0 0,-2 1,0 0,-2 1,0 0,-1 1,0 0,-2 1,0 0,-2 1,0 0,-2 1,0 0,-1 1,0 0,-2 1,0 0,-2 1,0 0,-2 1,0 0,-1 1,0 0,-2 1,0 0,-2 1,0 0,-2 1,0 0,-1 1,0 0,-2 1,0 0,-2 1,0 0,-2 1,0 0,-1 1,0 0,-2 1,0 0,-2 1,0 0,-2 1,0 0,-1 1,0 0,-2 1,0 0,-2 1,0 0,-2 1,0 0,-1 1,0 0,-2 1,0 0,-2 1,0 0,-2 1,0 0,-1 1,0 0,-2 1,0 0,-2 1,0 0,-2 1,0 0,-1 1,0 0,-2 1,0 0,-2 1,0 0,-2 1,0 0,-1 1,0 0,-2 1,0 0,-2 1,0 0,-2 1,0 0,-1 1,0 0,-2 1,0 0,-2 1,0 0,-2 1,0 0,-1 1,0 0,-2 1,0 0,-2 1,0 0,-2 1,0 0,-1 1,0 0,-2 1,0 0,-2 1,0 0,-2 1,0 0,-1 1,0 0,-2 1,0 0,-2 1,0 0,-2 1,0 0,-1 1,0 0,-2 1,0 0,-2 1,0 0,-2 1,0 0,-1 1,0 0,-2 1,0 0,-2 1,0 0,-2 1,0 0,-1 1,0 0,-2 1,0 0,-2 1,0 0,-2 1,0 0,-1 1,0 0,-2 1,0 0,-2 1,0 0,-2 1,0 0,-1 1,0 0,-2 1,0 0,-2 1,0 0,-2 1,0 0,-1 1,0 0,-2 1,0 0,-2 1,0 0,-2 1,0 0,-1 1,0 0,-2 1,0 0,-2 1,0 0,-2 1,0 0,-1 1,0 0,-2 1,0 0,-2 1,0 0,-2 1,0 0,-1 1,0 0,-2 1,0 0,-2 1,0 0,-2 1,0 0,-1 1,0 0,-2 1,0 0,-2 1,0 0,-2 1,0 0,-1 1,0 0,-2 1,0 0,-2 1,0 0,-2 1,0 0,-1 1,0 0,-2 1,0 0,-2 1,0 0,-2 1,0 0,-1 1,0 0,-2 1,0 0,-2 1,0 0,-2 1,0 0,-1 1,0 0,-2 1,0 0,-2 1,0 0,-2 1,0 0,-1 1,0 0,-2 -1,0 0,-2 -1,0 0,-2 -1,0 0,-1 -1,0 0,-2 -1,0 0,-1 -1,0 0,-2 -1,0 0,-2 -1,0 0,-1 -1,0 0,-2 -1,0 0,-2 -1,0 0,-1 -1,0 0,-2 -1,0 0,-2 -1,0 0,-1 -1,0 0,-2 -1,0 0,-2 -1,0 0,-1 -1,0 0,-2 -1,0 0,-2 -1,0 0,-1 -1,0 0,-2 -1,0 0,-2 -1,0 0,-1 -1,0 0,-2 -1,0 0,-2 -1,0 0,-1 -1,0 0,-2 -1,0 0,-1 -1,0 0,-2 -1,0 0,-2 -1,0 0,-1 -1,0 0,-2 -1,0 0,-2 -1,0 0,-1 -1,0 0,-2 -1,0 0,-2 -1,0 0,-1 -1,0 0,-2 -1,0 0,-2 -1,0 0,-1 -1,0 0,-2 -1,0 0,-2 -1,0 0,-1 -1,0 0,-2 -1,0 0,-2 -1,0 0,-1 -1,0 0,-2 -1,0 0,-2 -1,0 0,-1 -1,0 0,-2 -1,0 0,-2 -1,0 0,-1 -1,0 0,-2 -1,0 0,-2 -1,0 0,-2 -1,0 0,-1 -1,0 0,-2 -1,0 0,-2 -1,0 0,-1 -1,0 0,-2 -1,0 0,-2 -1,0 0,-1 -1,0 0,-2 -1,0 0,-2 -1,0 0,-2 -1,0 0,-1 -1,0 0,-2 -1,0 0,-2 -1,0 0,-1 -1,0 0,-2 -1,0 0,-2 -1,0 0,-1 -1,0 0,-2 -1,0 0,-2 -1,0 0,-2 -1,0 0,-1 -1,0 0,-2 -1,0 0,-2 -1,0 0,-1 -1,0 0,-2 -1,0 0,-2 -1,0 0,-1 -1,0 0,-2 -1,0 0,-2 -1,0 0,-2 -1,0 0,-1 -1,0 0,-2 -1,0 0,-2 -1,0 0,-1 -1,0 0,-2 -1,0 0,-2 -1,0 0,-2 -1,0 0,-1 -1,0 0,-2 -1,0 0,-2 -1,0 0,-2 -1,0 0,-1 -1,0 0,-2 -1,0 0,-2 -1,0 0,-2 -1,0 0,-1 -1,0 0,-2 -1,0 0,-2 -1,0 0,-2 -1,0 0,-1 -1,0 0,-2 -1,0 0,-2 -1,0 0,-2 -1,0 0,-1 -1,0 0,-2 -1,0 0,-2 -1,0 0,-2 -1,0 0,-1 -1,0 0,-2 -1,0 0,-2 -1,0 0,-2 -1,0 0,-1 -1,0 0,-2 -1,0 0,-2 -1,0 0,-2 -1,0 0,-1 -1,0 0,-2 -1,0 0,-2 -1,0 0,-2 -1,0 0,-1 -1,0 0,-2 -1,0 0,-2 -1,0 0,-2 -1,0 0,-1 -1,0 0,-2 -1,0 0,-2 -1,0 0,-2 -1,0 0,-1 -1,0 0,-2 -1,0 0,-2 -1,0 0,-2 -1,0 0,-2 -1,0 0,-1 -1,0 0,-2 -1,0 0,-2 -1,0 0,-2 -1,0 0,-2 -1,0 0,-1 -1,0 0,-2 -1,0 0,-2 -1,0 0,-2 -1,0 0,-2 -1,0 0,-1 -1,0 0,-2 -1,0 0,-2 -1,0 0,-2 -1,0 0,-2 -1,0 0,-1 -1,0 0,-2 -1,0 0,-2 -1,0 0,-2 -1,0 0,-2 -1,0 0,-1 -1,0 0,-2 -1,0 0,-2 -1,0 0,-2 -1,0 0,-2 -1,0 0,-1 -1,0 0,-2 -1,0 0,-2 -1,0 0,-2 -1,0 0,-2 -1,0 0,-1 -1,0 0,-2 -1,0 0,-2 -1,0 0,-2 -1,0 0,-2 -1,0 0,-1 -1,0 0,-2 -1,0 0,-2 -1,0 0,-2 -1,0 0,-2 -1,0 0,-1 -11,0 z m 249,341 0,1 -1,0 0,1 -1,0 0,2 -1,0 0,2 -1,0 0,2 -1,0 0,1 -1,0 0,2 -1,0 0,2 -1,0 0,2 -1,0 0,1 -1,0 0,2 -1,0 0,2 -1,0 0,2 -1,0 0,1 -1,0 0,2 -1,0 0,2 -1,0 0,2 -1,0 0,1 -1,0 0,2 -1,0 0,2 -1,0 0,2 -1,0 0,1 -1,0 0,2 -1,0 0,2 -1,0 0,2 -1,0 0,1 -1,0 0,2 -1,0 0,2 -1,0 0,2 -1,0 0,1 -1,0 0,2 -1,0 0,2 -1,0 0,2 -1,0 0,1 -1,0 0,2 -1,0 0,2 -1,0 0,2 -1,0 0,1 -1,0 0,2 -1,0 0,2 -1,0 0,2 -1,0 0,1 -1,0 0,2 -1,0 0,2 -1,0 0,2 -1,0 0,1 -1,0 0,2 -1,0 0,2 -1,0 0,2 -1,0 0,1 -1,0 0,2 -1,0 0,2 -1,0 0,2 -1,0 0,1 -1,0 0,2 -1,0 0,2 -1,0 0,2 -1,0 0,1 -1,0 0,2 -1,0 0,2 -1,0 0,2 -1,0 0,1 -1,0 0,2 -1,0 0,2 -1,0 0,2 -1,0 0,1 -1,0 0,2 -1,0 0,2 -1,0 0,2 -1,0 0,1 -1,0 0,2 -1,0 0,2 -1,0 0,2 -1,0 0,1 -1,0 0,2 -1,0 0,2 -1,0 0,2 -1,0 0,1 -1,0 0,2 -1,0 0,2 -1,0 0,2 -1,0 0,1 -1,0 0,2 -1,0 0,2 -1,0 0,2 -1,0 0,1 -1,0 0,2 -1,0 0,2 -1,0 0,2 -1,0 0,1 -1,0 0,2 -1,0 0,2 -1,0 0,2 -1,0 0,1 -1,0 0,2 -1,0 0,2 -1,0 0,2 -1,0 0,1 -1,0 0,2 -1,0 0,2 -1,0 0,2 -1,0 0,1 -1,0 0,2 -1,0 0,2 -1,0 0,2 -1,0 0,1 -1,0 0,2 -1,0 0,2 -1,0 0,2 -1,0 0,1 -1,0 0,2 -1,0 0,2 -1,0 0,2 -1,0 0,1 -1,0 0,2 -1,0 0,2 -1,0 0,2 -1,0 0,1 -1,0 0,2 -1,0 0,2 -1,0 0,2 -1,0 0,1 -1,0 0,2 -1,0 0,2 -1,0 0,2 -1,0 0,1 -1,0 0,2 -1,0 0,2 -1,0 0,2 -1,0 0,1 -1,0 0,2 -1,0 0,2 -1,0 0,2 -1,0 0,1 -1,0 0,2 -1,0 0,2 -1,0 0,2 -1,0 0,1 -1,0 0,2 -1,0 0,2 -1,0 0,2 1,0 0,1 1,0 0,2 1,0 0,1 1,0 0,1 1,0 0,1 1,0 0,2 1,0 0,1 1,0 0,1 1,0 0,2 1,0 0,1 1,0 0,1 1,0 0,2 1,0 0,1 1,0 0,1 1,0 0,2 1,0 0,1 1,0 0,1 1,0 0,2 1,0 0,1 1,0 0,1 1,0 0,2 1,0 0,1 1,0 0,1 1,0 0,2 1,0 0,1 1,0 0,1 1,0 0,1 1,0 0,2 1,0 0,1 1,0 0,1 1,0 0,2 1,0 0,1 1,0 0,1 1,0 0,2 1,0 0,1 1,0 0,1 1,0 0,2 1,0 0,1 1,0 0,1 1,0 0,1 1,0 0,2 1,0 0,1 1,0 0,1 1,0 0,1 1,0 0,2 1,0 0,1 1,0 0,1 1,0 0,2 1,0 0,1 1,0 0,1 1,0 0,1 1,0 0,2 1,0 0,1 1,0 0,1 1,0 0,1 1,0 0,2 1,0 0,1 1,0 0,1 1,0 0,1 1,0 0,2 1,0 0,1 1,0 0,1 1,0 0,1 1,0 0,2 1,0 0,1 1,0 0,1 1,0 0,2 1,0 0,1 1,0 0,1 1,0 0,1 1,0 0,2 1,0 0,1 1,0 0,1 1,0 0,1 1,0 0,2 1,0 0,1 1,0 0,1 1,0 0,1 1,0 0,1 1,0 0,2 1,0 0,1 1,0 0,1 1,0 0,1 1,0 0,1 1,0 0,2 1,0 0,1 1,0 0,1 1,0 0,1 1,0 0,1 1,0 0,2 1,0 0,1 1,0 0,1 1,0 0,1 1,0 0,1 1,0 0,2 1,0 0,1 1,0 0,1 1,0 0,1 1,0 0,2 1,0 0,1 1,0 0,1 1,0 0,1 1,0 0,1 1,0 0,2 1,0 0,1 1,0 0,1 1,0 0,1 1,0 0,1 1,0 0,2 1,0 0,1 1,0 0,1 1,0 0,1 1,0 0,1 1,0 0,1 1,0 0,2 1,0 0,1 1,0 0,1 1,0 0,1 1,0 0,1 1,0 0,1 1,0 0,1 1,0 0,2 1,0 0,1 1,0 0,1 1,0 0,1 1,0 0,1 1,0 0,1 1,0 0,1 1,0 0,2 1,0 0,1 1,0 0,1 1,0 0,1 1,0 0,1 1,0 0,1 1,0 0,2 1,0 0,1 1,0 0,1 1,0 0,1 1,0 0,1 1,0 0,1 1,0 0,1 1,0 0,2 1,0 0,1 1,0 0,1 1,0 0,1 1,0 0,1 1,0 0,1 1,0 0,1 1,0 0,1 1,0 0,2 1,0 0,1 1,0 0,1 1,0 0,1 1,0 0,1 1,0 0,1 1,0 0,1 1,0 0,1 1,0 0,1 1,0 0,1 1,0 0,2 1,0 0,1 1,0 0,1 1,0 0,1 1,0 0,1 1,0 0,1 1,0 0,1 1,0 0,1 1,0 0,1 1,0 0,1 8,0 0,1 21,0 0,1 21,0 0,1 22,0 0,1 156,0 0,-1 21,0 0,-1 22,0 0,-1 21,0 0,-1 9,0 0,-2 1,0 0,-1 1,0 0,-1 1,0 0,-1 1,0 0,-1 1,0 0,-1 1,0 0,-1 1,0 0,-2 1,0 0,-1 1,0 0,-1 1,0 0,-1 1,0 0,-1 1,0 0,-1 1,0 0,-1 1,0 0,-1 1,0 0,-2 1,0 0,-1 1,0 0,-1 1,0 0,-1 1,0 0,-1 1,0 0,-1 1,0 0,-1 1,0 0,-2 1,0 0,-1 1,0 0,-1 1,0 0,-1 1,0 0,-1 1,0 0,-1 1,0 0,-1 1,0 0,-1 1,0 0,-2 1,0 0,-1 1,0 0,-1 1,0 0,-1 1,0 0,-1 1,0 0,-1 1,0 0,-1 1,0 0,-1 1,0 0,-2 1,0 0,-1 1,0 0,-1 1,0 0,-1 1,0 0,-1 1,0 0,-1 1,0 0,-2 1,0 0,-1 1,0 0,-1 1,0 0,-1 1,0 0,-1 1,0 0,-2 1,0 0,-1 1,0 0,-1 1,0 0,-1 1,0 0,-1 1,0 0,-2 1,0 0,-1 1,0 0,-1 1,0 0,-1 1,0 0,-1 1,0 0,-2 1,0 0,-1 1,0 0,-1 1,0 0,-1 1,0 0,-1 1,0 0,-2 1,0 0,-1 1,0 0,-1 1,0 0,-1 1,0 0,-1 1,0 0,-2 1,0 0,-1 1,0 0,-1 1,0 0,-1 1,0 0,-1 1,0 0,-2 1,0 0,-1 1,0 0,-1 1,0 0,-1 1,0 0,-1 1,0 0,-2 1,0 0,-1 1,0 0,-1 1,0 0,-1 1,0 0,-1 1,0 0,-2 1,0 0,-1 1,0 0,-1 1,0 0,-1 1,0 0,-2 1,0 0,-1 1,0 0,-1 1,0 0,-2 1,0 0,-1 1,0 0,-1 1,0 0,-1 1,0 0,-2 1,0 0,-1 1,0 0,-1 1,0 0,-1 1,0 0,-2 1,0 0,-1 1,0 0,-1 1,0 0,-1 1,0 0,-2 1,0 0,-1 1,0 0,-1 1,0 0,-1 1,0 0,-2 1,0 0,-1 1,0 0,-1 1,0 0,-2 1,0 0,-1 1,0 0,-1 1,0 0,-1 1,0 0,-2 1,0 0,-1 1,0 0,-1 1,0 0,-1 1,0 0,-2 1,0 0,-1 1,0 0,-1 1,0 0,-1 1,0 0,-2 1,0 0,-1 1,0 0,-1 1,0 0,-2 1,0 0,-1 1,0 0,-1 1,0 0,-2 1,0 0,-1 1,0 0,-1 1,0 0,-2 1,0 0,-1 1,0 0,-1 1,0 0,-2 1,0 0,-1 1,0 0,-1 1,0 0,-1 1,0 0,-2 1,0 0,-1 1,0 0,-1 1,0 0,-2 1,0 0,-1 1,0 0,-1 1,0 0,-2 1,0 0,-1 1,0 0,-1 1,0 0,-2 1,0 0,-1 1,0 0,-1 1,0 0,-2 1,0 0,-1 1,0 0,-1 1,0 0,-2 1,0 0,-1 1,0 0,-1 1,0 0,-2 1,0 0,-1 1,0 0,-1 1,0 0,-2 1,0 0,-1 1,0 0,-1 1,0 0,-2 1,0 0,-1 1,0 0,-1 1,0 0,-2 1,0 0,-2 -1,0 0,-2 -1,0 0,-2 -1,0 0,-1 -1,0 0,-2 -1,0 0,-2 -1,0 0,-2 -1,0 0,-1 -1,0 0,-2 -1,0 0,-2 -1,0 0,-1 -1,0 0,-2 -1,0 0,-2 -1,0 0,-1 -1,0 0,-2 -1,0 0,-2 -1,0 0,-2 -1,0 0,-1 -1,0 0,-2 -1,0 0,-2 -1,0 0,-1 -1,0 0,-2 -1,0 0,-2 -1,0 0,-2 -1,0 0,-1 -1,0 0,-2 -1,0 0,-2 -1,0 0,-1 -1,0 0,-2 -1,0 0,-2 -1,0 0,-1 -1,0 0,-2 -1,0 0,-2 -1,0 0,-2 -1,0 0,-1 -1,0 0,-2 -1,0 0,-2 -1,0 0,-1 -1,0 0,-2 -1,0 0,-2 -1,0 0,-2 -1,0 0,-1 -1,0 0,-2 -1,0 0,-2 -1,0 0,-1 -1,0 0,-2 -1,0 0,-2 -1,0 0,-2 -1,0 0,-1 -1,0 0,-2 -1,0 0,-2 -1,0 0,-1 -1,0 0,-2 -1,0 0,-2 -1,0 0,-2 -1,0 0,-1 -1,0 0,-2 -1,0 0,-2 -1,0 0,-1 -1,0 0,-2 -1,0 0,-2 -1,0 0,-2 -1,0 0,-1 -1,0 0,-2 -1,0 0,-2 -1,0 0,-2 -1,0 0,-1 -1,0 0,-2 -1,0 0,-2 -1,0 0,-1 -1,0 0,-2 -1,0 0,-2 -1,0 0,-2 -1,0 0,-1 -1,0 0,-2 -1,0 0,-2 -1,0 0,-1 -1,0 0,-2 -1,0 0,-2 -1,0 0,-2 -1,0 0,-1 -1,0 0,-2 -1,0 0,-2 -1,0 0,-1 -1,0 0,-2 -1,0 0,-2 -1,0 0,-2 -1,0 0,-1 -1,0 0,-2 -1,0 0,-2 -1,0 0,-1 -1,0 0,-2 -1,0 0,-2 -1,0 0,-2 -1,0 0,-1 -1,0 0,-2 -1,0 0,-2 -1,0 0,-2 -1,0 0,-1 -1,0 0,-2 -1,0 0,-2 -1,0 0,-1 -1,0 0,-2 -1,0 0,-2 -1,0 0,-2 -1,0 0,-1 -1,0 0,-2 -1,0 0,-2 -1,0 0,-1 -1,0 0,-2 -1,0 0,-2 -1,0 0,-2 -1,0 0,-1 -1,0 0,-2 -1,0 0,-2 -1,0 0,-1 -1,0 0,-2 -1,0 0,-2 -1,0 0,-2 -1,0 0,-1 -1,0 0,-2 -1,0 0,-2 -1,0 0,-2 -1,0 0,-1 -1,0 0,-2 -1,0 0,-2 -1,0 0,-1 -1,0 0,-2 -1,0 0,-2 -1,0 0,-2 -1,0 0,-1 -1,0 0,-2 -1,0 0,-2 -1,0 0,-1 -1,0 0,-2 -1,0 0,-2 -1,0 0,-2 -1,0 0,-1 -1,0 0,-2 -1,0 0,-2 -1,0 0,-2 -1,0 0,-1 -1,0 0,-2 -44,0 0,1 -53,0 0,1 -185,0 0,-1 -57,0 0,-1" /></g></g></g><path
         id="path38"
         style="fill:#e1b125;fill-opacity:1;fill-rule:nonzero;stroke:none"
         d="m 2177.4,914.598 c 4.02,-28.414 11.92,-49.653 23.7,-63.723 21.54,-25.598 58.44,-38.387 110.72,-38.387 31.3,0 56.72,3.375 76.25,10.125 37.06,12.93 55.58,36.985 55.58,72.153 0,20.531 -9.08,36.425 -27.22,47.679 -18.16,10.969 -46.95,20.676 -86.36,29.114 l -67.33,14.769 c -66.17,14.622 -111.64,30.512 -136.39,47.682 -41.92,28.69 -62.87,73.55 -62.87,134.6 0,55.69 20.5,101.96 61.5,138.82 41.02,36.84 101.24,55.27 180.69,55.27 66.35,0 122.94,-17.38 169.78,-52.11 46.85,-34.75 71.41,-85.16 73.69,-151.27 l -124.9,0 c -2.31,37.41 -19.04,64 -50.18,79.75 -20.77,10.4 -46.57,15.61 -77.42,15.61 -34.33,0 -61.72,-6.75 -82.2,-20.25 -20.47,-13.5 -30.71,-32.35 -30.71,-56.54 0,-22.23 10.1,-38.82 30.28,-49.79 12.98,-7.32 40.52,-15.9 82.63,-25.74 l 109.14,-25.74 c 47.84,-11.25 83.69,-26.3 107.57,-45.14 37.08,-29.27 55.61,-71.597 55.61,-127.011 0,-56.828 -21.96,-104.004 -65.89,-141.559 -43.93,-37.558 -105.98,-56.328 -186.16,-56.328 -81.89,0 -146.28,18.484 -193.2,55.481 -46.91,36.984 -70.36,87.832 -70.36,152.535 l 124.05,0" /><path
         id="path40"
         style="fill:#e1b125;fill-opacity:1;fill-rule:nonzero;stroke:none"
         d="m 3078.25,1150.46 c -9.85,42.47 -33.89,72.15 -72.15,89.03 -21.38,9.29 -45.15,13.93 -71.3,13.93 -50.09,0 -91.22,-18.88 -123.42,-56.65 -32.22,-37.76 -48.31,-94.54 -48.31,-170.34 0,-76.371 17.43,-130.418 52.31,-162.137 34.88,-31.73 74.54,-47.586 119,-47.586 43.59,0 79.32,12.504 107.16,37.52 27.85,25.023 45,57.808 51.48,98.343 l -143.88,0 0,103.8 259.06,0 0,-333.761 -86.07,0 -13.08,77.637 c -25.03,-29.406 -47.53,-50.129 -67.51,-62.16 -34.32,-21.008 -76.51,-31.504 -126.58,-31.504 -82.42,0 -149.94,28.531 -202.53,85.59 -54.86,57.351 -82.28,135.785 -82.28,235.308 0,100.63 27.71,181.31 83.12,242.03 55.41,60.72 128.69,91.08 219.84,91.08 79.03,0 142.54,-20.04 190.51,-60.13 47.94,-40.08 75.44,-90.08 82.48,-150 l -127.85,0" /><path
         id="path42"
         style="fill:#7d8687;fill-opacity:1;fill-rule:nonzero;stroke:none"
         d="m 4010.73,1297.3 c 42.82,-41.35 66.59,-88.33 71.32,-140.93 l -81.85,0 c -9.12,39.94 -27.29,71.58 -54.49,94.94 -27.22,23.34 -65.41,35.01 -114.58,35.01 -59.95,0 -108.36,-21.46 -145.24,-64.39 -36.89,-42.93 -55.32,-108.75 -55.32,-197.43 0,-72.633 16.65,-131.543 49.96,-176.734 33.28,-45.188 82.96,-67.778 149,-67.778 60.79,0 107.08,23.774 138.86,71.317 16.85,25.031 29.41,57.941 37.71,98.734 l 81.86,0 c -7.23,-65.266 -31.14,-119.976 -71.73,-164.137 -48.67,-53.168 -114.3,-79.746 -196.87,-79.746 -71.19,0 -130.97,21.813 -179.35,65.442 -63.68,57.699 -95.51,146.789 -95.51,267.262 0,91.48 23.9,166.5 71.73,225.05 51.7,63.6 123.02,95.41 213.94,95.41 77.56,0 137.76,-20.68 180.56,-62.02" /><path
         id="path44"
         style="fill:#7d8687;fill-opacity:1;fill-rule:nonzero;stroke:none"
         d="m 4466.54,829.082 c 18.5,38.066 27.75,80.426 27.75,127.063 0,42.14 -6.68,76.415 -20.03,102.825 -21.13,41.58 -57.58,62.38 -109.31,62.38 -45.9,0 -79.27,-17.71 -100.13,-53.11 -20.86,-35.4 -31.29,-78.103 -31.29,-128.107 0,-48.055 10.43,-88.082 31.29,-120.117 20.86,-32.028 53.95,-48.036 99.31,-48.036 49.78,0 83.91,19.028 102.41,57.102 z m 47.16,300.328 c 39.94,-38.78 59.92,-95.83 59.92,-171.148 0,-72.797 -17.6,-132.946 -52.8,-180.446 -35.19,-47.496 -89.8,-71.234 -163.82,-71.234 -61.73,0 -110.75,20.996 -147.06,63.008 -36.32,42.023 -54.47,98.449 -54.47,169.273 0,75.887 19.14,136.307 57.4,181.277 38.26,44.97 89.66,67.45 154.18,67.45 57.82,0 106.7,-19.39 146.65,-58.18" /><path
         id="path46"
         style="fill:#7d8687;fill-opacity:1;fill-rule:nonzero;stroke:none"
         d="m 4668.98,722.609 75.9453,0 0,619.836 -75.9453,0 0,-619.836 z" /><path
         id="path48"
         style="fill:#7d8687;fill-opacity:1;fill-rule:nonzero;stroke:none"
         d="m 4860.96,722.609 75.9453,0 0,619.836 -75.9453,0 0,-619.836 z" /><path
         id="path50"
         style="fill:#7d8687;fill-opacity:1;fill-rule:nonzero;stroke:none"
         d="m 5133.11,790.922 c 16.03,-12.633 35.02,-18.942 56.96,-18.942 26.72,0 52.6,6.18 77.64,18.528 42.19,20.504 63.29,54.058 63.29,100.687 l 0,61.086 c -9.27,-5.926 -21.2,-10.863 -35.79,-14.812 -14.6,-3.953 -28.92,-6.774 -42.96,-8.453 l -45.89,-5.899 c -27.52,-3.656 -48.21,-9.41 -62.07,-17.269 -23.49,-13.196 -35.24,-34.243 -35.24,-63.145 0,-21.89 8.02,-39.16 24.06,-51.781 z m 159.93,205.176 c 17.43,2.242 29.11,9.542 35.01,21.902 3.37,6.78 5.06,16.51 5.06,29.22 0,25.98 -9.2,44.83 -27.59,56.55 -18.38,11.72 -44.7,17.58 -78.95,17.58 -39.58,0 -67.66,-10.75 -84.22,-32.22 -9.26,-11.89 -15.3,-29.56 -18.1,-53.01 l -70.89,0 c 1.41,55.85 19.46,94.71 54.15,116.57 34.7,21.86 74.95,32.79 120.75,32.79 53.1,0 96.22,-10.12 129.38,-30.37 32.87,-20.26 49.31,-51.77 49.31,-94.53 l 0,-260.353 c 0,-7.879 1.62,-14.207 4.85,-18.977 3.23,-4.781 10.06,-7.164 20.47,-7.164 3.37,0 7.17,0.207 11.38,0.629 4.23,0.433 8.72,1.055 13.51,1.898 l 0,-56.109 c -11.82,-3.375 -20.82,-5.492 -27.01,-6.328 -6.19,-0.848 -14.63,-1.27 -25.31,-1.27 -26.16,0 -45.15,9.278 -56.96,27.844 -6.19,9.84 -10.55,23.762 -13.09,41.77 -15.46,-20.262 -37.69,-37.832 -66.66,-52.75 -28.97,-14.895 -60.9,-22.352 -95.78,-22.352 -41.92,0 -76.16,12.719 -102.75,38.145 -26.57,25.425 -39.87,57.234 -39.87,95.449 0,41.859 13.08,74.308 39.24,97.347 26.16,23.036 60.47,37.231 102.96,42.571 l 121.11,15.168" /><path
         id="path52"
         style="fill:#7d8687;fill-opacity:1;fill-rule:nonzero;stroke:none"
         d="m 5815.5,824.305 c 20.46,32.617 30.7,75.66 30.7,129.109 0,47.536 -10.24,86.926 -30.7,118.146 -20.46,31.23 -50.59,46.83 -90.39,46.83 -34.72,0 -65.13,-12.8 -91.23,-38.39 -26.11,-25.6 -39.17,-67.79 -39.17,-126.586 0,-42.476 5.36,-76.937 16.1,-103.379 20.03,-49.789 57.42,-74.68 112.18,-74.68 41.21,0 72.05,16.313 92.51,48.95 z m -290.4,520.245 73.83,0 0,-224.89 c 16.67,21.66 36.57,38.19 59.73,49.58 23.16,11.39 48.29,17.09 75.4,17.09 56.48,0 102.3,-19.35 137.46,-58.02 35.15,-38.68 52.73,-95.71 52.73,-171.099 0,-71.453 -17.37,-130.801 -52.11,-178.066 -34.72,-47.25 -82.87,-70.872 -144.43,-70.872 -34.45,0 -63.53,8.293 -87.26,24.891 -14.12,9.84 -29.22,25.582 -45.32,47.25 l 0,-57.805 -70.03,0 0,621.941" /><path
         id="path54"
         style="fill:#7d8687;fill-opacity:1;fill-rule:nonzero;stroke:none"
         d="m 6292.28,829.082 c 18.5,38.066 27.76,80.426 27.76,127.063 0,42.14 -6.68,76.415 -20.04,102.825 -21.13,41.58 -57.57,62.38 -109.31,62.38 -45.9,0 -79.27,-17.71 -100.13,-53.11 -20.86,-35.4 -31.29,-78.103 -31.29,-128.107 0,-48.055 10.43,-88.082 31.29,-120.117 20.86,-32.028 53.96,-48.036 99.3,-48.036 49.79,0 83.92,19.028 102.42,57.102 z m 47.17,300.328 c 39.93,-38.78 59.91,-95.83 59.91,-171.148 0,-72.797 -17.61,-132.946 -52.8,-180.446 -35.19,-47.496 -89.8,-71.234 -163.82,-71.234 -61.73,0 -110.75,20.996 -147.06,63.008 -36.32,42.023 -54.47,98.449 -54.47,169.273 0,75.887 19.13,136.307 57.4,181.277 38.27,44.97 89.66,67.45 154.19,67.45 57.81,0 106.69,-19.39 146.65,-58.18" /><path
         id="path56"
         style="fill:#7d8687;fill-opacity:1;fill-rule:nonzero;stroke:none"
         d="m 6494.72,1174.51 72.16,0 0,-78.05 c 5.9,15.18 20.39,33.68 43.46,55.48 23.06,21.8 49.64,32.7 79.74,32.7 1.41,0 3.8,-0.15 7.17,-0.42 3.38,-0.29 9.14,-0.85 17.3,-1.69 l 0,-80.17 c -4.51,0.84 -8.65,1.4 -12.44,1.69 -3.81,0.28 -7.95,0.42 -12.45,0.42 -38.26,0 -67.66,-12.31 -88.19,-36.92 -20.53,-24.62 -30.81,-52.95 -30.81,-85.023 l 0,-259.918 -75.94,0 0,451.901" /><path
         id="path58"
         style="fill:#7d8687;fill-opacity:1;fill-rule:nonzero;stroke:none"
         d="m 6862.64,790.922 c 16.04,-12.633 35.02,-18.942 56.98,-18.942 26.71,0 52.59,6.18 77.63,18.528 42.19,20.504 63.28,54.058 63.28,100.687 l 0,61.086 c -9.27,-5.926 -21.18,-10.863 -35.78,-14.812 -14.61,-3.953 -28.92,-6.774 -42.95,-8.453 l -45.91,-5.899 c -27.51,-3.656 -48.19,-9.41 -62.07,-17.269 -23.48,-13.196 -35.23,-34.243 -35.23,-63.145 0,-21.89 8.03,-39.16 24.05,-51.781 z m 159.93,205.176 c 17.44,2.242 29.11,9.542 35.02,21.902 3.37,6.78 5.05,16.51 5.05,29.22 0,25.98 -9.19,44.83 -27.58,56.55 -18.38,11.72 -44.7,17.58 -78.95,17.58 -39.58,0 -67.65,-10.75 -84.21,-32.22 -9.27,-11.89 -15.3,-29.56 -18.12,-53.01 l -70.88,0 c 1.4,55.85 19.46,94.71 54.15,116.57 34.7,21.86 74.95,32.79 120.74,32.79 53.1,0 96.24,-10.12 129.39,-30.37 32.87,-20.26 49.31,-51.77 49.31,-94.53 l 0,-260.353 c 0,-7.879 1.61,-14.207 4.85,-18.977 3.23,-4.781 10.05,-7.164 20.46,-7.164 3.38,0 7.18,0.207 11.4,0.629 4.22,0.433 8.71,1.055 13.5,1.898 l 0,-56.109 c -11.82,-3.375 -20.82,-5.492 -27.01,-6.328 -6.19,-0.848 -14.62,-1.27 -25.32,-1.27 -26.15,0 -45.14,9.278 -56.96,27.844 -6.18,9.84 -10.54,23.762 -13.07,41.77 -15.48,-20.262 -37.7,-37.832 -66.67,-52.75 -28.98,-14.895 -60.9,-22.352 -95.78,-22.352 -41.92,0 -76.16,12.719 -102.74,38.145 -26.59,25.425 -39.88,57.234 -39.88,95.449 0,41.859 13.09,74.308 39.24,97.347 26.16,23.036 60.48,37.231 102.96,42.571 l 121.1,15.168" /><path
         id="path60"
         style="fill:#7d8687;fill-opacity:1;fill-rule:nonzero;stroke:none"
         d="m 7276.15,1300.67 76.8,0 0,-126.16 72.15,0 0,-62.03 -72.15,0 0,-294.933 c 0,-15.766 5.34,-26.313 16.02,-31.645 5.92,-3.097 15.76,-4.644 29.54,-4.644 3.65,0 7.6,0.097 11.82,0.285 4.22,0.18 9.14,0.652 14.77,1.406 l 0,-60.34 c -8.72,-2.531 -17.8,-4.359 -27.22,-5.48 -9.42,-1.133 -19.62,-1.684 -30.59,-1.684 -35.45,0 -59.49,9.063 -72.15,27.203 -12.66,18.145 -18.99,41.7 -18.99,70.676 l 0,299.156 -61.18,0 0,62.03 61.18,0 0,126.16" /><path
         id="path62"
         style="fill:#7d8687;fill-opacity:1;fill-rule:nonzero;stroke:none"
         d="m 7501.04,1172.4 77.22,0 0,-449.791 -77.22,0 0,449.791 z m 0,170.05 77.22,0 0,-86.08 -77.22,0 0,86.08" /><path
         id="path64"
         style="fill:#7d8687;fill-opacity:1;fill-rule:nonzero;stroke:none"
         d="m 7730.36,1174.51 120.68,-367.936 125.74,367.936 83.13,0 -170.12,-451.901 -80.94,0 -166.67,451.901 88.18,0" /><path
         id="path66"
         style="fill:#7d8687;fill-opacity:1;fill-rule:nonzero;stroke:none"
         d="m 8431.43,984.637 c -3.08,32.913 -10.19,59.213 -21.34,78.903 -20.65,36.57 -55.1,54.85 -103.35,54.85 -34.58,0 -63.59,-12.59 -87.03,-37.76 -23.43,-25.18 -35.84,-57.17 -37.23,-95.993 l 248.95,0 z m -27.21,177.433 c 29.92,-15.05 52.69,-34.54 68.36,-58.44 15.09,-22.79 25.16,-49.37 30.2,-79.75 4.46,-20.82 6.7,-54.009 6.7,-99.579 l -328.69,0 c 1.39,-45.981 12.14,-82.867 32.24,-110.653 20.1,-27.785 51.22,-41.668 93.35,-41.668 39.35,0 70.76,13.137 94.2,39.415 13.12,15.253 22.42,32.918 27.89,52.992 l 74.69,0 c -1.98,-16.602 -8.51,-35.098 -19.62,-55.489 -11.12,-20.406 -23.52,-37.066 -37.19,-50.003 -22.9,-22.512 -51.23,-37.692 -85,-45.567 -18.15,-4.496 -38.68,-6.746 -61.56,-6.746 -55.91,0 -103.29,20.453 -142.16,61.383 -38.85,40.933 -58.27,98.246 -58.27,171.949 0,72.576 19.57,131.496 58.71,176.786 39.13,45.29 90.29,67.94 153.47,67.94 31.88,0 62.77,-7.53 92.68,-22.57" /><path
         id="path68"
         style="fill:#7d8687;fill-opacity:1;fill-rule:nonzero;stroke:none"
         d="m 8910.76,922.613 c 1.9,-35.172 9.89,-63.715 23.97,-85.652 26.83,-41.082 74.12,-61.606 141.86,-61.606 30.34,0 57.99,4.497 82.91,13.5 48.24,17.434 72.36,48.665 72.36,93.668 0,33.762 -10.22,57.813 -30.65,72.157 -20.72,14.066 -53.14,26.3 -97.3,36.707 l -81.34,18.993 c -53.14,12.37 -90.74,26.01 -112.81,40.92 -38.16,25.88 -57.22,64.56 -57.22,116.04 0,55.7 18.74,101.4 56.25,137.13 37.49,35.72 90.59,53.59 159.31,53.59 63.23,0 116.94,-15.68 161.16,-47.05 44.21,-31.37 66.31,-81.51 66.31,-150.42 l -78.9,0 c -4.05,33.19 -12.69,58.65 -25.89,76.37 -24.55,32.34 -66.22,48.52 -125.01,48.52 -47.47,0 -81.58,-10.41 -102.34,-31.22 -20.78,-20.82 -31.16,-45.01 -31.16,-72.58 0,-30.37 12.28,-52.6 36.81,-66.66 16.07,-9 52.46,-20.25 109.15,-33.76 l 84.22,-19.83 c 40.61,-9.56 71.94,-22.64 94.03,-39.24 38.15,-28.971 57.24,-71.03 57.24,-126.159 0,-68.644 -24.35,-117.722 -73.05,-147.261 -48.69,-29.536 -105.28,-44.305 -169.74,-44.305 -75.17,0 -134.01,19.687 -176.53,59.074 -42.54,39.102 -63.4,92.125 -62.55,159.074 l 78.91,0" /><path
         id="path70"
         style="fill:#7d8687;fill-opacity:1;fill-rule:nonzero;stroke:none"
         d="m 9702.42,829.082 c 18.5,38.066 27.74,80.426 27.74,127.063 0,42.14 -6.68,76.415 -20.03,102.825 -21.13,41.58 -57.56,62.38 -109.31,62.38 -45.89,0 -79.27,-17.71 -100.13,-53.11 -20.86,-35.4 -31.28,-78.103 -31.28,-128.107 0,-48.055 10.42,-88.082 31.28,-120.117 20.86,-32.028 53.96,-48.036 99.31,-48.036 49.78,0 83.91,19.028 102.42,57.102 z m 47.16,300.328 c 39.92,-38.78 59.91,-95.83 59.91,-171.148 0,-72.797 -17.6,-132.946 -52.8,-180.446 -35.19,-47.496 -89.8,-71.234 -163.82,-71.234 -61.74,0 -110.74,20.996 -147.06,63.008 -36.32,42.023 -54.47,98.449 -54.47,169.273 0,75.887 19.14,136.307 57.41,181.277 38.25,44.97 89.65,67.45 154.18,67.45 57.81,0 106.69,-19.39 146.65,-58.18" /><path
         id="path72"
         style="fill:#7d8687;fill-opacity:1;fill-rule:nonzero;stroke:none"
         d="m 9904.86,722.609 75.957,0 0,619.836 -75.957,0 0,-619.836 z" /><path
         id="path74"
         style="fill:#7d8687;fill-opacity:1;fill-rule:nonzero;stroke:none"
         d="m 10170.7,1174.51 0,-300.002 c 0,-23.063 3.6,-41.918 10.6,-56.531 13.2,-27.016 37.7,-40.516 73.6,-40.516 51.5,0 86.6,23.633 105.2,70.891 10.1,25.316 15.3,60.054 15.3,104.218 l 0,221.94 75.8,0 0,-451.901 -71.7,0 0.9,66.668 c -9.7,-17.16 -21.7,-31.64 -36,-43.457 -28.5,-23.636 -63,-35.441 -103.5,-35.441 -63.3,0 -106.3,21.516 -129.2,64.555 -12.4,23.062 -18.6,53.863 -18.6,92.406 l 0,307.17 77.6,0" /><path
         id="path76"
         style="fill:#7d8687;fill-opacity:1;fill-rule:nonzero;stroke:none"
         d="m 10590.5,1300.67 76.8,0 0,-126.16 72.1,0 0,-62.03 -72.1,0 0,-294.933 c 0,-15.766 5.3,-26.313 16,-31.645 5.9,-3.097 15.8,-4.644 29.5,-4.644 3.7,0 7.6,0.097 11.8,0.285 4.3,0.18 9.2,0.652 14.8,1.406 l 0,-60.34 c -8.7,-2.531 -17.7,-4.359 -27.1,-5.48 -9.5,-1.133 -19.7,-1.684 -30.7,-1.684 -35.4,0 -59.5,9.063 -72.1,27.203 -12.7,18.145 -19,41.7 -19,70.676 l 0,299.156 -61.2,0 0,62.03 61.2,0 0,126.16" /><path
         id="path78"
         style="fill:#7d8687;fill-opacity:1;fill-rule:nonzero;stroke:none"
         d="m 10815.4,1172.4 77.2,0 0,-449.791 -77.2,0 0,449.791 z m 0,170.05 77.2,0 0,-86.08 -77.2,0 0,86.08" /><path
         id="path80"
         style="fill:#7d8687;fill-opacity:1;fill-rule:nonzero;stroke:none"
         d="m 11287.6,829.082 c 18.5,38.066 27.8,80.426 27.8,127.063 0,42.14 -6.7,76.415 -20,102.825 -21.1,41.58 -57.5,62.38 -109.3,62.38 -46,0 -79.3,-17.71 -100.2,-53.11 -20.8,-35.4 -31.3,-78.103 -31.3,-128.107 0,-48.055 10.5,-88.082 31.3,-120.117 20.9,-32.028 54,-48.036 99.3,-48.036 49.8,0 83.9,19.028 102.4,57.102 z m 47.3,300.328 c 39.8,-38.78 59.8,-95.83 59.8,-171.148 0,-72.797 -17.5,-132.946 -52.8,-180.446 -35.2,-47.496 -89.8,-71.234 -163.8,-71.234 -61.8,0 -110.8,20.996 -147.1,63.008 -36.3,42.023 -54.4,98.449 -54.4,169.273 0,75.887 19.1,136.307 57.4,181.277 38.3,44.97 89.6,67.45 154.2,67.45 57.8,0 106.7,-19.39 146.7,-58.18" /><path
         id="path82"
         style="fill:#7d8687;fill-opacity:1;fill-rule:nonzero;stroke:none"
         d="m 11488,1174.51 72.2,0 0,-64.13 c 21.3,26.43 44,45.42 67.9,56.96 23.9,11.53 50.4,17.3 79.7,17.3 64.1,0 107.5,-22.37 129.9,-67.09 12.4,-24.47 18.6,-59.5 18.6,-105.06 l 0,-289.881 -77.2,0 0,284.811 c 0,27.57 -4,49.79 -12.2,66.67 -13.5,28.13 -38,42.2 -73.4,42.2 -18,0 -32.8,-1.84 -44.4,-5.49 -20.7,-6.19 -39,-18.57 -54.8,-37.13 -12.7,-14.92 -20.8,-30.31 -24.7,-46.21 -3.8,-15.89 -5.7,-38.605 -5.7,-68.14 l 0,-236.711 -75.9,0 0,451.901" /><path
         id="path84"
         style="fill:#7d8687;fill-opacity:1;fill-rule:nonzero;stroke:none"
         d="m 12013.8,864.387 c 2.2,-25.317 8.6,-44.727 19.3,-58.227 19.5,-24.476 53.4,-36.719 101.6,-36.719 28.7,0 54,6.122 75.8,18.36 21.9,12.242 32.7,31.152 32.7,56.746 0,19.414 -8.7,34.18 -26.1,44.305 -11.2,6.187 -33.1,13.363 -66.1,21.527 l -61.3,15.187 c -39.1,9.559 -68,20.254 -86.6,32.067 -33.1,20.535 -49.8,48.947 -49.8,85.237 0,42.75 15.7,77.35 46.9,103.79 31.2,26.44 73.2,39.67 125.9,39.67 69,0 118.8,-19.97 149.3,-59.92 19.1,-25.32 28.3,-52.6 27.7,-81.86 l -71.7,0 c -1.4,17.07 -7.6,32.59 -18.5,46.58 -17.9,19.86 -48.8,29.8 -92.9,29.8 -29.4,0 -51.6,-5.47 -66.7,-16.4 -15.1,-10.93 -22.7,-25.37 -22.7,-43.3 0,-19.62 9.9,-35.32 29.8,-47.09 11.4,-7.01 28.3,-13.19 50.8,-18.535 l 51,-12.23 c 55.7,-13.227 92.9,-26.027 111.9,-38.398 29.5,-19.411 44.3,-49.938 44.3,-91.563 0,-40.226 -15.5,-74.969 -46.4,-104.223 -30.9,-29.25 -78,-43.878 -141.2,-43.878 -68,0 -116.3,15.257 -144.6,45.781 -28.3,30.508 -43.5,68.281 -45.4,113.293 l 73,0" /><path
         id="path86"
         style="fill:#7d8687;fill-opacity:1;fill-rule:nonzero;stroke:none"
         d="m 12416.7,634.008 c 19.3,3.394 33,17.101 40.9,41.129 4.2,12.711 6.3,25.008 6.3,36.875 0,1.976 0,3.738 -0.2,5.293 -0.1,1.566 -0.5,3.324 -1,5.304 l -46,0 0,91.985 90.3,0 0,-85.235 c 0,-33.464 -6.8,-62.863 -20.3,-88.179 -13.5,-25.317 -36.9,-40.93 -70,-46.844 l 0,39.672" /><path
         id="path88"
         style="fill:#7d8687;fill-opacity:1;fill-rule:nonzero;stroke:none"
         d="m 12890.9,1342.45 84,0 0,-546.001 310.9,0 0,-73.84 -394.9,0 0,619.841" /><path
         id="path90"
         style="fill:#7d8687;fill-opacity:1;fill-rule:nonzero;stroke:none"
         d="m 13371.5,1342.45 84,0 0,-546.001 311,0 0,-73.84 -395,0 0,619.841" /><path
         id="path92"
         style="fill:#7d8687;fill-opacity:1;fill-rule:nonzero;stroke:none"
         d="m 14290.5,1297.3 c 42.8,-41.35 66.6,-88.33 71.3,-140.93 l -81.8,0 c -9.2,39.94 -27.3,71.58 -54.5,94.94 -27.3,23.34 -65.5,35.01 -114.6,35.01 -60,0 -108.4,-21.46 -145.3,-64.39 -36.8,-42.93 -55.3,-108.75 -55.3,-197.43 0,-72.633 16.7,-131.543 50,-176.734 33.3,-45.188 83,-67.778 149,-67.778 60.8,0 107.1,23.774 138.9,71.317 16.8,25.031 29.4,57.941 37.7,98.734 l 81.8,0 c -7.2,-65.266 -31.1,-119.976 -71.7,-164.137 -48.7,-53.168 -114.3,-79.746 -196.9,-79.746 -71.2,0 -130.9,21.813 -179.3,65.442 -63.7,57.699 -95.6,146.789 -95.6,267.262 0,91.48 23.9,166.5 71.8,225.05 51.7,63.6 123.1,95.41 214,95.41 77.5,0 137.7,-20.68 180.5,-62.02" /><path
         id="path94"
         style="fill:#7d8687;fill-opacity:1;fill-rule:nonzero;stroke:none"
         d="m 14570.6,1335.61 31.7,-88.68 31.9,88.68 35.2,0 0,-123.88 -22.7,0 0,99.96 -34.4,-99.96 -19.7,0 -34.7,99.96 0,-99.96 -22.7,0 0,123.88 35.4,0 z m -161.9,-20.67 0,20.67 105.6,0 0,-20.67 -40.6,0 0,-103.21 -24.6,0 0,103.21 -40.4,0" /><path
         id="path96"
         style="fill:#e1b125;fill-opacity:1;fill-rule:nonzero;stroke:none"
         d="m 3869.57,132.855 c 14.04,0 25.59,1.497 34.62,4.489 16.12,5.539 29.33,16.195 39.62,31.984 8.21,12.656 14.11,28.852 17.72,48.617 2.09,11.797 3.13,22.758 3.13,32.844 0,38.813 -7.54,68.961 -22.62,90.43 -15.08,21.457 -39.38,32.203 -72.88,32.203 l -73.61,0 0,-240.567 74.02,0 z m -116.89,277.028 125.22,0 c 42.51,0 75.48,-15.289 98.91,-45.848 20.91,-27.59 31.36,-62.922 31.36,-105.996 0,-33.258 -6.17,-63.336 -18.52,-90.203 -21.76,-47.496 -59.13,-71.2344 -112.17,-71.2344 l -124.8,0 0,313.2814" /><path
         id="path98"
         style="fill:#e1b125;fill-opacity:1;fill-rule:nonzero;stroke:none"
         d="m 4215.88,229.031 c -1.54,16.649 -5.15,29.934 -10.79,39.891 -10.43,18.476 -27.84,27.715 -52.22,27.715 -17.48,0 -32.14,-6.356 -43.99,-19.078 -11.85,-12.731 -18.11,-28.907 -18.82,-48.528 l 125.82,0 z m -13.75,89.676 c 15.13,-7.598 26.64,-17.445 34.55,-29.527 7.63,-11.512 12.72,-24.953 15.26,-40.301 2.26,-10.527 3.39,-27.305 3.39,-50.328 l -166.13,0 c 0.71,-23.25 6.14,-41.883 16.3,-55.934 10.16,-14.039 25.89,-21.066 47.18,-21.066 19.9,0 35.77,6.64 47.61,19.933 6.64,7.704 11.33,16.629 14.1,26.774 l 37.75,0 c -1,-8.383 -4.3,-17.731 -9.92,-28.043 -5.62,-10.309 -11.88,-18.731 -18.79,-25.266 -11.57,-11.383 -25.9,-19.0584 -42.97,-23.031 -9.17,-2.2852 -19.54,-3.4141 -31.11,-3.4141 -28.26,0 -52.21,10.3399 -71.85,31.0191 -19.64,20.692 -29.46,49.661 -29.46,86.911 0,36.679 9.89,66.461 29.68,89.347 19.78,22.907 45.64,34.348 77.57,34.348 16.1,0 31.72,-3.809 46.84,-11.422" /><path
         id="path100"
         style="fill:#e1b125;fill-opacity:1;fill-rule:nonzero;stroke:none"
         d="m 4326.77,168.258 c 1.18,-12.793 4.43,-22.602 9.8,-29.43 9.86,-12.367 26.99,-18.547 51.38,-18.547 14.5,0 27.27,3.09 38.3,9.27 11.03,6.187 16.55,15.742 16.55,28.691 0,9.809 -4.41,17.266 -13.23,22.383 -5.64,3.129 -16.75,6.758 -33.37,10.883 l -30.99,7.672 c -19.8,4.832 -34.39,10.234 -43.79,16.215 -16.75,10.371 -25.13,24.738 -25.13,43.066 0,21.617 7.89,39.102 23.66,52.461 15.78,13.371 36.99,20.062 63.64,20.062 34.87,0 60.01,-10.105 75.43,-30.293 9.65,-12.793 14.34,-26.586 14.06,-41.375 l -36.26,0 c -0.72,8.629 -3.86,16.473 -9.38,23.547 -9.03,10.035 -24.68,15.055 -46.94,15.055 -14.84,0 -26.09,-2.758 -33.73,-8.285 -7.64,-5.52 -11.45,-12.82 -11.45,-21.883 0,-9.918 5,-17.859 15.05,-23.801 5.79,-3.551 14.33,-6.672 25.64,-9.367 l 25.86,-6.18 c 28.09,-6.691 46.93,-13.152 56.49,-19.41 14.93,-9.812 22.39,-25.238 22.39,-46.273 0,-20.328 -7.81,-37.903 -23.42,-52.68 -15.63,-14.7773 -39.41,-22.1757 -71.37,-22.1757 -34.4,0 -58.76,7.7148 -73.08,23.1327 -14.33,15.434 -21.99,34.512 -22.99,57.262 l 36.88,0" /><path
         id="path102"
         style="fill:#e1b125;fill-opacity:1;fill-rule:nonzero;stroke:none"
         d="m 4522.34,323.941 39.03,0 0,-227.3394 -39.03,0 0,227.3394 z m 0,85.942 39.03,0 0,-43.508 -39.03,0 0,43.508" /><path
         id="path104"
         style="fill:#e1b125;fill-opacity:1;fill-rule:nonzero;stroke:none"
         d="m 4751.04,274.676 c -11.6,13.656 -26.38,20.476 -44.34,20.476 -26.88,0 -45.26,-12.652 -55.17,-37.961 -5.23,-13.507 -7.85,-31.207 -7.85,-53.101 0,-25.738 5.2,-45.317 15.59,-58.758 10.41,-13.43 24.37,-20.148 41.92,-20.148 27.43,0 46.74,12.433 57.91,37.328 6.23,14.058 9.34,30.48 9.34,49.254 0,28.289 -5.8,49.265 -17.4,62.91 z m -4.69,41.156 c 7.22,-4.969 14.58,-12.23 22.09,-21.742 l 0,28.777 35.4,0 0,-207.711 c 0,-28.9958 -4.25,-51.8826 -12.75,-68.6677 C 4775.22,15.4961 4745.25,0 4701.19,0 c -24.52,0 -45.13,5.5 -61.86,16.5313 -16.72,11.0195 -26.07,28.2578 -28.06,51.7031 l 39.02,0 c 1.84,-10.2344 5.51,-18.1133 11.03,-23.6641 8.63,-8.5312 22.21,-12.8008 40.73,-12.8008 29.27,0 48.42,10.3828 57.47,31.1328 5.38,12.2383 7.86,34.0508 7.43,65.4767 -7.65,-11.66 -16.85,-20.336 -27.61,-26.012 -10.77,-5.6873 -25,-8.5311 -42.71,-8.5311 -24.63,0 -46.2,8.7771 -64.68,26.3401 -18.48,17.551 -27.72,46.586 -27.72,87.113 0,38.246 9.31,68.098 27.94,89.563 18.62,21.472 41.1,32.207 67.44,32.207 17.84,0 33.42,-4.411 46.74,-13.227" /><path
         id="path106"
         style="fill:#e1b125;fill-opacity:1;fill-rule:nonzero;stroke:none"
         d="m 4862.27,325.004 36.47,0 0,-32.41 c 10.8,13.359 22.25,22.953 34.33,28.789 12.09,5.824 25.53,8.746 40.32,8.746 32.41,0 54.3,-11.305 65.67,-33.914 6.26,-12.36 9.39,-30.07 9.39,-53.102 l 0,-146.5114 -39.02,0 0,143.9534 c 0,13.933 -2.07,25.168 -6.19,33.699 -6.82,14.207 -19.2,21.32 -37.11,21.32 -9.09,0 -16.56,-0.926 -22.39,-2.765 -10.53,-3.137 -19.77,-9.387 -27.72,-18.774 -6.4,-7.535 -10.56,-15.316 -12.48,-23.355 -1.92,-8.032 -2.88,-19.512 -2.88,-34.438 l 0,-119.6404 -38.39,0 0,228.4024" /><path
         id="path108"
         style="fill:#e1b125;fill-opacity:1;fill-rule:nonzero;stroke:none"
         d="m 5260.01,229.031 c -1.56,16.649 -5.15,29.934 -10.79,39.891 -10.43,18.476 -27.84,27.715 -52.23,27.715 -17.49,0 -32.15,-6.356 -43.98,-19.078 -11.85,-12.731 -18.13,-28.907 -18.83,-48.528 l 125.83,0 z m -13.75,89.676 c 15.12,-7.598 26.63,-17.445 34.54,-29.527 7.64,-11.512 12.72,-24.953 15.27,-40.301 2.26,-10.527 3.39,-27.305 3.39,-50.328 l -166.13,0 c 0.71,-23.25 6.14,-41.883 16.29,-55.934 10.16,-14.039 25.89,-21.066 47.19,-21.066 19.89,0 35.76,6.64 47.61,19.933 6.62,7.704 11.33,16.629 14.09,26.774 l 37.76,0 c -1,-8.383 -4.31,-17.731 -9.92,-28.043 -5.62,-10.309 -11.89,-18.731 -18.8,-25.266 -11.58,-11.383 -25.89,-19.0584 -42.96,-23.031 -9.18,-2.2852 -19.54,-3.4141 -31.11,-3.4141 -28.26,0 -52.21,10.3399 -71.85,31.0191 -19.65,20.692 -29.46,49.661 -29.46,86.911 0,36.679 9.89,66.461 29.68,89.347 19.78,22.907 45.63,34.348 77.57,34.348 16.1,0 31.71,-3.809 46.84,-11.422" /><path
         id="path110"
         style="fill:#e1b125;fill-opacity:1;fill-rule:nonzero;stroke:none"
         d="m 5387.89,146.719 c 10.32,-16.5 26.86,-24.746 49.64,-24.746 17.68,0 32.22,7.656 43.61,22.925 11.38,15.29 17.07,37.223 17.07,65.805 0,28.86 -5.87,50.219 -17.6,64.082 -11.75,13.863 -26.25,20.789 -43.5,20.789 -19.25,0 -34.84,-7.39 -46.79,-22.176 -11.95,-14.789 -17.93,-36.543 -17.93,-65.261 0,-24.453 5.16,-44.926 15.5,-61.418 z m 85.68,171.25 c 6.8,-4.262 14.52,-11.731 23.15,-22.395 l 0,115.371 36.9,0 0,-314.3434 -34.55,0 0,31.7774 c -8.93,-14.078 -19.48,-24.242 -31.66,-30.5001 -12.18,-6.2578 -26.13,-9.375 -41.85,-9.375 -25.35,0 -47.3,10.6914 -65.85,32.0941 -18.56,21.398 -27.84,49.863 -27.84,85.402 0,33.277 8.46,62.105 25.38,86.477 16.93,24.39 41.11,36.582 72.56,36.582 17.41,0 32.01,-3.704 43.76,-11.09" /><path
         id="path112"
         style="fill:#e1b125;fill-opacity:1;fill-rule:nonzero;stroke:none"
         d="m 5730.24,394.742 c 8.97,13.074 26.24,19.617 51.83,19.617 2.41,0 4.91,-0.078 7.47,-0.203 2.55,-0.148 5.46,-0.355 8.74,-0.652 l 0,-34.965 c -4.03,0.285 -6.94,0.449 -8.74,0.531 -1.8,0.067 -3.49,0.106 -5.06,0.106 -11.8,0 -18.85,-3.031 -21.15,-9.071 -2.29,-6.042 -3.44,-21.429 -3.44,-46.164 l 38.39,0 0,-30.277 -38.39,0 0,-197.0624 -37.96,0 0,197.0624 -31.78,0 0,30.277 31.78,0 0,35.825 c 0.56,15.918 3.34,27.578 8.31,34.976" /><path
         id="path114"
         style="fill:#e1b125;fill-opacity:1;fill-rule:nonzero;stroke:none"
         d="m 5975.34,150.418 c 9.34,19.238 14.02,40.645 14.02,64.219 0,21.293 -3.38,38.621 -10.13,51.98 -10.68,21.008 -29.09,31.524 -55.25,31.524 -23.19,0 -40.06,-8.953 -50.61,-26.848 -10.53,-17.887 -15.81,-39.477 -15.81,-64.754 0,-24.281 5.28,-44.512 15.81,-60.703 10.55,-16.188 27.27,-24.285 50.19,-24.285 25.17,0 42.42,9.625 51.78,28.867 z m 23.82,151.797 c 20.2,-19.598 30.29,-48.438 30.29,-86.504 0,-36.797 -8.9,-67.191 -26.68,-91.207 -17.79,-24 -45.39,-36.0001 -82.8,-36.0001 -31.21,0 -55.99,10.6133 -74.33,31.8481 -18.36,21.242 -27.53,49.753 -27.53,85.558 0,38.344 9.67,68.895 29,91.613 19.35,22.727 45.32,34.09 77.94,34.09 29.22,0 53.93,-9.797 74.11,-29.398" /><path
         id="path116"
         style="fill:#e1b125;fill-opacity:1;fill-rule:nonzero;stroke:none"
         d="m 6077.64,325.004 36.47,0 0,-39.457 c 2.98,7.687 10.3,17.031 21.96,28.055 11.66,11.007 25.09,16.527 40.32,16.527 0.7,0 1.91,-0.078 3.62,-0.215 1.71,-0.141 4.62,-0.434 8.74,-0.855 l 0,-40.52 c -2.27,0.422 -4.37,0.707 -6.29,0.856 -1.91,0.14 -4.02,0.207 -6.29,0.207 -19.33,0 -34.19,-6.219 -44.57,-18.653 -10.38,-12.449 -15.57,-26.773 -15.57,-42.98 l 0,-131.3674 -38.39,0 0,228.4024" /><path
         id="path118"
         style="fill:#e1b125;fill-opacity:1;fill-rule:nonzero;stroke:none"
         d="m 6358.08,96.6016 42.8594,0 0,313.281 -42.8594,0 0,-313.281 z" /><path
         id="path120"
         style="fill:#e1b125;fill-opacity:1;fill-rule:nonzero;stroke:none"
         d="m 6464.71,325.004 37.96,0 0,-32.41 c 9.1,11.226 17.34,19.402 24.73,24.519 12.67,8.668 27.02,13.016 43.09,13.016 18.2,0 32.84,-4.477 43.93,-13.441 6.25,-5.114 11.94,-12.661 17.06,-22.598 8.53,12.219 18.56,21.289 30.07,27.183 11.52,5.903 24.45,8.856 38.81,8.856 30.71,0 51.61,-11.09 62.7,-33.277 5.97,-11.934 8.96,-28.012 8.96,-48.2 l 0,-152.0504 -39.88,0 0,158.6644 c 0,15.218 -3.8,25.668 -11.41,31.355 -7.62,5.688 -16.89,8.531 -27.84,8.531 -15.06,0 -28.04,-5.058 -38.91,-15.144 -10.88,-10.094 -16.31,-26.938 -16.31,-50.543 l 0,-132.8634 -39.03,0 0,149.0784 c 0,15.488 -1.85,26.793 -5.55,33.906 -5.83,10.656 -16.7,15.988 -32.63,15.988 -14.5,0 -27.69,-5.609 -39.56,-16.844 -11.87,-11.238 -17.8,-31.562 -17.8,-60.992 l 0,-121.1364 -38.39,0 0,228.4024" /><path
         id="path122"
         style="fill:#e1b125;fill-opacity:1;fill-rule:nonzero;stroke:none"
         d="m 6969.75,144.898 c 11.92,15.004 17.88,37.438 17.88,67.29 0,18.203 -2.63,33.835 -7.92,46.921 -9.98,25.161 -28.25,37.743 -54.79,37.743 -26.67,0 -44.94,-13.289 -54.78,-39.875 -5.28,-14.219 -7.92,-32.274 -7.92,-54.176 0,-17.621 2.64,-32.613 7.92,-44.992 9.99,-23.594 28.25,-35.403 54.78,-35.403 17.99,0 32.93,7.5 44.83,22.492 z m -144.41,179.043 37.52,0 0,-30.277 c 7.71,10.363 16.11,18.41 25.24,24.098 12.97,8.519 28.22,12.789 45.76,12.789 25.95,0 47.97,-9.918 66.07,-29.75 18.11,-19.828 27.16,-48.164 27.16,-84.992 0,-49.754 -13.07,-85.293 -39.19,-106.614 -16.54,-13.5114 -35.81,-20.2692 -57.81,-20.2692 -17.27,0 -31.75,3.7695 -43.46,11.3042 -6.85,4.262 -14.49,11.583 -22.91,21.969 l 0,-116.65994 -38.38,0 0,318.40194" /><path
         id="path124"
         style="fill:#e1b125;fill-opacity:1;fill-rule:nonzero;stroke:none"
         d="m 7113.03,131.125 c 8.1,-6.375 17.7,-9.574 28.79,-9.574 13.51,0 26.59,3.129 39.24,9.379 21.33,10.347 31.99,27.32 31.99,50.875 l 0,30.875 c -4.69,-2.989 -10.72,-5.489 -18.09,-7.489 -7.38,-1.996 -14.62,-3.414 -21.71,-4.269 l -23.2,-2.981 c -13.9,-1.839 -24.37,-4.75 -31.37,-8.726 -11.88,-6.66 -17.8,-17.297 -17.8,-31.918 0,-11.059 4.05,-19.785 12.15,-26.172 z m 80.83,103.703 c 8.8,1.133 14.72,4.82 17.7,11.07 1.71,3.434 2.55,8.352 2.55,14.778 0,13.125 -4.65,22.648 -13.94,28.57 -9.29,5.926 -22.58,8.895 -39.9,8.895 -20,0 -34.2,-5.438 -42.57,-16.301 -4.68,-5.992 -7.74,-14.926 -9.15,-26.781 l -35.83,0 c 0.72,28.226 9.83,47.867 27.38,58.914 17.54,11.05 37.87,16.578 61.03,16.578 26.83,0 48.63,-5.113 65.39,-15.356 16.61,-10.234 24.91,-26.152 24.91,-47.769 l 0,-131.59 c 0,-3.984 0.81,-7.18 2.46,-9.59 1.63,-2.41 5.08,-3.621 10.34,-3.621 1.71,0 3.62,0.105 5.75,0.313 2.14,0.218 4.41,0.531 6.83,0.964 l 0,-28.3668 c -5.97,-1.6993 -10.52,-2.7618 -13.65,-3.1954 -3.12,-0.4218 -7.38,-0.6406 -12.8,-0.6406 -13.22,0 -22.8,4.6953 -28.79,14.0708 -3.12,4.98 -5.33,12.023 -6.61,21.105 -7.82,-10.234 -19.05,-19.117 -33.69,-26.656 -14.64,-7.5237 -30.77,-11.2932 -48.4,-11.2932 -21.2,0 -38.49,6.4258 -51.94,19.2732 -13.43,12.86 -20.15,28.926 -20.15,48.242 0,21.164 6.61,37.567 19.83,49.204 13.23,11.652 30.57,18.812 52.04,21.519 l 61.21,7.664" /><path
         id="path126"
         style="fill:#e1b125;fill-opacity:1;fill-rule:nonzero;stroke:none"
         d="m 7465.23,312.852 c 16.14,-12.516 25.84,-34.051 29.1,-64.622 l -37.31,0 c -2.29,14.079 -7.47,25.778 -15.57,35.086 -8.1,9.305 -21.12,13.969 -39.03,13.969 -24.45,0 -41.95,-11.933 -52.46,-35.785 -6.82,-15.477 -10.24,-34.582 -10.24,-57.301 0,-22.855 4.83,-42.101 14.51,-57.715 9.66,-15.625 24.87,-23.437 45.63,-23.437 15.93,0 28.54,4.851 37.86,14.551 9.31,9.703 15.74,22.976 19.3,39.828 l 37.31,0 c -4.26,-30.281 -14.92,-52.422 -31.98,-66.43 -17.05,-14.0038 -38.89,-21.0077 -65.47,-21.0077 -29.86,0 -53.67,10.9217 -71.44,32.7417 -17.78,21.817 -26.66,49.079 -26.66,81.786 0,40.093 9.73,71.293 29.22,93.625 19.46,22.308 44.28,33.472 74.42,33.472 25.72,0 46.66,-6.258 62.81,-18.761" /><path
         id="path128"
         style="fill:#e1b125;fill-opacity:1;fill-rule:nonzero;stroke:none"
         d="m 7540.41,388.781 38.8,0 0,-63.777 36.48,0 0,-31.34 -36.48,0 0,-149.078 c 0,-7.961 2.7,-13.293 8.11,-15.988 2.98,-1.567 7.96,-2.352 14.93,-2.352 1.84,0 3.84,0.047 5.97,0.145 2.14,0.089 4.62,0.336 7.47,0.711 l 0,-30.5004 c -4.41,-1.2813 -8.99,-2.1953 -13.77,-2.7657 -4.76,-0.5703 -9.9,-0.8554 -15.46,-0.8554 -17.9,0 -30.06,4.582 -36.46,13.7615 -6.39,9.16 -9.59,21.067 -9.59,35.707 l 0,151.215 -30.93,0 0,31.34 30.93,0 0,63.777" /><path
         id="path130"
         style="fill:#e1b125;fill-opacity:1;fill-rule:nonzero;stroke:none"
         d="m 7663.24,96.6016 44.5703,0 0,46.4961 -44.5703,0 0,-46.4961 z" /><path
         id="path132"
         style="fill:#e1b125;fill-opacity:1;fill-rule:nonzero;stroke:none"
         d="m 8191.88,366.801 c -9.32,4.406 -22.1,6.621 -38.32,6.621 l -83.85,0 0,-108.555 83.85,0 c 18.92,0 34.26,4.055 46.05,12.153 11.79,8.105 17.68,22.402 17.68,42.878 0,23.024 -8.47,38.657 -25.41,46.903 z m -164.61,43.082 140.19,0 c 27.71,0 50.09,-7.86 67.13,-23.563 17.04,-15.715 25.57,-37.781 25.57,-66.218 0,-24.45 -7.61,-45.739 -22.81,-63.875 -15.2,-18.122 -38.48,-27.196 -69.81,-27.196 l -97.83,0 0,-132.4294 -42.44,0 0,313.2814" /><path
         id="path134"
         style="fill:#e1b125;fill-opacity:1;fill-rule:nonzero;stroke:none"
         d="m 8451.07,150.418 c 9.35,19.238 14.02,40.645 14.02,64.219 0,21.293 -3.37,38.621 -10.11,51.98 -10.69,21.008 -29.1,31.524 -55.26,31.524 -23.2,0 -40.06,-8.953 -50.6,-26.848 -10.55,-17.887 -15.82,-39.477 -15.82,-64.754 0,-24.281 5.27,-44.512 15.82,-60.703 10.54,-16.188 27.26,-24.285 50.18,-24.285 25.17,0 42.41,9.625 51.77,28.867 z m 23.83,151.797 c 20.19,-19.598 30.29,-48.438 30.29,-86.504 0,-36.797 -8.9,-67.191 -26.69,-91.207 -17.79,-24 -45.39,-36.0001 -82.8,-36.0001 -31.2,0 -55.97,10.6133 -74.32,31.8481 -18.36,21.242 -27.53,49.753 -27.53,85.558 0,38.344 9.67,68.895 29.01,91.613 19.34,22.727 45.31,34.09 77.93,34.09 29.23,0 53.92,-9.797 74.11,-29.398" /><path
         id="path136"
         style="fill:#e1b125;fill-opacity:1;fill-rule:nonzero;stroke:none"
         d="m 8570.13,325.004 43.94,-179.984 44.57,179.984 43.07,0 44.79,-178.914 46.7,178.914 38.39,0 -66.32,-228.4024 -39.89,0 -46.49,176.7964 -45,-176.7964 -39.88,0 -65.89,228.4024 42.01,0" /><path
         id="path138"
         style="fill:#e1b125;fill-opacity:1;fill-rule:nonzero;stroke:none"
         d="m 9022.55,229.031 c -1.54,16.649 -5.13,29.934 -10.78,39.891 -10.43,18.476 -27.84,27.715 -52.23,27.715 -17.48,0 -32.14,-6.356 -43.99,-19.078 -11.84,-12.731 -18.12,-28.907 -18.82,-48.528 l 125.82,0 z m -13.73,89.676 c 15.11,-7.598 26.62,-17.445 34.53,-29.527 7.64,-11.512 12.72,-24.953 15.26,-40.301 2.28,-10.527 3.41,-27.305 3.41,-50.328 l -166.14,0 c 0.7,-23.25 6.14,-41.883 16.29,-55.934 10.16,-14.039 25.88,-21.066 47.19,-21.066 19.89,0 35.76,6.64 47.61,19.933 6.63,7.704 11.33,16.629 14.1,26.774 l 37.75,0 c -1,-8.383 -4.31,-17.731 -9.92,-28.043 -5.62,-10.309 -11.88,-18.731 -18.79,-25.266 -11.58,-11.383 -25.9,-19.0584 -42.97,-23.031 -9.18,-2.2852 -19.55,-3.4141 -31.12,-3.4141 -28.26,0 -52.2,10.3399 -71.83,31.0191 -19.64,20.692 -29.46,49.661 -29.46,86.911 0,36.679 9.88,66.461 29.66,89.347 19.79,22.907 45.65,34.348 77.58,34.348 16.11,0 31.73,-3.809 46.85,-11.422" /><path
         id="path140"
         style="fill:#e1b125;fill-opacity:1;fill-rule:nonzero;stroke:none"
         d="m 9111.7,325.004 36.47,0 0,-39.457 c 2.98,7.687 10.31,17.031 21.96,28.055 11.66,11.007 25.1,16.527 40.31,16.527 0.71,0 1.92,-0.078 3.62,-0.215 1.71,-0.141 4.62,-0.434 8.74,-0.855 l 0,-40.52 c -2.26,0.422 -4.37,0.707 -6.28,0.856 -1.92,0.14 -4.02,0.207 -6.3,0.207 -19.33,0 -34.19,-6.219 -44.57,-18.653 -10.38,-12.449 -15.56,-26.773 -15.56,-42.98 l 0,-131.3674 -38.39,0 0,228.4024" /><path
         id="path142"
         style="fill:#e1b125;fill-opacity:1;fill-rule:nonzero;stroke:none"
         d="m 9410.9,229.031 c -1.54,16.649 -5.15,29.934 -10.78,39.891 -10.43,18.476 -27.85,27.715 -52.23,27.715 -17.5,0 -32.14,-6.356 -43.99,-19.078 -11.85,-12.731 -18.12,-28.907 -18.82,-48.528 l 125.82,0 z m -13.75,89.676 c 15.13,-7.598 26.63,-17.445 34.55,-29.527 7.63,-11.512 12.72,-24.953 15.26,-40.301 2.26,-10.527 3.4,-27.305 3.4,-50.328 l -166.13,0 c 0.7,-23.25 6.13,-41.883 16.29,-55.934 10.15,-14.039 25.88,-21.066 47.18,-21.066 19.9,0 35.77,6.64 47.61,19.933 6.64,7.704 11.33,16.629 14.1,26.774 l 37.75,0 c -1,-8.383 -4.3,-17.731 -9.91,-28.043 -5.63,-10.309 -11.89,-18.731 -18.8,-25.266 -11.57,-11.383 -25.89,-19.0584 -42.97,-23.031 -9.17,-2.2852 -19.54,-3.4141 -31.11,-3.4141 -28.26,0 -52.2,10.3399 -71.85,31.0191 -19.64,20.692 -29.46,49.661 -29.46,86.911 0,36.679 9.89,66.461 29.68,89.347 19.79,22.907 45.64,34.348 77.58,34.348 16.1,0 31.71,-3.809 46.83,-11.422" /><path
         id="path144"
         style="fill:#e1b125;fill-opacity:1;fill-rule:nonzero;stroke:none"
         d="m 9538.79,146.719 c 10.33,-16.5 26.87,-24.746 49.66,-24.746 17.68,0 32.2,7.656 43.58,22.925 11.4,15.29 17.09,37.223 17.09,65.805 0,28.86 -5.87,50.219 -17.61,64.082 -11.75,13.863 -26.24,20.789 -43.5,20.789 -19.23,0 -34.83,-7.39 -46.78,-22.176 -11.96,-14.789 -17.93,-36.543 -17.93,-65.261 0,-24.453 5.16,-44.926 15.49,-61.418 z m 85.69,171.25 c 6.78,-4.262 14.51,-11.731 23.15,-22.395 l 0,115.371 36.89,0 0,-314.3434 -34.54,0 0,31.7774 c -8.93,-14.078 -19.48,-24.242 -31.66,-30.5001 -12.19,-6.2578 -26.13,-9.375 -41.85,-9.375 -25.36,0 -47.32,10.6914 -65.86,32.0941 -18.56,21.398 -27.83,49.863 -27.83,85.402 0,33.277 8.45,62.105 25.39,86.477 16.91,24.39 41.1,36.582 72.54,36.582 17.42,0 32.01,-3.704 43.77,-11.09" /><path
         id="path146"
         style="fill:#e1b125;fill-opacity:1;fill-rule:nonzero;stroke:none"
         d="m 10006.8,148 c 10.3,16.5 15.5,38.242 15.5,65.262 0,24.015 -5.2,43.929 -15.5,59.711 -10.34,15.785 -25.59,23.664 -45.66,23.664 -17.51,0 -32.96,-6.465 -46.15,-19.391 -13.18,-12.949 -19.78,-34.281 -19.78,-63.984 0,-21.469 2.76,-38.883 8.17,-52.254 10.14,-25.16 29.03,-37.746 56.67,-37.746 20.86,0 36.41,8.246 46.75,24.738 z m -146.81,262.945 37.39,0 0,-113.66 c 8.36,10.942 18.5,19.305 30.21,25.063 11.7,5.754 24.4,8.636 38.07,8.636 28.54,0 51.64,-9.789 69.44,-29.328 17.7,-19.551 26.7,-48.379 26.7,-86.476 0,-36.117 -8.8,-66.117 -26.4,-89.996 -17.5,-23.883 -41.89,-35.8246 -72.99,-35.8246 -17.41,0 -32.07,4.1914 -44.07,12.5746 -7.18,4.976 -14.76,12.937 -22.93,23.886 l 0,-29.2184 -35.42,0 0,314.3434" /><path
         id="path148"
         style="fill:#e1b125;fill-opacity:1;fill-rule:nonzero;stroke:none"
         d="m 10248.9,325.004 42.4,0 c -5.4,-14.652 -17.4,-48.074 -36,-100.27 -13.9,-39.269 -25.6,-71.265 -35,-96.019 -22.1,-58.2462 -37.8,-93.758 -46.8,-106.547 -9.1,-12.793 -24.7,-19.17581 -46.9,-19.17581 -5.4,0 -9.6,0.20703 -12.5,0.6289 -2.9,0.4336 -6.5,1.21094 -10.8,2.33985 l 0,34.98046 c 6.7,-1.8398 11.5,-2.9805 14.6,-3.4141 2.9,-0.4257 5.6,-0.6289 7.8,-0.6289 7.1,0 12.3,1.168 15.7,3.5 3.3,2.3516 6.1,5.2266 8.4,8.6211 0.6,1.1485 3.2,6.9532 7.6,17.4532 4.5,10.5078 7.6,18.3086 9.6,23.4179 l -84.4,235.1134 43.4,0 61.2,-186.047 61.7,186.047" /><path
         id="path150"
         style="fill:#e1b125;fill-opacity:1;fill-rule:nonzero;stroke:none"
         d="m 10619.7,366.801 c -9.4,4.406 -22.2,6.621 -38.4,6.621 l -83.8,0 0,-108.555 83.8,0 c 18.9,0 34.2,4.055 46,12.153 11.8,8.105 17.7,22.402 17.7,42.878 0,23.024 -8.4,38.657 -25.3,46.903 z m -164.6,43.082 140.2,0 c 27.6,0 50,-7.86 67.1,-23.563 17,-15.715 25.5,-37.781 25.5,-66.218 0,-24.45 -7.6,-45.739 -22.8,-63.875 -15.2,-18.122 -38.5,-27.196 -69.8,-27.196 l -97.8,0 0,-132.4294 -42.4,0 0,313.2814" /><path
         id="path152"
         style="fill:#e1b125;fill-opacity:1;fill-rule:nonzero;stroke:none"
         d="m 10778.8,131.125 c 8,-6.375 17.7,-9.574 28.8,-9.574 13.5,0 26.6,3.129 39.2,9.379 21.3,10.347 31.9,27.32 31.9,50.875 l 0,30.875 c -4.6,-2.989 -10.6,-5.489 -18,-7.489 -7.4,-1.996 -14.6,-3.414 -21.7,-4.269 l -23.2,-2.981 c -13.9,-1.839 -24.3,-4.75 -31.4,-8.726 -11.8,-6.66 -17.8,-17.297 -17.8,-31.918 0,-11.059 4.1,-19.785 12.2,-26.172 z m 80.7,103.703 c 8.9,1.133 14.8,4.82 17.8,11.07 1.7,3.434 2.5,8.352 2.5,14.778 0,13.125 -4.6,22.648 -13.9,28.57 -9.3,5.926 -22.6,8.895 -39.9,8.895 -20,0 -34.3,-5.438 -42.6,-16.301 -4.6,-5.992 -7.7,-14.926 -9.2,-26.781 l -35.8,0 c 0.7,28.226 9.9,47.867 27.4,58.914 17.6,11.05 37.9,16.578 61.1,16.578 26.7,0 48.6,-5.113 65.3,-15.356 16.6,-10.234 25,-26.152 25,-47.769 l 0,-131.59 c 0,-3.984 0.8,-7.18 2.5,-9.59 1.5,-2.41 5,-3.621 10.3,-3.621 1.7,0 3.5,0.105 5.7,0.313 2.2,0.218 4.4,0.531 6.9,0.964 l 0,-28.3668 c -6,-1.6993 -10.5,-2.7618 -13.7,-3.1954 -3.1,-0.4218 -7.4,-0.6406 -12.8,-0.6406 -13.3,0 -22.8,4.6953 -28.8,14.0708 -3.2,4.98 -5.3,12.023 -6.6,21.105 -7.9,-10.234 -19.1,-19.117 -33.8,-26.656 -14.5,-7.5237 -30.7,-11.2932 -48.3,-11.2932 -21.2,0 -38.5,6.4258 -51.9,19.2732 -13.5,12.86 -20.2,28.926 -20.2,48.242 0,21.164 6.6,37.567 19.8,49.204 13.3,11.652 30.6,18.812 52,21.519 l 61.2,7.664" /><path
         id="path154"
         style="fill:#e1b125;fill-opacity:1;fill-rule:nonzero;stroke:none"
         d="m 10981.1,325.004 36.6,0 0,-39.457 c 2.9,7.687 10.2,17.031 21.9,28.055 11.6,11.007 25.1,16.527 40.2,16.527 0.8,0 2,-0.078 3.7,-0.215 1.7,-0.141 4.6,-0.434 8.7,-0.855 l 0,-40.52 c -2.2,0.422 -4.3,0.707 -6.3,0.856 -1.8,0.14 -4,0.207 -6.3,0.207 -19.2,0 -34.1,-6.219 -44.5,-18.653 -10.4,-12.449 -15.6,-26.773 -15.6,-42.98 l 0,-131.3674 -38.4,0 0,228.4024" /><path
         id="path156"
         style="fill:#e1b125;fill-opacity:1;fill-rule:nonzero;stroke:none"
         d="m 11133.2,388.781 38.8,0 0,-63.777 36.5,0 0,-31.34 -36.5,0 0,-149.078 c 0,-7.961 2.7,-13.293 8.1,-15.988 3,-1.567 8,-2.352 15,-2.352 1.8,0 3.8,0.047 6,0.145 2,0.089 4.6,0.336 7.4,0.711 l 0,-30.5004 c -4.4,-1.2813 -9,-2.1953 -13.7,-2.7657 -4.9,-0.5703 -10,-0.8554 -15.5,-0.8554 -17.9,0 -30.1,4.582 -36.5,13.7615 -6.4,9.16 -9.6,21.067 -9.6,35.707 l 0,151.215 -30.9,0 0,31.34 30.9,0 0,63.777" /><path
         id="path158"
         style="fill:#e1b125;fill-opacity:1;fill-rule:nonzero;stroke:none"
         d="m 11246.9,325.004 36.4,0 0,-32.41 c 10.8,13.359 22.2,22.953 34.3,28.789 12.1,5.824 25.6,8.746 40.4,8.746 32.4,0 54.3,-11.305 65.7,-33.914 6.2,-12.36 9.4,-30.07 9.4,-53.102 l 0,-146.5114 -39.1,0 0,143.9534 c 0,13.933 -2.1,25.168 -6.2,33.699 -6.8,14.207 -19.2,21.32 -37.1,21.32 -9,0 -16.5,-0.926 -22.3,-2.765 -10.6,-3.137 -19.8,-9.387 -27.8,-18.774 -6.4,-7.535 -10.5,-15.316 -12.5,-23.355 -1.8,-8.032 -2.8,-19.512 -2.8,-34.438 l 0,-119.6404 -38.4,0 0,228.4024" /><path
         id="path160"
         style="fill:#e1b125;fill-opacity:1;fill-rule:nonzero;stroke:none"
         d="m 11644.6,229.031 c -1.6,16.649 -5.1,29.934 -10.8,39.891 -10.5,18.476 -27.9,27.715 -52.2,27.715 -17.5,0 -32.1,-6.356 -44.1,-19.078 -11.8,-12.731 -18.1,-28.907 -18.7,-48.528 l 125.8,0 z m -13.8,89.676 c 15.2,-7.598 26.7,-17.445 34.6,-29.527 7.6,-11.512 12.7,-24.953 15.2,-40.301 2.3,-10.527 3.5,-27.305 3.5,-50.328 l -166.1,0 c 0.7,-23.25 6.1,-41.883 16.2,-55.934 10.1,-14.039 25.9,-21.066 47.2,-21.066 19.9,0 35.7,6.64 47.7,19.933 6.5,7.704 11.3,16.629 14,26.774 l 37.7,0 c -1,-8.383 -4.2,-17.731 -9.8,-28.043 -5.6,-10.309 -11.9,-18.731 -18.8,-25.266 -11.6,-11.383 -25.9,-19.0584 -43,-23.031 -9.2,-2.2852 -19.6,-3.4141 -31.1,-3.4141 -28.3,0 -52.3,10.3399 -71.8,31.0191 -19.7,20.692 -29.6,49.661 -29.6,86.911 0,36.679 10,66.461 29.8,89.347 19.7,22.907 45.6,34.348 77.5,34.348 16.1,0 31.8,-3.809 46.8,-11.422" /><path
         id="path162"
         style="fill:#e1b125;fill-opacity:1;fill-rule:nonzero;stroke:none"
         d="m 11733.7,325.004 36.5,0 0,-39.457 c 3,7.687 10.3,17.031 22,28.055 11.6,11.007 25.1,16.527 40.3,16.527 0.7,0 1.9,-0.078 3.6,-0.215 1.7,-0.141 4.6,-0.434 8.7,-0.855 l 0,-40.52 c -2.2,0.422 -4.3,0.707 -6.3,0.856 -1.8,0.14 -4,0.207 -6.3,0.207 -19.3,0 -34.1,-6.219 -44.5,-18.653 -10.4,-12.449 -15.6,-26.773 -15.6,-42.98 l 0,-131.3674 -38.4,0 0,228.4024" /><path
         id="path164"
         style="fill:#e1b125;fill-opacity:1;fill-rule:nonzero;stroke:none"
         d="m 11900.9,168.258 c 1.2,-12.793 4.4,-22.602 9.8,-29.43 9.9,-12.367 27,-18.547 51.4,-18.547 14.5,0 27.3,3.09 38.3,9.27 11,6.187 16.5,15.742 16.5,28.691 0,9.809 -4.3,17.266 -13.2,22.383 -5.6,3.129 -16.7,6.758 -33.3,10.883 l -31,7.672 c -19.8,4.832 -34.5,10.234 -43.8,16.215 -16.7,10.371 -25.2,24.738 -25.2,43.066 0,21.617 8,39.102 23.7,52.461 15.8,13.371 37,20.062 63.7,20.062 34.8,0 60,-10.105 75.3,-30.293 9.7,-12.793 14.4,-26.586 14.1,-41.375 l -36.2,0 c -0.8,8.629 -3.8,16.473 -9.4,23.547 -9,10.035 -24.6,15.055 -47,15.055 -14.8,0 -26,-2.758 -33.7,-8.285 -7.6,-5.52 -11.4,-12.82 -11.4,-21.883 0,-9.918 5,-17.859 15,-23.801 5.8,-3.551 14.4,-6.672 25.7,-9.367 l 25.8,-6.18 c 28.1,-6.691 46.9,-13.152 56.5,-19.41 14.9,-9.812 22.4,-25.238 22.4,-46.273 0,-20.328 -7.8,-37.903 -23.4,-52.68 -15.7,-14.7773 -39.4,-22.1757 -71.4,-22.1757 -34.4,0 -58.7,7.7148 -73.1,23.1327 -14.3,15.434 -21.9,34.512 -23,57.262 l 36.9,0" /><path
         id="path166"
         style="fill:#e1b125;fill-opacity:1;fill-rule:nonzero;stroke:none"
         d="m 12096.5,410.945 38.4,0 0,-116.855 c 9.1,11.5 17.3,19.617 24.5,24.301 12.4,8.109 27.8,12.16 46.3,12.16 33.1,0 55.6,-11.59 67.4,-34.77 6.4,-12.652 9.6,-30.207 9.6,-52.668 l 0,-146.5114 -39.5,0 0,143.9534 c 0,16.777 -2.2,29.074 -6.4,36.894 -7,12.516 -20.1,18.766 -39.2,18.766 -16,0 -30.4,-5.473 -43.3,-16.422 -12.9,-10.953 -19.4,-31.633 -19.4,-62.055 l 0,-121.1364 -38.4,0 0,314.3434" /><path
         id="path168"
         style="fill:#e1b125;fill-opacity:1;fill-rule:nonzero;stroke:none"
         d="m 12339.4,323.941 39,0 0,-227.3394 -39,0 0,227.3394 z m 0,85.942 39,0 0,-43.508 -39,0 0,43.508" /><path
         id="path170"
         style="fill:#e1b125;fill-opacity:1;fill-rule:nonzero;stroke:none"
         d="m 12577.6,144.898 c 11.9,15.004 17.9,37.438 17.9,67.29 0,18.203 -2.6,33.835 -7.9,46.921 -10,25.161 -28.3,37.743 -54.7,37.743 -26.8,0 -45,-13.289 -54.8,-39.875 -5.4,-14.219 -8,-32.274 -8,-54.176 0,-17.621 2.6,-32.613 8,-44.992 9.9,-23.594 28.2,-35.403 54.8,-35.403 17.9,0 32.8,7.5 44.7,22.492 z m -144.4,179.043 37.6,0 0,-30.277 c 7.7,10.363 16.1,18.41 25.2,24.098 13,8.519 28.2,12.789 45.7,12.789 26,0 48,-9.918 66.1,-29.75 18.1,-19.828 27.2,-48.164 27.2,-84.992 0,-49.754 -13.1,-85.293 -39.2,-106.614 -16.6,-13.5114 -35.9,-20.2692 -57.8,-20.2692 -17.2,0 -31.8,3.7695 -43.5,11.3042 -6.8,4.262 -14.5,11.583 -22.8,21.969 l 0,-116.65994 -38.5,0 0,318.40194" /><path
         id="path172"
         style="fill:#e1b125;fill-opacity:1;fill-rule:nonzero;stroke:none"
         d="m 12688.5,96.6016 44.574,0 0,46.4961 -44.574,0 0,-46.4961 z" /></g></g></svg>