<svg xmlns="http://www.w3.org/2000/svg" xmlns:xlink="http://www.w3.org/1999/xlink" version="1.1" x="0px" y="0px" viewBox="-255 347 100 125" fill-rule="evenodd" clip-rule="evenodd"><defs><style type="text/css">
   
    .fil0 {fill:#67d9f4}
   
  </style></defs><path class="fil0" d="M-159.6,388.9c-5.2-9-10.3-18.1-15.7-27c-3.2-5.3-8-8.2-14.3-8.2c-10.3-0.1-20.8,0-31.1,0c-1.6,0-3.2,0.2-4.7,0.7  c-4,1.4-7.3,3.7-9.5,7.5c-5.1,8.8-10.2,17.8-15.3,26.6c-1.4,2.3-2.1,4.8-2.3,7.5c-0.2,3.3,0.3,6.4,2,9.3  c5.2,8.9,10.4,17.9,15.5,26.8c1.4,2.6,3.4,4.5,5.9,5.9c2.3,1.4,4.9,2.4,7.7,2.4h31.8c1.5,0,3-0.2,4.4-0.6c4.2-1.4,7.6-3.6,9.8-7.6  c5.2-8.9,10.3-17.9,15.5-26.8c1.4-2.4,2.1-5,2.2-7.8C-157.4,394.5-158,391.6-159.6,388.9z M-215.5,409.9c1,1.1,1,2.7-0.1,3.7  c-0.5,0.5-1.2,0.7-1.8,0.7c-0.7,0-1.4-0.3-1.9-0.8l-13.9-14.7c-1-1-1-2.6,0-3.6l13.9-14.7c1-1.1,2.7-1.1,3.7-0.1  c1.1,1,1.1,2.7,0.1,3.7l-12.2,12.9L-215.5,409.9z M-198.9,383.1l-7,29.1c-0.3,1.2-1.4,2-2.6,2c-0.2,0-0.4,0-0.6-0.1  c-1.4-0.3-2.3-1.8-1.9-3.2l7-29.1c0.3-1.4,1.8-2.3,3.2-1.9C-199.4,380.2-198.6,381.7-198.9,383.1z M-176.8,398.8l-13.9,14.7  c-0.5,0.6-1.2,0.8-1.9,0.8c-0.7,0-1.3-0.2-1.8-0.7c-1.1-1-1.1-2.7-0.1-3.7l12.2-12.9l-12.2-12.9c-1-1.1-1-2.7,0.1-3.7  c1.1-1,2.7-1,3.7,0.1l13.9,14.7C-175.8,396.2-175.8,397.8-176.8,398.8z"/></svg>