<?xml version="1.0" encoding="utf-8"?>
<!-- Generator: Adobe Illustrator 21.0.0, SVG Export Plug-In . SVG Version: 6.00 Build 0)  -->
<svg version="1.1" id="Layer_1" xmlns="http://www.w3.org/2000/svg" xmlns:xlink="http://www.w3.org/1999/xlink" x="0px" y="0px"
	 viewBox="50 0 290 60" style="enable-background:new 0 0 290 60;" xml:space="preserve">
<style type="text/css">
	.st1{fill:#67D9F4;}
</style>
<g>
	<path class="st1" d="M62.4,43.1c1.6-1.6,2.2-4,1.3-6.1c-2.9-6.9-1.9-14.8,3.9-20.6c5.9-5.9,14.1-6.9,21.1-3.8
		c1.8,0.8,3.9,0.2,5.2-1.1l4.8-4.8C87.7-1.5,72.3-1,61.4,9.9C50.4,20.9,50,36.4,58,47.5L62.4,43.1z"/>
	<path class="st1" d="M100.7,18.3c-1.3,1.3-1.9,3.3-1.1,5c3.2,7,2.3,15.1-3.7,21.1c-5.8,5.8-13.8,6.9-20.7,4c-2-0.9-4.4-0.3-5.9,1.3
		l-4.5,4.5c11.1,8.1,26.5,7.7,37.5-3.2c10.9-10.9,11.4-26.5,3.3-37.6L100.7,18.3z"/>
</g>
</svg>
