<svg xmlns="http://www.w3.org/2000/svg" xmlns:xlink="http://www.w3.org/1999/xlink" xml:space="preserve" version="1.1" style="shape-rendering:geometricPrecision;text-rendering:geometricPrecision;image-rendering:optimizeQuality;" viewBox="0 0 8411 10513.75" x="0px" y="0px" fill-rule="evenodd" clip-rule="evenodd"><defs><style type="text/css">
   
    .fil0 {fill:#fff;fill-rule:nonzero}
   
  </style></defs><g><path class="fil0" d="M2191 3230l1039 0 0 -1039c0,-536 439,-975 975,-975 537,0 975,439 975,975l0 1039 1040 0c536,0 974,439 974,975 0,537 -438,975 -974,975l-1040 0 0 1040c0,536 -438,974 -975,974 -536,0 -975,-438 -975,-974l0 -1040 -1039 0c-536,0 -975,-438 -975,-975 0,-536 439,-975 975,-975zm0 334c-352,0 -641,289 -641,641 0,353 289,642 641,642l1373 0 0 1373c0,352 289,641 641,641 353,0 642,-289 642,-641l0 -1373 1373 0c352,0 641,-289 641,-642 0,-352 -289,-641 -641,-641l-1373 0 0 -1373c0,-352 -289,-641 -642,-641 -352,0 -641,289 -641,641l0 1373 -1373 0z"/><path class="fil0" d="M4205 0c2323,0 4206,1883 4206,4205 0,2323 -1883,4206 -4206,4206 -2322,0 -4205,-1883 -4205,-4206 0,-2322 1883,-4205 4205,-4205zm2738 1467c-1512,-1512 -3963,-1512 -5476,0 -1512,1513 -1512,3964 0,5476 1513,1512 3964,1512 5476,0 1512,-1512 1512,-3963 0,-5476z"/></g></svg>